<svg viewBox="0 -80 600 1050" xmlns="http://www.w3.org/2000/svg" xmlns:xlink="http://www.w3.org/1999/xlink">
<g id="row10-0">
    <rect id="c4r10p10" height="45" width="34" y="0" x="0" stroke="#7f7f7f" fill="#e5e5e5"></rect>
    <image id="c4r10p10" height="45" width="34" y="0" x="0" preserveAspectRatio="xMidYMid slice" xlink:href=""></image>
    <text y="68" x="6.8" xml:space="preserve" font-family="Helvetica, Arial, sans-serif" font-size="10" fill="#b2b2b2">10</text> 
    <rect id="c4r10p9" height="45" width="34" y="-34" x="34" stroke="#7f7f7f" fill="#e5e5e5"></rect>
    <image id="c4r10p9" height="45" width="34" y="-34" x="34" preserveAspectRatio="xMidYMid slice" xlink:href=""></image>
    <text y="34" x="40.8" xml:space="preserve" font-family="Helvetica, Arial, sans-serif" font-size="10" fill="#b2b2b2">9</text> 
    <rect id="c4r10p8" height="45" width="34" y="0" x="68" stroke="#7f7f7f" fill="#e5e5e5"></rect>
    <image id="c4r10p8" height="45" width="34" y="0" x="68" preserveAspectRatio="xMidYMid slice" xlink:href=""></image>
    <text y="68" x="74.8" xml:space="preserve" font-family="Helvetica, Arial, sans-serif" font-size="10" fill="#b2b2b2">8</text> 
    <rect id="c4r10p7" height="45" width="34" y="-34" x="102" stroke="#7f7f7f" fill="#e5e5e5"></rect>
    <image id="c4r10p7" height="45" width="34" y="-34" x="102" preserveAspectRatio="xMidYMid slice" xlink:href=""></image>
    <text y="34" x="108.8" xml:space="preserve" font-family="Helvetica, Arial, sans-serif" font-size="10" fill="#b2b2b2">7</text> 
    <rect id="c4r10p6" height="45" width="34" y="0" x="136" stroke="#7f7f7f" fill="#e5e5e5"></rect>
    <image id="c4r10p6" height="45" width="34" y="0" x="136" preserveAspectRatio="xMidYMid slice" xlink:href=""></image>
    <text y="68" x="142.8" xml:space="preserve" font-family="Helvetica, Arial, sans-serif" font-size="10" fill="#b2b2b2">6</text> <text fill="#cccccc" x="249" y="28" font-size="20" font-family="Helvetica, Arial, sans-serif" xml:space="preserve" font-weight="bold" id="text10">R10</text></g>
<g id="row10-1">
    <rect id="c4r10p5" height="45" width="34" y="-34" x="270" stroke="#7f7f7f" fill="#e5e5e5"></rect>
    <image id="c4r10p5" height="45" width="34" y="-34" x="270" preserveAspectRatio="xMidYMid slice" xlink:href=""></image>
    <text y="34" x="276.8" xml:space="preserve" font-family="Helvetica, Arial, sans-serif" font-size="10" fill="#b2b2b2">5</text> 
    <rect id="c4r10p4" height="45" width="34" y="-68" x="304" stroke="#7f7f7f" fill="#e5e5e5"></rect>
    <image id="c4r10p4" height="45" width="34" y="-68" x="304" preserveAspectRatio="xMidYMid slice" xlink:href=""></image>
    <text y="0" x="310.8" xml:space="preserve" font-family="Helvetica, Arial, sans-serif" font-size="10" fill="#b2b2b2">4</text> 
    <rect id="c4r10p3" height="45" width="34" y="-34" x="338" stroke="#7f7f7f" fill="#e5e5e5"></rect>
    <image id="c4r10p3" height="45" width="34" y="-34" x="338" preserveAspectRatio="xMidYMid slice" xlink:href=""></image>
    <text y="34" x="344.8" xml:space="preserve" font-family="Helvetica, Arial, sans-serif" font-size="10" fill="#b2b2b2">3</text> 
    <rect id="c4r10p2" height="45" width="34" y="-68" x="372" stroke="#7f7f7f" fill="#e5e5e5"></rect>
    <image id="c4r10p2" height="45" width="34" y="-68" x="372" preserveAspectRatio="xMidYMid slice" xlink:href=""></image>
    <text y="0" x="378.8" xml:space="preserve" font-family="Helvetica, Arial, sans-serif" font-size="10" fill="#b2b2b2">2</text> 
    <rect id="c4r10p1" height="45" width="34" y="-34" x="406" stroke="#7f7f7f" fill="#e5e5e5"></rect>
    <image id="c4r10p1" height="45" width="34" y="-34" x="406" preserveAspectRatio="xMidYMid slice" xlink:href=""></image>
    <text y="34" x="412.8" xml:space="preserve" font-family="Helvetica, Arial, sans-serif" font-size="10" fill="#b2b2b2">1</text> <text fill="#cccccc" x="519" y="-6" font-size="20" font-family="Helvetica, Arial, sans-serif" xml:space="preserve" font-weight="bold" id="text10">R10</text></g>
<g id="row9-0">
    <rect id="c4r9p10" height="45" width="34" y="100" x="0" stroke="#7f7f7f" fill="#e5e5e5"></rect>
    <image id="c4r9p10" height="45" width="34" y="100" x="0" preserveAspectRatio="xMidYMid slice" xlink:href=""></image>
    <text y="168" x="6.8" xml:space="preserve" font-family="Helvetica, Arial, sans-serif" font-size="10" fill="#b2b2b2">10</text> 
    <rect id="c4r9p9" height="45" width="34" y="66" x="34" stroke="#7f7f7f" fill="#e5e5e5"></rect>
    <image id="c4r9p9" height="45" width="34" y="66" x="34" preserveAspectRatio="xMidYMid slice" xlink:href=""></image>
    <text y="134" x="40.8" xml:space="preserve" font-family="Helvetica, Arial, sans-serif" font-size="10" fill="#b2b2b2">9</text> 
    <rect id="c4r9p8" height="45" width="34" y="100" x="68" stroke="#7f7f7f" fill="#e5e5e5"></rect>
    <image id="c4r9p8" height="45" width="34" y="100" x="68" preserveAspectRatio="xMidYMid slice" xlink:href=""></image>
    <text y="168" x="74.8" xml:space="preserve" font-family="Helvetica, Arial, sans-serif" font-size="10" fill="#b2b2b2">8</text> 
    <rect id="c4r9p7" height="45" width="34" y="66" x="102" stroke="#7f7f7f" fill="#e5e5e5"></rect>
    <image id="c4r9p7" height="45" width="34" y="66" x="102" preserveAspectRatio="xMidYMid slice" xlink:href=""></image>
    <text y="134" x="108.8" xml:space="preserve" font-family="Helvetica, Arial, sans-serif" font-size="10" fill="#b2b2b2">7</text> 
    <rect id="c4r9p6" height="45" width="34" y="100" x="136" stroke="#7f7f7f" fill="#e5e5e5"></rect>
    <image id="c4r9p6" height="45" width="34" y="100" x="136" preserveAspectRatio="xMidYMid slice" xlink:href=""></image>
    <text y="168" x="142.8" xml:space="preserve" font-family="Helvetica, Arial, sans-serif" font-size="10" fill="#b2b2b2">6</text> <text fill="#cccccc" x="249" y="128" font-size="20" font-family="Helvetica, Arial, sans-serif" xml:space="preserve" font-weight="bold" id="text9">R9</text></g>
<g id="row9-1">
    <rect id="c4r9p5" height="45" width="34" y="66" x="270" stroke="#7f7f7f" fill="#e5e5e5"></rect>
    <image id="c4r9p5" height="45" width="34" y="66" x="270" preserveAspectRatio="xMidYMid slice" xlink:href=""></image>
    <text y="134" x="276.8" xml:space="preserve" font-family="Helvetica, Arial, sans-serif" font-size="10" fill="#b2b2b2">5</text> 
    <rect id="c4r9p4" height="45" width="34" y="32" x="304" stroke="#7f7f7f" fill="#e5e5e5"></rect>
    <image id="c4r9p4" height="45" width="34" y="32" x="304" preserveAspectRatio="xMidYMid slice" xlink:href=""></image>
    <text y="100" x="310.8" xml:space="preserve" font-family="Helvetica, Arial, sans-serif" font-size="10" fill="#b2b2b2">4</text> 
    <rect id="c4r9p3" height="45" width="34" y="66" x="338" stroke="#7f7f7f" fill="#e5e5e5"></rect>
    <image id="c4r9p3" height="45" width="34" y="66" x="338" preserveAspectRatio="xMidYMid slice" xlink:href=""></image>
    <text y="134" x="344.8" xml:space="preserve" font-family="Helvetica, Arial, sans-serif" font-size="10" fill="#b2b2b2">3</text> 
    <rect id="c4r9p2" height="45" width="34" y="32" x="372" stroke="#7f7f7f" fill="#e5e5e5"></rect>
    <image id="c4r9p2" height="45" width="34" y="32" x="372" preserveAspectRatio="xMidYMid slice" xlink:href=""></image>
    <text y="100" x="378.8" xml:space="preserve" font-family="Helvetica, Arial, sans-serif" font-size="10" fill="#b2b2b2">2</text> 
    <rect id="c4r9p1" height="45" width="34" y="66" x="406" stroke="#7f7f7f" fill="#e5e5e5"></rect>
    <image id="c4r9p1" height="45" width="34" y="66" x="406" preserveAspectRatio="xMidYMid slice" xlink:href=""></image>
    <text y="134" x="412.8" xml:space="preserve" font-family="Helvetica, Arial, sans-serif" font-size="10" fill="#b2b2b2">1</text> <text fill="#cccccc" x="519" y="94" font-size="20" font-family="Helvetica, Arial, sans-serif" xml:space="preserve" font-weight="bold" id="text9">R9</text></g>
<g id="row8-0">
    <rect id="c4r8p10" height="45" width="34" y="200" x="0" stroke="#7f7f7f" fill="#e5e5e5"></rect>
    <image id="c4r8p10" height="45" width="34" y="200" x="0" preserveAspectRatio="xMidYMid slice" xlink:href=""></image>
    <text y="268" x="6.8" xml:space="preserve" font-family="Helvetica, Arial, sans-serif" font-size="10" fill="#b2b2b2">10</text> 
    <rect id="c4r8p9" height="45" width="34" y="166" x="34" stroke="#7f7f7f" fill="#e5e5e5"></rect>
    <image id="c4r8p9" height="45" width="34" y="166" x="34" preserveAspectRatio="xMidYMid slice" xlink:href=""></image>
    <text y="234" x="40.8" xml:space="preserve" font-family="Helvetica, Arial, sans-serif" font-size="10" fill="#b2b2b2">9</text> 
    <rect id="c4r8p8" height="45" width="34" y="200" x="68" stroke="#7f7f7f" fill="#e5e5e5"></rect>
    <image id="c4r8p8" height="45" width="34" y="200" x="68" preserveAspectRatio="xMidYMid slice" xlink:href=""></image>
    <text y="268" x="74.8" xml:space="preserve" font-family="Helvetica, Arial, sans-serif" font-size="10" fill="#b2b2b2">8</text> 
    <rect id="c4r8p7" height="45" width="34" y="166" x="102" stroke="#7f7f7f" fill="#e5e5e5"></rect>
    <image id="c4r8p7" height="45" width="34" y="166" x="102" preserveAspectRatio="xMidYMid slice" xlink:href=""></image>
    <text y="234" x="108.8" xml:space="preserve" font-family="Helvetica, Arial, sans-serif" font-size="10" fill="#b2b2b2">7</text> 
    <rect id="c4r8p6" height="45" width="34" y="200" x="136" stroke="#7f7f7f" fill="#e5e5e5"></rect>
    <image id="c4r8p6" height="45" width="34" y="200" x="136" preserveAspectRatio="xMidYMid slice" xlink:href=""></image>
    <text y="268" x="142.8" xml:space="preserve" font-family="Helvetica, Arial, sans-serif" font-size="10" fill="#b2b2b2">6</text> <text fill="#cccccc" x="249" y="228" font-size="20" font-family="Helvetica, Arial, sans-serif" xml:space="preserve" font-weight="bold" id="text8">R8</text></g>
<g id="row8-1">
    <rect id="c4r8p5" height="45" width="34" y="166" x="270" stroke="#7f7f7f" fill="#e5e5e5"></rect>
    <image id="c4r8p5" height="45" width="34" y="166" x="270" preserveAspectRatio="xMidYMid slice" xlink:href=""></image>
    <text y="234" x="276.8" xml:space="preserve" font-family="Helvetica, Arial, sans-serif" font-size="10" fill="#b2b2b2">5</text> 
    <rect id="c4r8p4" height="45" width="34" y="132" x="304" stroke="#7f7f7f" fill="#e5e5e5"></rect>
    <image id="c4r8p4" height="45" width="34" y="132" x="304" preserveAspectRatio="xMidYMid slice" xlink:href=""></image>
    <text y="200" x="310.8" xml:space="preserve" font-family="Helvetica, Arial, sans-serif" font-size="10" fill="#b2b2b2">4</text> 
    <rect id="c4r8p3" height="45" width="34" y="166" x="338" stroke="#7f7f7f" fill="#e5e5e5"></rect>
    <image id="c4r8p3" height="45" width="34" y="166" x="338" preserveAspectRatio="xMidYMid slice" xlink:href=""></image>
    <text y="234" x="344.8" xml:space="preserve" font-family="Helvetica, Arial, sans-serif" font-size="10" fill="#b2b2b2">3</text> 
    <rect id="c4r8p2" height="45" width="34" y="132" x="372" stroke="#7f7f7f" fill="#e5e5e5"></rect>
    <image id="c4r8p2" height="45" width="34" y="132" x="372" preserveAspectRatio="xMidYMid slice" xlink:href=""></image>
    <text y="200" x="378.8" xml:space="preserve" font-family="Helvetica, Arial, sans-serif" font-size="10" fill="#b2b2b2">2</text> 
    <rect id="c4r8p1" height="45" width="34" y="166" x="406" stroke="#7f7f7f" fill="#e5e5e5"></rect>
    <image id="c4r8p1" height="45" width="34" y="166" x="406" preserveAspectRatio="xMidYMid slice" xlink:href=""></image>
    <text y="234" x="412.8" xml:space="preserve" font-family="Helvetica, Arial, sans-serif" font-size="10" fill="#b2b2b2">1</text> <text fill="#cccccc" x="519" y="194" font-size="20" font-family="Helvetica, Arial, sans-serif" xml:space="preserve" font-weight="bold" id="text8">R8</text></g>
<g id="row7-0">
    <rect id="c4r7p10" height="45" width="34" y="300" x="0" stroke="#7f7f7f" fill="#e5e5e5"></rect>
    <image id="c4r7p10" height="45" width="34" y="300" x="0" preserveAspectRatio="xMidYMid slice" xlink:href=""></image>
    <text y="368" x="6.8" xml:space="preserve" font-family="Helvetica, Arial, sans-serif" font-size="10" fill="#b2b2b2">10</text> 
    <rect id="c4r7p9" height="45" width="34" y="266" x="34" stroke="#7f7f7f" fill="#e5e5e5"></rect>
    <image id="c4r7p9" height="45" width="34" y="266" x="34" preserveAspectRatio="xMidYMid slice" xlink:href=""></image>
    <text y="334" x="40.8" xml:space="preserve" font-family="Helvetica, Arial, sans-serif" font-size="10" fill="#b2b2b2">9</text> 
    <rect id="c4r7p8" height="45" width="34" y="300" x="68" stroke="#7f7f7f" fill="#e5e5e5"></rect>
    <image id="c4r7p8" height="45" width="34" y="300" x="68" preserveAspectRatio="xMidYMid slice" xlink:href=""></image>
    <text y="368" x="74.8" xml:space="preserve" font-family="Helvetica, Arial, sans-serif" font-size="10" fill="#b2b2b2">8</text> 
    <rect id="c4r7p7" height="45" width="34" y="266" x="102" stroke="#7f7f7f" fill="#e5e5e5"></rect>
    <image id="c4r7p7" height="45" width="34" y="266" x="102" preserveAspectRatio="xMidYMid slice" xlink:href=""></image>
    <text y="334" x="108.8" xml:space="preserve" font-family="Helvetica, Arial, sans-serif" font-size="10" fill="#b2b2b2">7</text> 
    <rect id="c4r7p6" height="45" width="34" y="300" x="136" stroke="#7f7f7f" fill="#e5e5e5"></rect>
    <image id="c4r7p6" height="45" width="34" y="300" x="136" preserveAspectRatio="xMidYMid slice" xlink:href=""></image>
    <text y="368" x="142.8" xml:space="preserve" font-family="Helvetica, Arial, sans-serif" font-size="10" fill="#b2b2b2">6</text> <text fill="#cccccc" x="249" y="328" font-size="20" font-family="Helvetica, Arial, sans-serif" xml:space="preserve" font-weight="bold" id="text7">R7</text></g>
<g id="row7-1">
    <rect id="c4r7p5" height="45" width="34" y="266" x="270" stroke="#7f7f7f" fill="#e5e5e5"></rect>
    <image id="c4r7p5" height="45" width="34" y="266" x="270" preserveAspectRatio="xMidYMid slice" xlink:href=""></image>
    <text y="334" x="276.8" xml:space="preserve" font-family="Helvetica, Arial, sans-serif" font-size="10" fill="#b2b2b2">5</text> 
    <rect id="c4r7p4" height="45" width="34" y="232" x="304" stroke="#7f7f7f" fill="#e5e5e5"></rect>
    <image id="c4r7p4" height="45" width="34" y="232" x="304" preserveAspectRatio="xMidYMid slice" xlink:href=""></image>
    <text y="300" x="310.8" xml:space="preserve" font-family="Helvetica, Arial, sans-serif" font-size="10" fill="#b2b2b2">4</text> 
    <rect id="c4r7p3" height="45" width="34" y="266" x="338" stroke="#7f7f7f" fill="#e5e5e5"></rect>
    <image id="c4r7p3" height="45" width="34" y="266" x="338" preserveAspectRatio="xMidYMid slice" xlink:href=""></image>
    <text y="334" x="344.8" xml:space="preserve" font-family="Helvetica, Arial, sans-serif" font-size="10" fill="#b2b2b2">3</text> 
    <rect id="c4r7p2" height="45" width="34" y="232" x="372" stroke="#7f7f7f" fill="#e5e5e5"></rect>
    <image id="c4r7p2" height="45" width="34" y="232" x="372" preserveAspectRatio="xMidYMid slice" xlink:href=""></image>
    <text y="300" x="378.8" xml:space="preserve" font-family="Helvetica, Arial, sans-serif" font-size="10" fill="#b2b2b2">2</text> 
    <rect id="c4r7p1" height="45" width="34" y="266" x="406" stroke="#7f7f7f" fill="#e5e5e5"></rect>
    <image id="c4r7p1" height="45" width="34" y="266" x="406" preserveAspectRatio="xMidYMid slice" xlink:href=""></image>
    <text y="334" x="412.8" xml:space="preserve" font-family="Helvetica, Arial, sans-serif" font-size="10" fill="#b2b2b2">1</text> <text fill="#cccccc" x="519" y="294" font-size="20" font-family="Helvetica, Arial, sans-serif" xml:space="preserve" font-weight="bold" id="text7">R7</text></g>
<g id="row6-0">
    <rect id="c4r6p10" height="45" width="34" y="400" x="0" stroke="#7f7f7f" fill="#e5e5e5"></rect>
    <image id="c4r6p10" height="45" width="34" y="400" x="0" preserveAspectRatio="xMidYMid slice" xlink:href=""></image>
    <text y="468" x="6.8" xml:space="preserve" font-family="Helvetica, Arial, sans-serif" font-size="10" fill="#b2b2b2">10</text> 
    <rect id="c4r6p9" height="45" width="34" y="366" x="34" stroke="#7f7f7f" fill="#e5e5e5"></rect>
    <image id="c4r6p9" height="45" width="34" y="366" x="34" preserveAspectRatio="xMidYMid slice" xlink:href=""></image>
    <text y="434" x="40.8" xml:space="preserve" font-family="Helvetica, Arial, sans-serif" font-size="10" fill="#b2b2b2">9</text> 
    <rect id="c4r6p8" height="45" width="34" y="400" x="68" stroke="#7f7f7f" fill="#e5e5e5"></rect>
    <image id="c4r6p8" height="45" width="34" y="400" x="68" preserveAspectRatio="xMidYMid slice" xlink:href=""></image>
    <text y="468" x="74.8" xml:space="preserve" font-family="Helvetica, Arial, sans-serif" font-size="10" fill="#b2b2b2">8</text> 
    <rect id="c4r6p7" height="45" width="34" y="366" x="102" stroke="#7f7f7f" fill="#e5e5e5"></rect>
    <image id="c4r6p7" height="45" width="34" y="366" x="102" preserveAspectRatio="xMidYMid slice" xlink:href=""></image>
    <text y="434" x="108.8" xml:space="preserve" font-family="Helvetica, Arial, sans-serif" font-size="10" fill="#b2b2b2">7</text> 
    <rect id="c4r6p6" height="45" width="34" y="400" x="136" stroke="#7f7f7f" fill="#e5e5e5"></rect>
    <image id="c4r6p6" height="45" width="34" y="400" x="136" preserveAspectRatio="xMidYMid slice" xlink:href=""></image>
    <text y="468" x="142.8" xml:space="preserve" font-family="Helvetica, Arial, sans-serif" font-size="10" fill="#b2b2b2">6</text> <text fill="#cccccc" x="249" y="428" font-size="20" font-family="Helvetica, Arial, sans-serif" xml:space="preserve" font-weight="bold" id="text6">R6</text></g>
<g id="row6-1">
    <rect id="c4r6p5" height="45" width="34" y="366" x="270" stroke="#7f7f7f" fill="#e5e5e5"></rect>
    <image id="c4r6p5" height="45" width="34" y="366" x="270" preserveAspectRatio="xMidYMid slice" xlink:href=""></image>
    <text y="434" x="276.8" xml:space="preserve" font-family="Helvetica, Arial, sans-serif" font-size="10" fill="#b2b2b2">5</text> 
    <rect id="c4r6p4" height="45" width="34" y="332" x="304" stroke="#7f7f7f" fill="#e5e5e5"></rect>
    <image id="c4r6p4" height="45" width="34" y="332" x="304" preserveAspectRatio="xMidYMid slice" xlink:href=""></image>
    <text y="400" x="310.8" xml:space="preserve" font-family="Helvetica, Arial, sans-serif" font-size="10" fill="#b2b2b2">4</text> 
    <rect id="c4r6p3" height="45" width="34" y="366" x="338" stroke="#7f7f7f" fill="#e5e5e5"></rect>
    <image id="c4r6p3" height="45" width="34" y="366" x="338" preserveAspectRatio="xMidYMid slice" xlink:href=""></image>
    <text y="434" x="344.8" xml:space="preserve" font-family="Helvetica, Arial, sans-serif" font-size="10" fill="#b2b2b2">3</text> 
    <rect id="c4r6p2" height="45" width="34" y="332" x="372" stroke="#7f7f7f" fill="#e5e5e5"></rect>
    <image id="c4r6p2" height="45" width="34" y="332" x="372" preserveAspectRatio="xMidYMid slice" xlink:href=""></image>
    <text y="400" x="378.8" xml:space="preserve" font-family="Helvetica, Arial, sans-serif" font-size="10" fill="#b2b2b2">2</text> 
    <rect id="c4r6p1" height="45" width="34" y="366" x="406" stroke="#7f7f7f" fill="#e5e5e5"></rect>
    <image id="c4r6p1" height="45" width="34" y="366" x="406" preserveAspectRatio="xMidYMid slice" xlink:href=""></image>
    <text y="434" x="412.8" xml:space="preserve" font-family="Helvetica, Arial, sans-serif" font-size="10" fill="#b2b2b2">1</text> <text fill="#cccccc" x="519" y="394" font-size="20" font-family="Helvetica, Arial, sans-serif" xml:space="preserve" font-weight="bold" id="text6">R6</text></g>
<g id="row5-0">
    <rect id="c4r5p10" height="45" width="34" y="500" x="0" stroke="#7f7f7f" fill="#e5e5e5"></rect>
    <image id="c4r5p10" height="45" width="34" y="500" x="0" preserveAspectRatio="xMidYMid slice" xlink:href=""></image>
    <text y="568" x="6.8" xml:space="preserve" font-family="Helvetica, Arial, sans-serif" font-size="10" fill="#b2b2b2">10</text> 
    <rect id="c4r5p9" height="45" width="34" y="466" x="34" stroke="#7f7f7f" fill="#e5e5e5"></rect>
    <image id="c4r5p9" height="45" width="34" y="466" x="34" preserveAspectRatio="xMidYMid slice" xlink:href=""></image>
    <text y="534" x="40.8" xml:space="preserve" font-family="Helvetica, Arial, sans-serif" font-size="10" fill="#b2b2b2">9</text> 
    <rect id="c4r5p8" height="45" width="34" y="500" x="68" stroke="#7f7f7f" fill="#e5e5e5"></rect>
    <image id="c4r5p8" height="45" width="34" y="500" x="68" preserveAspectRatio="xMidYMid slice" xlink:href=""></image>
    <text y="568" x="74.8" xml:space="preserve" font-family="Helvetica, Arial, sans-serif" font-size="10" fill="#b2b2b2">8</text> 
    <rect id="c4r5p7" height="45" width="34" y="466" x="102" stroke="#7f7f7f" fill="#e5e5e5"></rect>
    <image id="c4r5p7" height="45" width="34" y="466" x="102" preserveAspectRatio="xMidYMid slice" xlink:href=""></image>
    <text y="534" x="108.8" xml:space="preserve" font-family="Helvetica, Arial, sans-serif" font-size="10" fill="#b2b2b2">7</text> 
    <rect id="c4r5p6" height="45" width="34" y="500" x="136" stroke="#7f7f7f" fill="#e5e5e5"></rect>
    <image id="c4r5p6" height="45" width="34" y="500" x="136" preserveAspectRatio="xMidYMid slice" xlink:href=""></image>
    <text y="568" x="142.8" xml:space="preserve" font-family="Helvetica, Arial, sans-serif" font-size="10" fill="#b2b2b2">6</text> <text fill="#cccccc" x="249" y="528" font-size="20" font-family="Helvetica, Arial, sans-serif" xml:space="preserve" font-weight="bold" id="text5">R5</text></g>
<g id="row5-1">
    <rect id="c4r5p5" height="45" width="34" y="466" x="270" stroke="#7f7f7f" fill="#e5e5e5"></rect>
    <image id="c4r5p5" height="45" width="34" y="466" x="270" preserveAspectRatio="xMidYMid slice" xlink:href=""></image>
    <text y="534" x="276.8" xml:space="preserve" font-family="Helvetica, Arial, sans-serif" font-size="10" fill="#b2b2b2">5</text> 
    <rect id="c4r5p4" height="45" width="34" y="432" x="304" stroke="#7f7f7f" fill="#e5e5e5"></rect>
    <image id="c4r5p4" height="45" width="34" y="432" x="304" preserveAspectRatio="xMidYMid slice" xlink:href=""></image>
    <text y="500" x="310.8" xml:space="preserve" font-family="Helvetica, Arial, sans-serif" font-size="10" fill="#b2b2b2">4</text> 
    <rect id="c4r5p3" height="45" width="34" y="466" x="338" stroke="#7f7f7f" fill="#e5e5e5"></rect>
    <image id="c4r5p3" height="45" width="34" y="466" x="338" preserveAspectRatio="xMidYMid slice" xlink:href=""></image>
    <text y="534" x="344.8" xml:space="preserve" font-family="Helvetica, Arial, sans-serif" font-size="10" fill="#b2b2b2">3</text> 
    <rect id="c4r5p2" height="45" width="34" y="432" x="372" stroke="#7f7f7f" fill="#e5e5e5"></rect>
    <image id="c4r5p2" height="45" width="34" y="432" x="372" preserveAspectRatio="xMidYMid slice" xlink:href=""></image>
    <text y="500" x="378.8" xml:space="preserve" font-family="Helvetica, Arial, sans-serif" font-size="10" fill="#b2b2b2">2</text> 
    <rect id="c4r5p1" height="45" width="34" y="466" x="406" stroke="#7f7f7f" fill="#e5e5e5"></rect>
    <image id="c4r5p1" height="45" width="34" y="466" x="406" preserveAspectRatio="xMidYMid slice" xlink:href=""></image>
    <text y="534" x="412.8" xml:space="preserve" font-family="Helvetica, Arial, sans-serif" font-size="10" fill="#b2b2b2">1</text> <text fill="#cccccc" x="519" y="494" font-size="20" font-family="Helvetica, Arial, sans-serif" xml:space="preserve" font-weight="bold" id="text5">R5</text></g>
<g id="row4-0">
    <rect id="c4r4p10" height="45" width="34" y="600" x="0" stroke="#7f7f7f" fill="#e5e5e5"></rect>
    <image id="c4r4p10" height="45" width="34" y="600" x="0" preserveAspectRatio="xMidYMid slice" xlink:href=""></image>
    <text y="668" x="6.8" xml:space="preserve" font-family="Helvetica, Arial, sans-serif" font-size="10" fill="#b2b2b2">10</text> 
    <rect id="c4r4p9" height="45" width="34" y="566" x="34" stroke="#7f7f7f" fill="#e5e5e5"></rect>
    <image id="c4r4p9" height="45" width="34" y="566" x="34" preserveAspectRatio="xMidYMid slice" xlink:href=""></image>
    <text y="634" x="40.8" xml:space="preserve" font-family="Helvetica, Arial, sans-serif" font-size="10" fill="#b2b2b2">9</text> 
    <rect id="c4r4p8" height="45" width="34" y="600" x="68" stroke="#7f7f7f" fill="#e5e5e5"></rect>
    <image id="c4r4p8" height="45" width="34" y="600" x="68" preserveAspectRatio="xMidYMid slice" xlink:href=""></image>
    <text y="668" x="74.8" xml:space="preserve" font-family="Helvetica, Arial, sans-serif" font-size="10" fill="#b2b2b2">8</text> 
    <rect id="c4r4p7" height="45" width="34" y="566" x="102" stroke="#7f7f7f" fill="#e5e5e5"></rect>
    <image id="c4r4p7" height="45" width="34" y="566" x="102" preserveAspectRatio="xMidYMid slice" xlink:href=""></image>
    <text y="634" x="108.8" xml:space="preserve" font-family="Helvetica, Arial, sans-serif" font-size="10" fill="#b2b2b2">7</text> 
    <rect id="c4r4p6" height="45" width="34" y="600" x="136" stroke="#7f7f7f" fill="#e5e5e5"></rect>
    <image id="c4r4p6" height="45" width="34" y="600" x="136" preserveAspectRatio="xMidYMid slice" xlink:href=""></image>
    <text y="668" x="142.8" xml:space="preserve" font-family="Helvetica, Arial, sans-serif" font-size="10" fill="#b2b2b2">6</text> <text fill="#cccccc" x="249" y="628" font-size="20" font-family="Helvetica, Arial, sans-serif" xml:space="preserve" font-weight="bold" id="text4">R4</text></g>
<g id="row4-1">
    <rect id="c4r4p5" height="45" width="34" y="566" x="270" stroke="#7f7f7f" fill="#e5e5e5"></rect>
    <image id="c4r4p5" height="45" width="34" y="566" x="270" preserveAspectRatio="xMidYMid slice" xlink:href=""></image>
    <text y="634" x="276.8" xml:space="preserve" font-family="Helvetica, Arial, sans-serif" font-size="10" fill="#b2b2b2">5</text> 
    <rect id="c4r4p4" height="45" width="34" y="532" x="304" stroke="#7f7f7f" fill="#e5e5e5"></rect>
    <image id="c4r4p4" height="45" width="34" y="532" x="304" preserveAspectRatio="xMidYMid slice" xlink:href=""></image>
    <text y="600" x="310.8" xml:space="preserve" font-family="Helvetica, Arial, sans-serif" font-size="10" fill="#b2b2b2">4</text> 
    <rect id="c4r4p3" height="45" width="34" y="566" x="338" stroke="#7f7f7f" fill="#e5e5e5"></rect>
    <image id="c4r4p3" height="45" width="34" y="566" x="338" preserveAspectRatio="xMidYMid slice" xlink:href=""></image>
    <text y="634" x="344.8" xml:space="preserve" font-family="Helvetica, Arial, sans-serif" font-size="10" fill="#b2b2b2">3</text> 
    <rect id="c4r4p2" height="45" width="34" y="532" x="372" stroke="#7f7f7f" fill="#e5e5e5"></rect>
    <image id="c4r4p2" height="45" width="34" y="532" x="372" preserveAspectRatio="xMidYMid slice" xlink:href=""></image>
    <text y="600" x="378.8" xml:space="preserve" font-family="Helvetica, Arial, sans-serif" font-size="10" fill="#b2b2b2">2</text> 
    <rect id="c4r4p1" height="45" width="34" y="566" x="406" stroke="#7f7f7f" fill="#e5e5e5"></rect>
    <image id="c4r4p1" height="45" width="34" y="566" x="406" preserveAspectRatio="xMidYMid slice" xlink:href=""></image>
    <text y="634" x="412.8" xml:space="preserve" font-family="Helvetica, Arial, sans-serif" font-size="10" fill="#b2b2b2">1</text> <text fill="#cccccc" x="519" y="594" font-size="20" font-family="Helvetica, Arial, sans-serif" xml:space="preserve" font-weight="bold" id="text4">R4</text></g>
<g id="row3-0">
    <rect id="c4r3p10" height="45" width="34" y="700" x="0" stroke="#7f7f7f" fill="#e5e5e5"></rect>
    <image id="c4r3p10" height="45" width="34" y="700" x="0" preserveAspectRatio="xMidYMid slice" xlink:href=""></image>
    <text y="768" x="6.8" xml:space="preserve" font-family="Helvetica, Arial, sans-serif" font-size="10" fill="#b2b2b2">10</text> 
    <rect id="c4r3p9" height="45" width="34" y="666" x="34" stroke="#7f7f7f" fill="#e5e5e5"></rect>
    <image id="c4r3p9" height="45" width="34" y="666" x="34" preserveAspectRatio="xMidYMid slice" xlink:href=""></image>
    <text y="734" x="40.8" xml:space="preserve" font-family="Helvetica, Arial, sans-serif" font-size="10" fill="#b2b2b2">9</text> 
    <rect id="c4r3p8" height="45" width="34" y="700" x="68" stroke="#7f7f7f" fill="#e5e5e5"></rect>
    <image id="c4r3p8" height="45" width="34" y="700" x="68" preserveAspectRatio="xMidYMid slice" xlink:href=""></image>
    <text y="768" x="74.8" xml:space="preserve" font-family="Helvetica, Arial, sans-serif" font-size="10" fill="#b2b2b2">8</text> 
    <rect id="c4r3p7" height="45" width="34" y="666" x="102" stroke="#7f7f7f" fill="#e5e5e5"></rect>
    <image id="c4r3p7" height="45" width="34" y="666" x="102" preserveAspectRatio="xMidYMid slice" xlink:href=""></image>
    <text y="734" x="108.8" xml:space="preserve" font-family="Helvetica, Arial, sans-serif" font-size="10" fill="#b2b2b2">7</text> 
    <rect id="c4r3p6" height="45" width="34" y="700" x="136" stroke="#7f7f7f" fill="#e5e5e5"></rect>
    <image id="c4r3p6" height="45" width="34" y="700" x="136" preserveAspectRatio="xMidYMid slice" xlink:href=""></image>
    <text y="768" x="142.8" xml:space="preserve" font-family="Helvetica, Arial, sans-serif" font-size="10" fill="#b2b2b2">6</text> <text fill="#cccccc" x="249" y="728" font-size="20" font-family="Helvetica, Arial, sans-serif" xml:space="preserve" font-weight="bold" id="text3">R3</text></g>
<g id="row3-1">
    <rect id="c4r3p5" height="45" width="34" y="666" x="270" stroke="#7f7f7f" fill="#e5e5e5"></rect>
    <image id="c4r3p5" height="45" width="34" y="666" x="270" preserveAspectRatio="xMidYMid slice" xlink:href=""></image>
    <text y="734" x="276.8" xml:space="preserve" font-family="Helvetica, Arial, sans-serif" font-size="10" fill="#b2b2b2">5</text> 
    <rect id="c4r3p4" height="45" width="34" y="632" x="304" stroke="#7f7f7f" fill="#e5e5e5"></rect>
    <image id="c4r3p4" height="45" width="34" y="632" x="304" preserveAspectRatio="xMidYMid slice" xlink:href=""></image>
    <text y="700" x="310.8" xml:space="preserve" font-family="Helvetica, Arial, sans-serif" font-size="10" fill="#b2b2b2">4</text> 
    <rect id="c4r3p3" height="45" width="34" y="666" x="338" stroke="#7f7f7f" fill="#e5e5e5"></rect>
    <image id="c4r3p3" height="45" width="34" y="666" x="338" preserveAspectRatio="xMidYMid slice" xlink:href=""></image>
    <text y="734" x="344.8" xml:space="preserve" font-family="Helvetica, Arial, sans-serif" font-size="10" fill="#b2b2b2">3</text> 
    <rect id="c4r3p2" height="45" width="34" y="632" x="372" stroke="#7f7f7f" fill="#e5e5e5"></rect>
    <image id="c4r3p2" height="45" width="34" y="632" x="372" preserveAspectRatio="xMidYMid slice" xlink:href=""></image>
    <text y="700" x="378.8" xml:space="preserve" font-family="Helvetica, Arial, sans-serif" font-size="10" fill="#b2b2b2">2</text> 
    <rect id="c4r3p1" height="45" width="34" y="666" x="406" stroke="#7f7f7f" fill="#e5e5e5"></rect>
    <image id="c4r3p1" height="45" width="34" y="666" x="406" preserveAspectRatio="xMidYMid slice" xlink:href=""></image>
    <text y="734" x="412.8" xml:space="preserve" font-family="Helvetica, Arial, sans-serif" font-size="10" fill="#b2b2b2">1</text> <text fill="#cccccc" x="519" y="694" font-size="20" font-family="Helvetica, Arial, sans-serif" xml:space="preserve" font-weight="bold" id="text3">R3</text></g>
<g id="row2-0">
    <rect id="c4r2p10" height="45" width="34" y="800" x="0" stroke="#7f7f7f" fill="#e5e5e5"></rect>
    <image id="c4r2p10" height="45" width="34" y="800" x="0" preserveAspectRatio="xMidYMid slice" xlink:href=""></image>
    <text y="868" x="6.8" xml:space="preserve" font-family="Helvetica, Arial, sans-serif" font-size="10" fill="#b2b2b2">10</text> 
    <rect id="c4r2p9" height="45" width="34" y="766" x="34" stroke="#7f7f7f" fill="#e5e5e5"></rect>
    <image id="c4r2p9" height="45" width="34" y="766" x="34" preserveAspectRatio="xMidYMid slice" xlink:href=""></image>
    <text y="834" x="40.8" xml:space="preserve" font-family="Helvetica, Arial, sans-serif" font-size="10" fill="#b2b2b2">9</text> 
    <rect id="c4r2p8" height="45" width="34" y="800" x="68" stroke="#7f7f7f" fill="#e5e5e5"></rect>
    <image id="c4r2p8" height="45" width="34" y="800" x="68" preserveAspectRatio="xMidYMid slice" xlink:href=""></image>
    <text y="868" x="74.8" xml:space="preserve" font-family="Helvetica, Arial, sans-serif" font-size="10" fill="#b2b2b2">8</text> 
    <rect id="c4r2p7" height="45" width="34" y="766" x="102" stroke="#7f7f7f" fill="#e5e5e5"></rect>
    <image id="c4r2p7" height="45" width="34" y="766" x="102" preserveAspectRatio="xMidYMid slice" xlink:href=""></image>
    <text y="834" x="108.8" xml:space="preserve" font-family="Helvetica, Arial, sans-serif" font-size="10" fill="#b2b2b2">7</text> 
    <rect id="c4r2p6" height="45" width="34" y="800" x="136" stroke="#7f7f7f" fill="#e5e5e5"></rect>
    <image id="c4r2p6" height="45" width="34" y="800" x="136" preserveAspectRatio="xMidYMid slice" xlink:href=""></image>
    <text y="868" x="142.8" xml:space="preserve" font-family="Helvetica, Arial, sans-serif" font-size="10" fill="#b2b2b2">6</text> <text fill="#cccccc" x="249" y="828" font-size="20" font-family="Helvetica, Arial, sans-serif" xml:space="preserve" font-weight="bold" id="text2">R2</text></g>
<g id="row2-1">
    <rect id="c4r2p5" height="45" width="34" y="766" x="270" stroke="#7f7f7f" fill="#e5e5e5"></rect>
    <image id="c4r2p5" height="45" width="34" y="766" x="270" preserveAspectRatio="xMidYMid slice" xlink:href=""></image>
    <text y="834" x="276.8" xml:space="preserve" font-family="Helvetica, Arial, sans-serif" font-size="10" fill="#b2b2b2">5</text> 
    <rect id="c4r2p4" height="45" width="34" y="732" x="304" stroke="#7f7f7f" fill="#e5e5e5"></rect>
    <image id="c4r2p4" height="45" width="34" y="732" x="304" preserveAspectRatio="xMidYMid slice" xlink:href=""></image>
    <text y="800" x="310.8" xml:space="preserve" font-family="Helvetica, Arial, sans-serif" font-size="10" fill="#b2b2b2">4</text> 
    <rect id="c4r2p3" height="45" width="34" y="766" x="338" stroke="#7f7f7f" fill="#e5e5e5"></rect>
    <image id="c4r2p3" height="45" width="34" y="766" x="338" preserveAspectRatio="xMidYMid slice" xlink:href=""></image>
    <text y="834" x="344.8" xml:space="preserve" font-family="Helvetica, Arial, sans-serif" font-size="10" fill="#b2b2b2">3</text> 
    <rect id="c4r2p2" height="45" width="34" y="732" x="372" stroke="#7f7f7f" fill="#e5e5e5"></rect>
    <image id="c4r2p2" height="45" width="34" y="732" x="372" preserveAspectRatio="xMidYMid slice" xlink:href=""></image>
    <text y="800" x="378.8" xml:space="preserve" font-family="Helvetica, Arial, sans-serif" font-size="10" fill="#b2b2b2">2</text> 
    <rect id="c4r2p1" height="45" width="34" y="766" x="406" stroke="#7f7f7f" fill="#e5e5e5"></rect>
    <image id="c4r2p1" height="45" width="34" y="766" x="406" preserveAspectRatio="xMidYMid slice" xlink:href=""></image>
    <text y="834" x="412.8" xml:space="preserve" font-family="Helvetica, Arial, sans-serif" font-size="10" fill="#b2b2b2">1</text> <text fill="#cccccc" x="519" y="794" font-size="20" font-family="Helvetica, Arial, sans-serif" xml:space="preserve" font-weight="bold" id="text2">R2</text></g>
<g id="row1-0">
    <rect id="c4r1p10" height="45" width="34" y="900" x="0" stroke="#7f7f7f" fill="#e5e5e5"></rect>
    <image id="c4r1p10" height="45" width="34" y="900" x="0" preserveAspectRatio="xMidYMid slice" xlink:href=""></image>
    <text y="968" x="6.8" xml:space="preserve" font-family="Helvetica, Arial, sans-serif" font-size="10" fill="#b2b2b2">10</text> 
    <rect id="c4r1p9" height="45" width="34" y="866" x="34" stroke="#7f7f7f" fill="#e5e5e5"></rect>
    <image id="c4r1p9" height="45" width="34" y="866" x="34" preserveAspectRatio="xMidYMid slice" xlink:href=""></image>
    <text y="934" x="40.8" xml:space="preserve" font-family="Helvetica, Arial, sans-serif" font-size="10" fill="#b2b2b2">9</text> 
    <rect id="c4r1p8" height="45" width="34" y="900" x="68" stroke="#7f7f7f" fill="#e5e5e5"></rect>
    <image id="c4r1p8" height="45" width="34" y="900" x="68" preserveAspectRatio="xMidYMid slice" xlink:href=""></image>
    <text y="968" x="74.8" xml:space="preserve" font-family="Helvetica, Arial, sans-serif" font-size="10" fill="#b2b2b2">8</text> 
    <rect id="c4r1p7" height="45" width="34" y="866" x="102" stroke="#7f7f7f" fill="#e5e5e5"></rect>
    <image id="c4r1p7" height="45" width="34" y="866" x="102" preserveAspectRatio="xMidYMid slice" xlink:href=""></image>
    <text y="934" x="108.8" xml:space="preserve" font-family="Helvetica, Arial, sans-serif" font-size="10" fill="#b2b2b2">7</text> 
    <rect id="c4r1p6" height="45" width="34" y="900" x="136" stroke="#7f7f7f" fill="#e5e5e5"></rect>
    <image id="c4r1p6" height="45" width="34" y="900" x="136" preserveAspectRatio="xMidYMid slice" xlink:href=""></image>
    <text y="968" x="142.8" xml:space="preserve" font-family="Helvetica, Arial, sans-serif" font-size="10" fill="#b2b2b2">6</text> <text fill="#cccccc" x="249" y="928" font-size="20" font-family="Helvetica, Arial, sans-serif" xml:space="preserve" font-weight="bold" id="text1">R1</text></g>
<g id="row1-1">
    <rect id="c4r1p5" height="45" width="34" y="866" x="270" stroke="#7f7f7f" fill="#e5e5e5"></rect>
    <image id="c4r1p5" height="45" width="34" y="866" x="270" preserveAspectRatio="xMidYMid slice" xlink:href=""></image>
    <text y="934" x="276.8" xml:space="preserve" font-family="Helvetica, Arial, sans-serif" font-size="10" fill="#b2b2b2">5</text> 
    <rect id="c4r1p4" height="45" width="34" y="832" x="304" stroke="#7f7f7f" fill="#e5e5e5"></rect>
    <image id="c4r1p4" height="45" width="34" y="832" x="304" preserveAspectRatio="xMidYMid slice" xlink:href=""></image>
    <text y="900" x="310.8" xml:space="preserve" font-family="Helvetica, Arial, sans-serif" font-size="10" fill="#b2b2b2">4</text> 
    <rect id="c4r1p3" height="45" width="34" y="866" x="338" stroke="#7f7f7f" fill="#e5e5e5"></rect>
    <image id="c4r1p3" height="45" width="34" y="866" x="338" preserveAspectRatio="xMidYMid slice" xlink:href=""></image>
    <text y="934" x="344.8" xml:space="preserve" font-family="Helvetica, Arial, sans-serif" font-size="10" fill="#b2b2b2">3</text> 
    <rect id="c4r1p2" height="45" width="34" y="832" x="372" stroke="#7f7f7f" fill="#e5e5e5"></rect>
    <image id="c4r1p2" height="45" width="34" y="832" x="372" preserveAspectRatio="xMidYMid slice" xlink:href=""></image>
    <text y="900" x="378.8" xml:space="preserve" font-family="Helvetica, Arial, sans-serif" font-size="10" fill="#b2b2b2">2</text> 
    <rect id="c4r1p1" height="45" width="34" y="866" x="406" stroke="#7f7f7f" fill="#e5e5e5"></rect>
    <image id="c4r1p1" height="45" width="34" y="866" x="406" preserveAspectRatio="xMidYMid slice" xlink:href=""></image>
    <text y="934" x="412.8" xml:space="preserve" font-family="Helvetica, Arial, sans-serif" font-size="10" fill="#b2b2b2">1</text> <text fill="#cccccc" x="519" y="894" font-size="20" font-family="Helvetica, Arial, sans-serif" xml:space="preserve" font-weight="bold" id="text1">R1</text></g></svg>