<svg xmlns="http://www.w3.org/2000/svg" xmlns:xlink="http://www.w3.org/1999/xlink" version="1.1" id="Layer_1" x="0px" y="0px" viewBox="0 0 651 930" style="enable-background:new 0 0 651 930;" xml:space="preserve">
<style type="text/css">
rect{fill:#f1f2f3;stroke:#000;}
	.st0{fill:#CCCCCC;}
	.st1{font-family:'Helvetica-Bold';}
	.st2{font-size:40px;}
	.st3{fill:none;stroke:#CCCCCC;}
	.st4{fill:none;stroke:#000000;stroke-miterlimit:10;}
	.st5{fill:none;stroke:#231F20;stroke-miterlimit:10;}
	.st6{font-size:20.8176px;}
</style>
<text transform="matrix(1 0 0 1 5 50)" class="st0 st1 st2">E1</text>
<g>
	<g>
		
		<rect id="e1r10p15" x="12" y="225" height="45" width="34"></rect><image preserveAspectRatio="xMidYMid slice" id="e1r10p15" x="12" y="225" height="45" width="34" xlink:href=""></image>
		<rect id="e1r10p14" x="47" y="240" height="45" width="34"></rect><image id="e1r10p14" xlink:href="https://cdn.intra.42.fr/users/669da04871b02feee811148fc55033e4/small_alemsafi.jpg" preserveAspectRatio="xMidYMid slice" x="47" y="240" width="34" height="45" />
		<rect id="e1r10p13" x="82" y="225" height="45" width="34"></rect><image id="e1r10p13" xlink:href="https://cdn.intra.42.fr/users/3066be54cc35d42504e6be0e31c0dbbe/small_messkely.jpg" preserveAspectRatio="xMidYMid slice" x="82" y="225" width="34" height="45" />
		<rect id="e1r10p12" x="117" y="240" height="45" width="34"></rect><image preserveAspectRatio="xMidYMid slice" id="e1r10p12" x="117" y="240" height="45" width="34" xlink:href=""></image>
		<rect id="e1r10p11" x="152" y="225" height="45" width="34"></rect><image preserveAspectRatio="xMidYMid slice" id="e1r10p11" x="152" y="225" height="45" width="34" xlink:href=""></image>
	</g>
	<g>
		
		<rect id="e1r9p15" x="12" y="295" height="45" width="34"></rect><image id="e1r9p15" xlink:href="https://cdn.intra.42.fr/users/bdce2d2adb5cccd29594d1e4ca710c73/small_moseddik.jpg" preserveAspectRatio="xMidYMid slice" x="12" y="295" width="34" height="45" />
		<rect id="e1r9p14" x="47" y="310" height="45" width="34"></rect><image preserveAspectRatio="xMidYMid slice" id="e1r9p14" x="47" y="310" height="45" width="34" xlink:href=""></image>
		<rect id="e1r9p13" x="82" y="295" height="45" width="34"></rect><image id="e1r9p13" xlink:href="https://cdn.intra.42.fr/users/83e7ad5e1d321cf5176000afae07f88c/small_hel-band.jpg" preserveAspectRatio="xMidYMid slice" x="82" y="295" width="34" height="45" />
		<rect id="e1r9p12" x="117" y="310" height="45" width="34"></rect><image preserveAspectRatio="xMidYMid slice" id="e1r9p12" x="117" y="310" height="45" width="34" xlink:href=""></image>
		<rect id="e1r9p11" x="152" y="295" height="45" width="34"></rect><image id="e1r9p11" xlink:href="https://cdn.intra.42.fr/users/7523b0d5b47b09daa1c2775ba78779a6/small_oaizab.jpg" preserveAspectRatio="xMidYMid slice" x="152" y="295" width="34" height="45" />
	</g>
	<g>
		
		<rect id="e1r8p15" x="12" y="365" height="45" width="34"></rect><image id="e1r8p15" xlink:href="https://cdn.intra.42.fr/users/6811908948e3d85086311beaad648062/small_matef.jpg" preserveAspectRatio="xMidYMid slice" x="12" y="365" width="34" height="45" />
		<rect id="e1r8p14" x="47" y="380" height="45" width="34"></rect><image preserveAspectRatio="xMidYMid slice" id="e1r8p14" x="47" y="380" height="45" width="34" xlink:href=""></image>
		<rect id="e1r8p13" x="82" y="365" height="45" width="34"></rect><image id="e1r8p13" xlink:href="https://cdn.intra.42.fr/users/2c76c379573036858346c2354f5b0dd2/small_hsaktiwy.jpg" preserveAspectRatio="xMidYMid slice" x="82" y="365" width="34" height="45" />
		<rect id="e1r8p12" x="117" y="380" height="45" width="34"></rect><image preserveAspectRatio="xMidYMid slice" id="e1r8p12" x="117" y="380" height="45" width="34" xlink:href=""></image>
		<rect id="e1r8p11" x="152" y="365" height="45" width="34"></rect><image id="e1r8p11" xlink:href="https://cdn.intra.42.fr/users/9ee290d30e7bc2f780df73e92b889442/small_aalami.jpg" preserveAspectRatio="xMidYMid slice" x="152" y="365" width="34" height="45" />
	</g>
	<g>
		
		<rect id="e1r7p15" x="12" y="435" height="45" width="34"></rect><image id="e1r7p15" xlink:href="https://cdn.intra.42.fr/users/5ee36903492cdc7d0f362064f2e32979/small_iabkadri.jpg" preserveAspectRatio="xMidYMid slice" x="12" y="435" width="34" height="45" />
		<rect id="e1r7p14" x="47" y="450" height="45" width="34"></rect><image id="e1r7p14" xlink:href="https://cdn.intra.42.fr/users/c02fb4af83a3257fb444784d60893005/small_bel-idri.jpg" preserveAspectRatio="xMidYMid slice" x="47" y="450" width="34" height="45" />
		<rect id="e1r7p13" x="82" y="435" height="45" width="34"></rect><image id="e1r7p13" xlink:href="https://cdn.intra.42.fr/users/6d5d22574af457c7e3f5f3305bedd166/small_fel-hazz.jpg" preserveAspectRatio="xMidYMid slice" x="82" y="435" width="34" height="45" />
		<rect id="e1r7p12" x="117" y="450" height="45" width="34"></rect><image preserveAspectRatio="xMidYMid slice" id="e1r7p12" x="117" y="450" height="45" width="34" xlink:href=""></image>
		<rect id="e1r7p11" x="152" y="435" height="45" width="34"></rect><image preserveAspectRatio="xMidYMid slice" id="e1r7p11" x="152" y="435" height="45" width="34" xlink:href=""></image>
	</g>
	<g>
		
		<rect id="e1r6p15" x="12" y="505" height="45" width="34"></rect><image id="e1r6p15" xlink:href="https://cdn.intra.42.fr/users/8354dbd3b13566b2d780a631d4f55a6e/small_bel-oirg.jpg" preserveAspectRatio="xMidYMid slice" x="12" y="505" width="34" height="45" />
		<rect id="e1r6p14" x="47" y="520" height="45" width="34"></rect><image id="e1r6p14" xlink:href="https://cdn.intra.42.fr/users/e6cacd9611f23d1fa661d9fe327405d0/small_mtigunit.jpg" preserveAspectRatio="xMidYMid slice" x="47" y="520" width="34" height="45" />
		<rect id="e1r6p13" x="82" y="505" height="45" width="34"></rect><image id="e1r6p13" xlink:href="https://cdn.intra.42.fr/users/69ea62f63dd67a1f5ae2f131996ef5ba/small_aarbaoui.jpg" preserveAspectRatio="xMidYMid slice" x="82" y="505" width="34" height="45" />
		<rect id="e1r6p12" x="117" y="520" height="45" width="34"></rect><image id="e1r6p12" xlink:href="https://cdn.intra.42.fr/users/eb998df6fc28d5d483cac30274267772/small_ybenlafk.jpeg" preserveAspectRatio="xMidYMid slice" x="117" y="520" width="34" height="45" />
		<rect id="e1r6p11" x="152" y="505" height="45" width="34"></rect><image preserveAspectRatio="xMidYMid slice" id="e1r6p11" x="152" y="505" height="45" width="34" xlink:href=""></image>
	</g>
	<g>
		
		<rect id="e1r5p15" x="12" y="575" height="45" width="34"></rect><image id="e1r5p15" xlink:href="https://cdn.intra.42.fr/users/85298ce479444390d5b1431c73821890/small_aboukdid.jpg" preserveAspectRatio="xMidYMid slice" x="12" y="575" width="34" height="45" />
		<rect id="e1r5p14" x="47" y="590" height="45" width="34"></rect><image preserveAspectRatio="xMidYMid slice" id="e1r5p14" x="47" y="590" height="45" width="34" xlink:href=""></image>
		<rect id="e1r5p13" x="82" y="575" height="45" width="34"></rect><image id="e1r5p13" xlink:href="https://cdn.intra.42.fr/users/652f4fd67936114d812212d77cbb87c4/small_oel-feng.jpg" preserveAspectRatio="xMidYMid slice" x="82" y="575" width="34" height="45" />
		<rect id="e1r5p12" x="117" y="590" height="45" width="34"></rect><image id="e1r5p12" xlink:href="https://cdn.intra.42.fr/users/6661b67de18243078266db6e2e4bcfe5/small_mfadil.jpg" preserveAspectRatio="xMidYMid slice" x="117" y="590" width="34" height="45" />
		<rect id="e1r5p11" x="152" y="575" height="45" width="34"></rect><image id="e1r5p11" xlink:href="https://cdn.intra.42.fr/users/f8e5b3f1f605f1c880cf39a7c25dd877/small_bzinedda.jpg" preserveAspectRatio="xMidYMid slice" x="152" y="575" width="34" height="45" />
	</g>
	<g>
		
		<rect id="e1r4p15" x="12" y="645" height="45" width="34"></rect><image preserveAspectRatio="xMidYMid slice" id="e1r4p15" x="12" y="645" height="45" width="34" xlink:href=""></image>
		<rect id="e1r4p14" x="47" y="660" height="45" width="34"></rect><image id="e1r4p14" xlink:href="https://cdn.intra.42.fr/users/4ca0503821905ccca82dad8da5da371e/small_agaladi.jpg" preserveAspectRatio="xMidYMid slice" x="47" y="660" width="34" height="45" />
		<rect id="e1r4p13" x="82" y="645" height="45" width="34"></rect><image id="e1r4p13" xlink:href="https://cdn.intra.42.fr/users/3b585a7aa5b98540311e2633e5bf3a55/small_nouahidi.jpg" preserveAspectRatio="xMidYMid slice" x="82" y="645" width="34" height="45" />
		<rect id="e1r4p12" x="117" y="660" height="45" width="34"></rect><image id="e1r4p12" xlink:href="https://cdn.intra.42.fr/users/ccf36adcd3057d98b1ad374979378647/small_lsabik.jpeg" preserveAspectRatio="xMidYMid slice" x="117" y="660" width="34" height="45" />
		<rect id="e1r4p11" x="152" y="645" height="45" width="34"></rect><image preserveAspectRatio="xMidYMid slice" id="e1r4p11" x="152" y="645" height="45" width="34" xlink:href=""></image>
	</g>
	<g>
		
		<rect id="e1r3p15" x="12" y="715" height="45" width="34"></rect><image id="e1r3p15" xlink:href="https://cdn.intra.42.fr/users/900c87765063853100d795c89aa56f39/small_mal-mora.jpg" preserveAspectRatio="xMidYMid slice" x="12" y="715" width="34" height="45" />
		<rect id="e1r3p14" x="47" y="730" height="45" width="34"></rect><image id="e1r3p14" xlink:href="https://cdn.intra.42.fr/users/1cacdd5e467447f379cf93c372a92661/small_sel-bouy.jpg" preserveAspectRatio="xMidYMid slice" x="47" y="730" width="34" height="45" />
		<rect id="e1r3p13" x="82" y="715" height="45" width="34"></rect><image id="e1r3p13" xlink:href="https://cdn.intra.42.fr/users/e94be1dcb71dc42082c01a1fec68ed07/small_aanjaimi.jpg" preserveAspectRatio="xMidYMid slice" x="82" y="715" width="34" height="45" />
		<rect id="e1r3p12" x="117" y="730" height="45" width="34"></rect><image id="e1r3p12" xlink:href="https://cdn.intra.42.fr/users/c1d110819684ea30920c23a4b5598946/small_nsidqi.jpg" preserveAspectRatio="xMidYMid slice" x="117" y="730" width="34" height="45" />
		<rect id="e1r3p11" x="152" y="715" height="45" width="34"></rect><image id="e1r3p11" xlink:href="https://cdn.intra.42.fr/users/5aa5a8f1775f02e3293e4e7ab9613467/small_sel-mous.jpg" preserveAspectRatio="xMidYMid slice" x="152" y="715" width="34" height="45" />
	</g>
	<g>
		
		<rect id="e1r2p15" x="12" y="785" height="45" width="34"></rect><image id="e1r2p15" xlink:href="https://cdn.intra.42.fr/users/422851cb6cf1b8b317e18d089bfcac1b/small_ylachhab.jpg" preserveAspectRatio="xMidYMid slice" x="12" y="785" width="34" height="45" />
		<rect id="e1r2p14" x="47" y="800" height="45" width="34"></rect><image id="e1r2p14" xlink:href="https://cdn.intra.42.fr/users/1a75abb135c21d6e0cd720beb34b5cd1/small_kaboussi.jpg" preserveAspectRatio="xMidYMid slice" x="47" y="800" width="34" height="45" />
		<rect id="e1r2p13" x="82" y="785" height="45" width="34"></rect><image id="e1r2p13" xlink:href="https://cdn.intra.42.fr/users/e3ea0183c75a36154bc2324077c12cfa/small_mobounya.jpg" preserveAspectRatio="xMidYMid slice" x="82" y="785" width="34" height="45" />
		<rect id="e1r2p12" x="117" y="800" height="45" width="34"></rect><image preserveAspectRatio="xMidYMid slice" id="e1r2p12" x="117" y="800" height="45" width="34" xlink:href=""></image>
		<rect id="e1r2p11" x="152" y="785" height="45" width="34"></rect><image id="e1r2p11" xlink:href="https://cdn.intra.42.fr/users/915fcad1e69ce3ee6f69d286abd62cff/small_obeaj.jpg" preserveAspectRatio="xMidYMid slice" x="152" y="785" width="34" height="45" />
	</g>
</g>
<g>
	<g>
		
		<rect id="e1r9p10" x="212" y="295" height="45" width="34"></rect><image preserveAspectRatio="xMidYMid slice" id="e1r9p10" x="212" y="295" height="45" width="34" xlink:href=""></image>
		<rect id="e1r9p9"  x="247" y="310" height="45" width="34"></rect><image id="e1r9p9" xlink:href="https://cdn.intra.42.fr/users/3feaca678d41a5d8df8ce387df7b5eff/small_mel-yous.jpg" preserveAspectRatio="xMidYMid slice" x="247" y="310" width="34" height="45" />
		<rect id="e1r9p8"  x="282" y="295" height="45" width="34"></rect><image preserveAspectRatio="xMidYMid slice" id="e1r9p8" x="282" y="295" height="45" width="34" xlink:href=""></image>
		<rect id="e1r9p7"  x="317" y="310" height="45" width="34"></rect><image id="e1r9p7" xlink:href="https://cdn.intra.42.fr/users/13b77875aeee9de67375d8debaaa11a0/small_hznagui.jpg" preserveAspectRatio="xMidYMid slice" x="317" y="310" width="34" height="45" />
		<rect id="e1r9p6"  x="352" y="295" height="45" width="34"></rect><image id="e1r9p6" xlink:href="https://cdn.intra.42.fr/users/fbb3f3560ad640b309eabf6a252c08a8/small_mfouadi.jpg" preserveAspectRatio="xMidYMid slice" x="352" y="295" width="34" height="45" />
	</g>
	<g>
		
		<rect id="e1r8p10" x="212" y="365" height="45" width="34"></rect><image id="e1r8p10" xlink:href="https://cdn.intra.42.fr/users/234688efa1e0fc07cac8df96f068f984/small_abnaciri.jpg" preserveAspectRatio="xMidYMid slice" x="212" y="365" width="34" height="45" />
		<rect id="e1r8p9"  x="247" y="380" height="45" width="34"></rect><image id="e1r8p9" xlink:href="https://cdn.intra.42.fr/users/3d2a82ffe168fbd2e7a9fd2e0d787245/small_mkaoukin.jpg" preserveAspectRatio="xMidYMid slice" x="247" y="380" width="34" height="45" />
		<rect id="e1r8p8"  x="282" y="365" height="45" width="34"></rect><image id="e1r8p8" xlink:href="https://cdn.intra.42.fr/users/1be03a830d7ef14a521dc87cef1fffec/small_edraidry.jpg" preserveAspectRatio="xMidYMid slice" x="282" y="365" width="34" height="45" />
		<rect id="e1r8p7"  x="317" y="380" height="45" width="34"></rect><image id="e1r8p7" xlink:href="https://cdn.intra.42.fr/users/d4ddeaf6cd53ee705b098206bda7fa11/small_aelbouab.jpg" preserveAspectRatio="xMidYMid slice" x="317" y="380" width="34" height="45" />
		<rect id="e1r8p6"  x="352" y="365" height="45" width="34"></rect><image preserveAspectRatio="xMidYMid slice" id="e1r8p6" x="352" y="365" height="45" width="34" xlink:href=""></image>
	</g>
	<g>
		
		<rect id="e1r7p10" x="212" y="435" height="45" width="34"></rect><image preserveAspectRatio="xMidYMid slice" id="e1r7p10" x="212" y="435" height="45" width="34" xlink:href=""></image>
		<rect id="e1r7p9"  x="247" y="450" height="45" width="34"></rect><image id="e1r7p9" xlink:href="https://cdn.intra.42.fr/users/7541f415fe80521b363d88cf12aee5cc/small_bamraoui.jpg" preserveAspectRatio="xMidYMid slice" x="247" y="450" width="34" height="45" />
		<rect id="e1r7p8"  x="282" y="435" height="45" width="34"></rect><image id="e1r7p8" xlink:href="https://cdn.intra.42.fr/users/be7f5a19b27821cef0dcd50f49e0dca5/small_sbadr.jpg" preserveAspectRatio="xMidYMid slice" x="282" y="435" width="34" height="45" />
		<rect id="e1r7p7"  x="317" y="450" height="45" width="34"></rect><image preserveAspectRatio="xMidYMid slice" id="e1r7p7" x="317" y="450" height="45" width="34" xlink:href=""></image>
		<rect id="e1r7p6"  x="352" y="435" height="45" width="34"></rect><image preserveAspectRatio="xMidYMid slice" id="e1r7p6" x="352" y="435" height="45" width="34" xlink:href=""></image>
	</g>
	<g>
		
		<rect id="e1r6p10" x="212" y="505" height="45" width="34"></rect><image preserveAspectRatio="xMidYMid slice" id="e1r6p10" x="212" y="505" height="45" width="34" xlink:href=""></image>
		<rect id="e1r6p9"  x="247" y="520" height="45" width="34"></rect><image id="e1r6p9" xlink:href="https://cdn.intra.42.fr/users/bd7599bbbbe9338ad0721cdd602856be/small_snjili.jpg" preserveAspectRatio="xMidYMid slice" x="247" y="520" width="34" height="45" />
		<rect id="e1r6p8"  x="282" y="505" height="45" width="34"></rect><image preserveAspectRatio="xMidYMid slice" id="e1r6p8" x="282" y="505" height="45" width="34" xlink:href=""></image>
		<rect id="e1r6p7"  x="317" y="520" height="45" width="34"></rect><image id="e1r6p7" xlink:href="https://cdn.intra.42.fr/users/d1852a9b0184e9dadc60d83881610ff7/small_zel-oirg.jpg" preserveAspectRatio="xMidYMid slice" x="317" y="520" width="34" height="45" />
		<rect id="e1r6p6"  x="352" y="505" height="45" width="34"></rect><image preserveAspectRatio="xMidYMid slice" id="e1r6p6" x="352" y="505" height="45" width="34" xlink:href=""></image>
	</g>
	<g>
		
		<rect id="e1r5p10" x="212" y="575" height="45" width="34"></rect><image id="e1r5p10" xlink:href="https://cdn.intra.42.fr/users/8da6d977c23bc3e60134983a629d9adc/small_mbennani.jpg" preserveAspectRatio="xMidYMid slice" x="212" y="575" width="34" height="45" />
		<rect id="e1r5p9"  x="247" y="590" height="45" width="34"></rect><image id="e1r5p9" xlink:href="https://cdn.intra.42.fr/users/ab8f7910d8005b84b1d2e05c28ae16d9/small_mlektaib.jpg" preserveAspectRatio="xMidYMid slice" x="247" y="590" width="34" height="45" />
		<rect id="e1r5p8"  x="282" y="575" height="45" width="34"></rect><image id="e1r5p8" xlink:href="https://cdn.intra.42.fr/users/1e934b01db0416469015622fb8240b0b/small_adardour.jpg" preserveAspectRatio="xMidYMid slice" x="282" y="575" width="34" height="45" />
		<rect id="e1r5p7"  x="317" y="590" height="45" width="34"></rect><image id="e1r5p7" xlink:href="https://cdn.intra.42.fr/users/8be6df88aa70d77559b605c5e14d22f8/small_ytoumi.jpg" preserveAspectRatio="xMidYMid slice" x="317" y="590" width="34" height="45" />
		<rect id="e1r5p6"  x="352" y="575" height="45" width="34"></rect><image preserveAspectRatio="xMidYMid slice" id="e1r5p6" x="352" y="575" height="45" width="34" xlink:href=""></image>
	</g>
	<g>
		
		<rect id="e1r4p10" x="212" y="645" height="45" width="34"></rect><image preserveAspectRatio="xMidYMid slice" id="e1r4p10" x="212" y="645" height="45" width="34" xlink:href=""></image>
		<rect id="e1r4p9"  x="247" y="660" height="45" width="34"></rect><image id="e1r4p9" xlink:href="https://cdn.intra.42.fr/users/3a967c1dd0103ef3f3cdf2f13c5d50f4/small_yoel-bas.jpg" preserveAspectRatio="xMidYMid slice" x="247" y="660" width="34" height="45" />
		<rect id="e1r4p8"  x="282" y="645" height="45" width="34"></rect><image id="e1r4p8" xlink:href="https://cdn.intra.42.fr/users/9871fef8070c10736d24dc044bf2982d/small_mboukaiz.jpg" preserveAspectRatio="xMidYMid slice" x="282" y="645" width="34" height="45" />
		<rect id="e1r4p7"  x="317" y="660" height="45" width="34"></rect><image id="e1r4p7" xlink:href="https://cdn.intra.42.fr/users/0dc482ce843842f9a4cf882bd1a6ff44/small_ozahdi.jpg" preserveAspectRatio="xMidYMid slice" x="317" y="660" width="34" height="45" />
		<rect id="e1r4p6"  x="352" y="645" height="45" width="34"></rect><image preserveAspectRatio="xMidYMid slice" id="e1r4p6" x="352" y="645" height="45" width="34" xlink:href=""></image>
	</g>
	<g>
		
		<rect id="e1r3p10" x="212" y="715" height="45" width="34"></rect><image id="e1r3p10" xlink:href="https://cdn.intra.42.fr/users/72306dadc4ea35811dd931ec58f68a90/small_foulare.jpg" preserveAspectRatio="xMidYMid slice" x="212" y="715" width="34" height="45" />
		<rect id="e1r3p9"  x="247" y="730" height="45" width="34"></rect><image preserveAspectRatio="xMidYMid slice" id="e1r3p9" x="247" y="730" height="45" width="34" xlink:href=""></image>
		<rect id="e1r3p8"  x="282" y="715" height="45" width="34"></rect><image preserveAspectRatio="xMidYMid slice" id="e1r3p8" x="282" y="715" height="45" width="34" xlink:href=""></image>
		<rect id="e1r3p7"  x="317" y="730" height="45" width="34"></rect><image preserveAspectRatio="xMidYMid slice" id="e1r3p7" x="317" y="730" height="45" width="34" xlink:href=""></image>
		<rect id="e1r3p6"  x="352" y="715" height="45" width="34"></rect><image preserveAspectRatio="xMidYMid slice" id="e1r3p6" x="352" y="715" height="45" width="34" xlink:href=""></image>
	</g>
	<g>
		
		<rect id="e1r2p10" x="212" y="785" height="45" width="34"></rect><image preserveAspectRatio="xMidYMid slice" id="e1r2p10" x="212" y="785" height="45" width="34" xlink:href=""></image>
		<rect id="e1r2p9"  x="247" y="800" height="45" width="34"></rect><image preserveAspectRatio="xMidYMid slice" id="e1r2p9"  x="247" y="800" height="45" width="34" xlink:href=""></image>
		<rect id="e1r2p8"  x="282" y="785" height="45" width="34"></rect><image id="e1r2p8" xlink:href="https://cdn.intra.42.fr/users/6687ecb726becaaeb8882f004af9e379/small_mlamkadm.jpg" preserveAspectRatio="xMidYMid slice" x="282" y="785" width="34" height="45" />
		<rect id="e1r2p7"  x="317" y="800" height="45" width="34"></rect><image preserveAspectRatio="xMidYMid slice" id="e1r2p7"  x="317" y="800" height="45" width="34" xlink:href=""></image>
		<rect id="e1r2p6"  x="352" y="785" height="45" width="34"></rect><image preserveAspectRatio="xMidYMid slice" id="e1r2p6"  x="352" y="785" height="45" width="34" xlink:href=""></image>
	</g>
</g>
<g>
	<g>
		
		<rect id="e1r13p5" x="412" y="15"  height="45" width="34"></rect><image id="e1r13p5" xlink:href="https://cdn.intra.42.fr/users/64100abc793b6e5fa647212ee7a24a46/small_afatimi.jpg" preserveAspectRatio="xMidYMid slice" x="412" y="15" width="34" height="45" />
		<rect id="e1r13p4" x="447" y="30"  height="45" width="34"></rect><image preserveAspectRatio="xMidYMid slice" id="e1r13p4" x="447" y="30" height="45" width="34" xlink:href=""></image>
		<rect id="e1r13p3" x="482" y="15"  height="45" width="34"></rect><image id="e1r13p3" xlink:href="https://cdn.intra.42.fr/users/34f63733cd7e9ab3e162b27c4249d007/small_ylyoussf.jpg" preserveAspectRatio="xMidYMid slice" x="482" y="15" width="34" height="45" />
		<rect id="e1r13p2" x="517" y="30"  height="45" width="34"></rect><image id="e1r13p2" xlink:href="https://cdn.intra.42.fr/users/404e1ffee95f27444ae97f6f124436cc/small_mqaos.jpg" preserveAspectRatio="xMidYMid slice" x="517" y="30" width="34" height="45" />
		<rect id="e1r13p1" x="552" y="15"  height="45" width="34"></rect><image id="e1r13p1" xlink:href="https://cdn.intra.42.fr/users/6f8b9adbc3f7814e7449c30550c601dd/small_ibouram.jpg" preserveAspectRatio="xMidYMid slice" x="552" y="15" width="34" height="45" />
	</g>
	<g>
		
		<rect id="e1r12p5" x="412" y="85"  height="45" width="34"></rect><image preserveAspectRatio="xMidYMid slice" id="e1r12p5" x="412" y="85" height="45" width="34" xlink:href=""></image>
		<rect id="e1r12p4" x="447" y="100" height="45" width="34"></rect><image id="e1r12p4" xlink:href="https://cdn.intra.42.fr/users/7891735f60388a7d52313ef4605ddd79/small_sakarkal.jpg" preserveAspectRatio="xMidYMid slice" x="447" y="100" width="34" height="45" />
		<rect id="e1r12p3" x="482" y="85"  height="45" width="34"></rect><image preserveAspectRatio="xMidYMid slice" id="e1r12p3" x="482" y="85" height="45" width="34" xlink:href=""></image>
		<rect id="e1r12p2" x="517" y="100" height="45" width="34"></rect><image preserveAspectRatio="xMidYMid slice" id="e1r12p2" x="517" y="100" height="45" width="34" xlink:href=""></image>
		<rect id="e1r12p1" x="552" y="85"  height="45" width="34"></rect><image preserveAspectRatio="xMidYMid slice" id="e1r12p1" x="552" y="85" height="45" width="34" xlink:href=""></image>
	</g>
	<g>
		
		<rect id="e1r11p5" x="412" y="155" height="45" width="34"></rect><image preserveAspectRatio="xMidYMid slice" id="e1r11p5" x="412" y="155" height="45" width="34" xlink:href=""></image>
		<rect id="e1r11p4" x="447" y="170" height="45" width="34"></rect><image id="e1r11p4" xlink:href="https://cdn.intra.42.fr/users/99a30562ddb3cefc7a3b1dfaab1e34bf/small_mbousouf.jpg" preserveAspectRatio="xMidYMid slice" x="447" y="170" width="34" height="45" />
		<rect id="e1r11p3" x="482" y="155" height="45" width="34"></rect><image id="e1r11p3" xlink:href="https://cdn.intra.42.fr/users/010ef9ed50915fc59109c6998bad7d9d/small_klamqari.jpg" preserveAspectRatio="xMidYMid slice" x="482" y="155" width="34" height="45" />
		<rect id="e1r11p2" x="517" y="170" height="45" width="34"></rect><image id="e1r11p2" xlink:href="https://cdn.intra.42.fr/users/2ff640facf379c4f88e70f88a587e45a/small_ael-abdi.jpg" preserveAspectRatio="xMidYMid slice" x="517" y="170" width="34" height="45" />
		<rect id="e1r11p1" x="552" y="155" height="45" width="34"></rect><image id="e1r11p1" xlink:href="https://cdn.intra.42.fr/users/f9805a44c98a81853fa5e777f9b453da/small_zel-ouad.jpg" preserveAspectRatio="xMidYMid slice" x="552" y="155" width="34" height="45" />
	</g>
	<g>
		
		<rect id="e1r10p5" x="412" y="225" height="45" width="34"></rect><image id="e1r10p5" xlink:href="https://cdn.intra.42.fr/users/a27e38fd0ebc3184c8a6e2d8caf18605/small_elel-bah.jpg" preserveAspectRatio="xMidYMid slice" x="412" y="225" width="34" height="45" />
		<rect id="e1r10p4" x="447" y="240" height="45" width="34"></rect><image preserveAspectRatio="xMidYMid slice" id="e1r10p4" x="447" y="240" height="45" width="34" xlink:href=""></image>
		<rect id="e1r10p3" x="482" y="225" height="45" width="34"></rect><image id="e1r10p3" xlink:href="https://cdn.intra.42.fr/users/15849aae84b0bee729a8442c6365ed31/small_hamrachi.jpg" preserveAspectRatio="xMidYMid slice" x="482" y="225" width="34" height="45" />
		<rect id="e1r10p2" x="517" y="240" height="45" width="34"></rect><image id="e1r10p2" xlink:href="https://cdn.intra.42.fr/users/8658480f7d0d1bb5184a2481fbcc2a01/small_sdiouane.jpg" preserveAspectRatio="xMidYMid slice" x="517" y="240" width="34" height="45" />
		<rect id="e1r10p1" x="552" y="225" height="45" width="34"></rect><image preserveAspectRatio="xMidYMid slice" id="e1r10p1" x="552" y="225" height="45" width="34" xlink:href=""></image>
	</g>
	<g>
		
		<rect id="e1r9p5" x="412" y="295" height="45" width="34"></rect><image preserveAspectRatio="xMidYMid slice" id="e1r9p5" x="412" y="295" height="45" width="34" xlink:href=""></image>
		<rect id="e1r9p4" x="447" y="310" height="45" width="34"></rect><image id="e1r9p4" xlink:href="https://cdn.intra.42.fr/users/b54ed30b038ca4400ecbaa30bd535759/small_eenassir.jpg" preserveAspectRatio="xMidYMid slice" x="447" y="310" width="34" height="45" />
		<rect id="e1r9p3" x="482" y="295" height="45" width="34"></rect><image id="e1r9p3" xlink:href="https://cdn.intra.42.fr/users/3189aa68dd621e8725901ee711407c25/small_abait-ta.jpg" preserveAspectRatio="xMidYMid slice" x="482" y="295" width="34" height="45" />
		<rect id="e1r9p2" x="517" y="310" height="45" width="34"></rect><image id="e1r9p2" xlink:href="https://cdn.intra.42.fr/users/aabd764e331500d680ccf5756747547e/small_sel-hasn.jpg" preserveAspectRatio="xMidYMid slice" x="517" y="310" width="34" height="45" />
		<rect id="e1r9p1" x="552" y="295" height="45" width="34"></rect><image id="e1r9p1" xlink:href="https://cdn.intra.42.fr/users/7d334dd832d44a75dd48277a7cba3595/small_mel-ward.jpg" preserveAspectRatio="xMidYMid slice" x="552" y="295" width="34" height="45" />
	</g>
	<g>
		
		<rect id="e1r8p5" x="412" y="365" height="45" width="34"></rect><image preserveAspectRatio="xMidYMid slice" id="e1r8p5" x="412" y="365" height="45" width="34" xlink:href=""></image>
		<rect id="e1r8p4" x="447" y="380" height="45" width="34"></rect><image id="e1r8p4" xlink:href="https://cdn.intra.42.fr/users/15d64daa6fbb000b76727d2fb62cc5eb/small_sacharai.jpg" preserveAspectRatio="xMidYMid slice" x="447" y="380" width="34" height="45" />
		<rect id="e1r8p3" x="482" y="365" height="45" width="34"></rect><image preserveAspectRatio="xMidYMid slice" id="e1r8p3" x="482" y="365" height="45" width="34" xlink:href=""></image>
		<rect id="e1r8p2" x="517" y="380" height="45" width="34"></rect><image id="e1r8p2" xlink:href="https://cdn.intra.42.fr/users/43d5f2b7b57ae82be2bd4d0281771100/small_mohtakra.jpg" preserveAspectRatio="xMidYMid slice" x="517" y="380" width="34" height="45" />
		<rect id="e1r8p1" x="552" y="365" height="45" width="34"></rect><image id="e1r8p1" xlink:href="https://cdn.intra.42.fr/users/7581f3767c36626796d1b5ce1ed22d7d/small_asayad.jpg" preserveAspectRatio="xMidYMid slice" x="552" y="365" width="34" height="45" />
	</g>
	<g>
		
		<rect id="e1r7p5" x="412" y="435" height="45" width="34"></rect><image preserveAspectRatio="xMidYMid slice" id="e1r7p5" x="412" y="435" height="45" width="34" xlink:href=""></image>
		<rect id="e1r7p4" x="447" y="450" height="45" width="34"></rect><image id="e1r7p4" xlink:href="https://cdn.intra.42.fr/users/c4690e5962033e81733a495fbf95ae43/small_ayyassif.jpg" preserveAspectRatio="xMidYMid slice" x="447" y="450" width="34" height="45" />
		<rect id="e1r7p3" x="482" y="435" height="45" width="34"></rect><image id="e1r7p3" xlink:href="https://cdn.intra.42.fr/users/9364311817fae6db4d3cb2a7c82f16cc/small_shamsate.jpg" preserveAspectRatio="xMidYMid slice" x="482" y="435" width="34" height="45" />
		<rect id="e1r7p2" x="517" y="450" height="45" width="34"></rect><image preserveAspectRatio="xMidYMid slice" id="e1r7p2" x="517" y="450" height="45" width="34" xlink:href=""></image>
		<rect id="e1r7p1" x="552" y="435" height="45" width="34"></rect><image id="e1r7p1" xlink:href="https://cdn.intra.42.fr/users/fa5a16d1bb6f2a4c69399ebe07f27265/small_aqiouami.jpg" preserveAspectRatio="xMidYMid slice" x="552" y="435" width="34" height="45" />
	</g>
	<g>
		
		<rect id="e1r6p5" x="412" y="505" height="45" width="34"></rect><image id="e1r6p5" xlink:href="https://cdn.intra.42.fr/users/d4739de82bbad226eb6375185dbb28fa/small_mjarboua.jpg" preserveAspectRatio="xMidYMid slice" x="412" y="505" width="34" height="45" />
		<rect id="e1r6p4" x="447" y="520" height="45" width="34"></rect><image id="e1r6p4" xlink:href="https://cdn.intra.42.fr/users/ad567ec9daeadc071a30d89f795faf02/small_wbelfatm.jpg" preserveAspectRatio="xMidYMid slice" x="447" y="520" width="34" height="45" />
		<rect id="e1r6p3" x="482" y="505" height="45" width="34"></rect><image preserveAspectRatio="xMidYMid slice" id="e1r6p3" x="482" y="505" height="45" width="34" xlink:href=""></image>
		<rect id="e1r6p2" x="517" y="520" height="45" width="34"></rect><image id="e1r6p2" xlink:href="https://cdn.intra.42.fr/users/9e666bd8833632e91b8dbab4229de3e3/small_naessafi.jpg" preserveAspectRatio="xMidYMid slice" x="517" y="520" width="34" height="45" />
		<rect id="e1r6p1" x="552" y="505" height="45" width="34"></rect><image id="e1r6p1" xlink:href="https://cdn.intra.42.fr/users/7f44870f2de0d4140e3a25a6ea2d0bb8/small_del-yaag.jpg" preserveAspectRatio="xMidYMid slice" x="552" y="505" width="34" height="45" />
	</g>
	<g>
		
		<rect id="e1r5p5" x="412" y="575" height="45" width="34"></rect><image id="e1r5p5" xlink:href="https://cdn.intra.42.fr/users/fbc592a3a0bbee956c585a1c4bc20fa4/small_hlaadiou.jpg" preserveAspectRatio="xMidYMid slice" x="412" y="575" width="34" height="45" />
		<rect id="e1r5p4" x="447" y="590" height="45" width="34"></rect><image id="e1r5p4" xlink:href="https://cdn.intra.42.fr/users/107fb4ebf11830af52ba2656fe7379f4/small_hasalam.jpg" preserveAspectRatio="xMidYMid slice" x="447" y="590" width="34" height="45" />
		<rect id="e1r5p3" x="482" y="575" height="45" width="34"></rect><image preserveAspectRatio="xMidYMid slice" id="e1r5p3" x="482" y="575" height="45" width="34" xlink:href=""></image>
		<rect id="e1r5p2" x="517" y="590" height="45" width="34"></rect><image id="e1r5p2" xlink:href="https://cdn.intra.42.fr/users/2f70267a7d43b8d4470a2f6e10119f96/small_imaaitat.jpg" preserveAspectRatio="xMidYMid slice" x="517" y="590" width="34" height="45" />
		<rect id="e1r5p1" x="552" y="575" height="45" width="34"></rect><image preserveAspectRatio="xMidYMid slice" id="e1r5p1" x="552" y="575" height="45" width="34" xlink:href=""></image>
	</g>
	<g>
		
		<rect id="e1r4p5" x="412" y="645" height="45" width="34"></rect><image id="e1r4p5" xlink:href="https://cdn.intra.42.fr/users/558d2bc2ff4ca8759dfbf83510440e70/small_achbira.jpg" preserveAspectRatio="xMidYMid slice" x="412" y="645" width="34" height="45" />
		<rect id="e1r4p4" x="447" y="660" height="45" width="34"></rect><image id="e1r4p4" xlink:href="https://cdn.intra.42.fr/users/a4d0d1228df0e683fee32e3c4f44f947/small_hachahbo.jpg" preserveAspectRatio="xMidYMid slice" x="447" y="660" width="34" height="45" />
		<rect id="e1r4p3" x="482" y="645" height="45" width="34"></rect><image preserveAspectRatio="xMidYMid slice" id="e1r4p3" x="482" y="645" height="45" width="34" xlink:href=""></image>
		<rect id="e1r4p2" x="517" y="660" height="45" width="34"></rect><image preserveAspectRatio="xMidYMid slice" id="e1r4p2" x="517" y="660" height="45" width="34" xlink:href=""></image>
		<rect id="e1r4p1" x="552" y="645" height="45" width="34"></rect><image id="e1r4p1" xlink:href="https://cdn.intra.42.fr/users/6e3e89d1a135b5e2235c6c6f0dc1db50/small_youlhafi.jpg" preserveAspectRatio="xMidYMid slice" x="552" y="645" width="34" height="45" />
	</g>
	<g>
		
		<rect id="e1r3p5" x="412" y="715" height="45" width="34"></rect><image id="e1r3p5" xlink:href="https://cdn.intra.42.fr/users/4f56cbcee93a9e8688aea245020b6a77/small_asnaji.jpg" preserveAspectRatio="xMidYMid slice" x="412" y="715" width="34" height="45" />
		<rect id="e1r3p4" x="447" y="730" height="45" width="34"></rect><image id="e1r3p4" xlink:href="https://cdn.intra.42.fr/users/4768cb2be7b1f71f4e969dddc43d32df/small_ychbily.jpg" preserveAspectRatio="xMidYMid slice" x="447" y="730" width="34" height="45" />
		<rect id="e1r3p3" x="482" y="715" height="45" width="34"></rect><image id="e1r3p3" xlink:href="https://cdn.intra.42.fr/users/a5a5b4bacf4779420bd09e162e2366c6/small_mbenchel.jpg" preserveAspectRatio="xMidYMid slice" x="482" y="715" width="34" height="45" />
		<rect id="e1r3p2" x="517" y="730" height="45" width="34"></rect><image id="e1r3p2" xlink:href="https://cdn.intra.42.fr/users/cec9129d825a777a7c35deebac21ca98/small_msarda.jpg" preserveAspectRatio="xMidYMid slice" x="517" y="730" width="34" height="45" />
		<rect id="e1r3p1" x="552" y="715" height="45" width="34"></rect><image preserveAspectRatio="xMidYMid slice" id="e1r3p1" x="552" y="715" height="45" width="34" xlink:href=""></image>
	</g>
	<g>
		
		<rect id="e1r2p5" x="412" y="785" height="45" width="34"></rect><image preserveAspectRatio="xMidYMid slice" id="e1r2p5" x="412" y="785" height="45" width="34" xlink:href=""></image>
		<rect id="e1r2p4" x="447" y="800" height="45" width="34"></rect><image id="e1r2p4" xlink:href="https://cdn.intra.42.fr/users/dfb4e00220d2a7755c01658fdaed0d4c/small_ymahni.jpg" preserveAspectRatio="xMidYMid slice" x="447" y="800" width="34" height="45" />
		<rect id="e1r2p3" x="482" y="785" height="45" width="34"></rect><image id="e1r2p3" xlink:href="https://cdn.intra.42.fr/users/99a7a8d92366aafc8bf072c4f6a90f27/small_drtaili.jpg" preserveAspectRatio="xMidYMid slice" x="482" y="785" width="34" height="45" />
		<rect id="e1r2p2" x="517" y="800" height="45" width="34"></rect><image id="e1r2p2" xlink:href="https://cdn.intra.42.fr/users/b57d0e04363804ad942c05d099242d87/small_sbouzrad.jpg" preserveAspectRatio="xMidYMid slice" x="517" y="800" width="34" height="45" />
		<rect id="e1r2p1" x="552" y="785" height="45" width="34"></rect><image id="e1r2p1" xlink:href="https://cdn.intra.42.fr/users/0661334b8448740590df128a7f622718/small_yarais.jpg" preserveAspectRatio="xMidYMid slice" x="552" y="785" width="34" height="45" />
	</g>
	<g>
		
		<rect id="e1r1p5" x="412" y="855" height="45" width="34"></rect><image id="e1r1p5" xlink:href="https://cdn.intra.42.fr/users/a689e37dc44e16a84a448820a3ca436b/small_ykhadiri.jpg" preserveAspectRatio="xMidYMid slice" x="412" y="855" width="34" height="45" />
		<rect id="e1r1p4" x="447" y="870" height="45" width="34"></rect><image id="e1r1p4" xlink:href="https://cdn.intra.42.fr/users/8ecea3e167deac6d74443e190c15b9a9/small_oaboulgh.jpg" preserveAspectRatio="xMidYMid slice" x="447" y="870" width="34" height="45" />
		<rect id="e1r1p3" x="482" y="855" height="45" width="34"></rect><image preserveAspectRatio="xMidYMid slice" id="e1r1p3" x="482" y="855" height="45" width="34" xlink:href=""></image>
		<rect id="e1r1p2" x="517" y="870" height="45" width="34"></rect><image preserveAspectRatio="xMidYMid slice" id="e1r1p2" x="517" y="870" height="45" width="34" xlink:href=""></image>
		<rect id="e1r1p1" x="552" y="855" height="45" width="34"></rect><image id="e1r1p1" xlink:href="https://cdn.intra.42.fr/users/268cfa83d90e0b417f96c8188f471c1f/small_nel-baz.jpg" preserveAspectRatio="xMidYMid slice" x="552" y="855" width="34" height="45" />
	</g>
</g>
<text transform="matrix(1 0 0 1 602 895)" class="st3 st1 st6">R1</text>
<text transform="matrix(1 0 0 1 602 825)" class="st3 st1 st6">R2</text>
<text transform="matrix(1 0 0 1 602 755)" class="st3 st1 st6">R3</text>
<text transform="matrix(1 0 0 1 602 685)" class="st3 st1 st6">R4</text>
<text transform="matrix(1 0 0 1 602 615)" class="st3 st1 st6">R5</text>
<text transform="matrix(1 0 0 1 602 545)" class="st3 st1 st6">R6</text>
<text transform="matrix(1 0 0 1 602 475)" class="st3 st1 st6">R7</text>
<text transform="matrix(1 0 0 1 602 405)" class="st3 st1 st6">R8</text>
<text transform="matrix(1 0 0 1 602 335)" class="st3 st1 st6">R9</text>
<text transform="matrix(1 0 0 1 602 265)" class="st3 st1 st6">R10</text>
<text transform="matrix(1 0 0 1 602 195)" class="st3 st1 st6">R11</text>
<text transform="matrix(1 0 0 1 602 125)" class="st3 st1 st6">R12</text>
<text transform="matrix(1 0 0 1 602 55)" class="st3 st1 st6">R13</text>
</svg>
