<svg xmlns="http://www.w3.org/2000/svg" xmlns:xlink="http://www.w3.org/1999/xlink" version="1.1" id="Layer_1" x="0px" y="0px" viewBox="0 0 651 930" style="enable-background:new 0 0 651 930;" xml:space="preserve">
<style type="text/css">
rect{fill:#f1f2f3;stroke:#000;}
	.st0{fill:#CCCCCC;}
	.st1{font-family:'Helvetica-Bold';}
	.st2{font-size:40px;}
	.st3{fill:none;stroke:#CCCCCC;}
	.st4{fill:none;stroke:#000000;stroke-miterlimit:10;}
	.st5{fill:none;stroke:#231F20;stroke-miterlimit:10;}
	.st6{font-size:20.8176px;}
</style>
<text transform="matrix(1 0 0 1 5 50)" class="st0 st1 st2">E1</text>
<g>
	<g>
		
		<rect id="e1r10p15" x="12" y="225" height="45" width="34"></rect><image preserveAspectRatio="xMidYMid slice" id="e1r10p15" x="12" y="225" height="45" width="34" xlink:href=""></image>
		<rect id="e1r10p14" x="47" y="240" height="45" width="34"></rect><image id="e1r10p14" xlink:href="https://cdn.intra.42.fr/users/669da04871b02feee811148fc55033e4/small_alemsafi.jpg" preserveAspectRatio="xMidYMid slice" x="47" y="240" width="34" height="45" />
		<rect id="e1r10p13" x="82" y="225" height="45" width="34"></rect><image id="e1r10p13" xlink:href="https://cdn.intra.42.fr/users/3066be54cc35d42504e6be0e31c0dbbe/small_messkely.jpg" preserveAspectRatio="xMidYMid slice" x="82" y="225" width="34" height="45" />
		<rect id="e1r10p12" x="117" y="240" height="45" width="34"></rect><image preserveAspectRatio="xMidYMid slice" id="e1r10p12" x="117" y="240" height="45" width="34" xlink:href=""></image>
		<rect id="e1r10p11" x="152" y="225" height="45" width="34"></rect><image preserveAspectRatio="xMidYMid slice" id="e1r10p11" x="152" y="225" height="45" width="34" xlink:href=""></image>
	</g>
</g>
<text transform="matrix(1 0 0 1 602 895)" class="st3 st1 st6">R1</text>
<text transform="matrix(1 0 0 1 602 825)" class="st3 st1 st6">R2</text>
<text transform="matrix(1 0 0 1 602 755)" class="st3 st1 st6">R3</text>
<text transform="matrix(1 0 0 1 602 685)" class="st3 st1 st6">R4</text>
<text transform="matrix(1 0 0 1 602 615)" class="st3 st1 st6">R5</text>
<text transform="matrix(1 0 0 1 602 545)" class="st3 st1 st6">R6</text>
<text transform="matrix(1 0 0 1 602 475)" class="st3 st1 st6">R7</text>
<text transform="matrix(1 0 0 1 602 405)" class="st3 st1 st6">R8</text>
<text transform="matrix(1 0 0 1 602 335)" class="st3 st1 st6">R9</text>
<text transform="matrix(1 0 0 1 602 265)" class="st3 st1 st6">R10</text>
<text transform="matrix(1 0 0 1 602 195)" class="st3 st1 st6">R11</text>
<text transform="matrix(1 0 0 1 602 125)" class="st3 st1 st6">R12</text>
<text transform="matrix(1 0 0 1 602 55)" class="st3 st1 st6">R13</text>
</svg>
