<svg version="1.1" id="Layer_1" xmlns="http://www.w3.org/2000/svg" xmlns:xlink="http://www.w3.org/1999/xlink" x="0px" y="0px" viewBox="0 0 651 907" style="enable-background:new 0 0 651 907;" xml:space="preserve">
<style type="text/css">
	.st0{fill:#CCCCCC;}
	.st1{font-family:'Helvetica-Bold';}
	.st2{font-size:40px;}
	.st3{fill:none;stroke:#CCCCCC;}
	.st4{font-size:20.8176px;}
</style>
<text transform="matrix(1 0 0 1 5 50)" class="st0 st1 st2">C1</text>
<g>
	<g>
		<rect stroke="#7f7f7f" fill="#e5e5e5" id="c1r8p8" x="477.5" y="154" width="34" height="45"></rect><image preserveAspectRatio="xMidYMid slice" id="c1r8p8" x="477.5" y="154" height="45" width="34" xlink:href=""></image>
		<rect stroke="#7f7f7f" fill="#e5e5e5" id="c1r8p7" x="427.2" y="154" width="34" height="45"></rect><image preserveAspectRatio="xMidYMid slice" id="c1r8p7" x="427.2" y="154" height="45" width="34" xlink:href=""></image>
		<rect stroke="#7f7f7f" fill="#e5e5e5" id="c1r8p6" x="477.5" y="200.7" width="34" height="45"></rect><image preserveAspectRatio="xMidYMid slice" id="c1r8p6" x="477.5" y="200.7" height="45" width="34" xlink:href=""></image>
		<rect stroke="#7f7f7f" fill="#e5e5e5" id="c1r8p5" x="427.2" y="200.7" width="34" height="45"></rect><image preserveAspectRatio="xMidYMid slice" id="c1r8p5" x="427.2" y="200.7" height="45" width="34" xlink:href=""></image>
		<rect stroke="#7f7f7f" fill="#e5e5e5" id="c1r8p4" x="477.5" y="248.2" width="34" height="45"></rect><image preserveAspectRatio="xMidYMid slice" id="c1r8p4" x="477.5" y="248.2" height="45" width="34" xlink:href=""></image>
		<rect stroke="#7f7f7f" fill="#e5e5e5" id="c1r8p3" x="427.2" y="248.2" width="34" height="45"></rect><image preserveAspectRatio="xMidYMid slice" id="c1r8p3" x="427.2" y="248.2" height="45" width="34" xlink:href=""></image>
		<rect stroke="#7f7f7f" fill="#e5e5e5" id="c1r8p2" x="477.5" y="295.4" width="34" height="45"></rect><image preserveAspectRatio="xMidYMid slice" id="c1r8p2" x="477.5" y="295.4" height="45" width="34" xlink:href=""></image>
		<rect stroke="#7f7f7f" fill="#e5e5e5" id="c1r8p1" x="427.2" y="295.4" width="34" height="45"></rect><image preserveAspectRatio="xMidYMid slice" id="c1r8p1" x="427.2" y="295.4" height="45" width="34" xlink:href=""></image>
	</g>
	<g>
		<rect stroke="#7f7f7f" fill="#e5e5e5" id="c1r7p8" x="346.8" y="154" width="34" height="45"></rect><image preserveAspectRatio="xMidYMid slice" id="c1r7p8" x="346.8" y="154" height="45" width="34" xlink:href=""></image>
		<rect stroke="#7f7f7f" fill="#e5e5e5" id="c1r7p7" x="296.5" y="154" width="34" height="45"></rect><image preserveAspectRatio="xMidYMid slice" id="c1r7p7" x="296.5" y="154" height="45" width="34" xlink:href=""></image>
		<rect stroke="#7f7f7f" fill="#e5e5e5" id="c1r7p6" x="346.8" y="200.7" width="34" height="45"></rect><image preserveAspectRatio="xMidYMid slice" id="c1r7p6" x="346.8" y="200.7" height="45" width="34" xlink:href=""></image>
		<rect stroke="#7f7f7f" fill="#e5e5e5" id="c1r7p5" x="296.5" y="200.7" width="34" height="45"></rect><image preserveAspectRatio="xMidYMid slice" id="c1r7p5" x="296.5" y="200.7" height="45" width="34" xlink:href=""></image>
		<rect stroke="#7f7f7f" fill="#e5e5e5" id="c1r7p4" x="346.8" y="248.2" width="34" height="45"></rect><image preserveAspectRatio="xMidYMid slice" id="c1r7p4" x="346.8" y="248.2" height="45" width="34" xlink:href=""></image>
		<rect stroke="#7f7f7f" fill="#e5e5e5" id="c1r7p3" x="296.5" y="248.2" width="34" height="45"></rect><image preserveAspectRatio="xMidYMid slice" id="c1r7p3" x="296.5" y="248.2" height="45" width="34" xlink:href=""></image>
		<rect stroke="#7f7f7f" fill="#e5e5e5" id="c1r7p2" x="346.8" y="295.4" width="34" height="45"></rect><image preserveAspectRatio="xMidYMid slice" id="c1r7p2" x="346.8" y="295.4" height="45" width="34" xlink:href=""></image>
		<rect stroke="#7f7f7f" fill="#e5e5e5" id="c1r7p1" x="296.5" y="295.4" width="34" height="45"></rect><image preserveAspectRatio="xMidYMid slice" id="c1r7p1" x="296.5" y="295.4" height="45" width="34" xlink:href=""></image>
	</g>
	<g>
		<rect stroke="#7f7f7f" fill="#e5e5e5" id="c1r6p8" x="213" y="154" width="34" height="45"></rect><image preserveAspectRatio="xMidYMid slice" id="c1r6p8" x="213" y="154" height="45" width="34" xlink:href=""></image>
		<rect stroke="#7f7f7f" fill="#e5e5e5" id="c1r6p7" x="162.7" y="154" width="34" height="45"></rect><image preserveAspectRatio="xMidYMid slice" id="c1r6p7" x="162.7" y="154" height="45" width="34" xlink:href=""></image>
		<rect stroke="#7f7f7f" fill="#e5e5e5" id="c1r6p6" x="213" y="200.7" width="34" height="45"></rect><image preserveAspectRatio="xMidYMid slice" id="c1r6p6" x="213" y="200.7" height="45" width="34" xlink:href=""></image>
		<rect stroke="#7f7f7f" fill="#e5e5e5" id="c1r6p5" x="162.7" y="200.7" width="34" height="45"></rect><image preserveAspectRatio="xMidYMid slice" id="c1r6p5" x="162.7" y="200.7" height="45" width="34" xlink:href=""></image>
		<rect stroke="#7f7f7f" fill="#e5e5e5" id="c1r6p4" x="213" y="248.2" width="34" height="45"></rect><image preserveAspectRatio="xMidYMid slice" id="c1r6p4" x="213" y="248.2" height="45" width="34" xlink:href=""></image>
		<rect stroke="#7f7f7f" fill="#e5e5e5" id="c1r6p3" x="162.7" y="248.2" width="34" height="45"></rect><image preserveAspectRatio="xMidYMid slice" id="c1r6p3" x="162.7" y="248.2" height="45" width="34" xlink:href=""></image>
		<rect stroke="#7f7f7f" fill="#e5e5e5" id="c1r6p2" x="213" y="295.4" width="34" height="45"></rect><image preserveAspectRatio="xMidYMid slice" id="c1r6p2" x="213" y="295.4" height="45" width="34" xlink:href=""></image>
		<rect stroke="#7f7f7f" fill="#e5e5e5" id="c1r6p1" x="162.7" y="295.4" width="34" height="45"></rect><image preserveAspectRatio="xMidYMid slice" id="c1r6p1" x="162.7" y="295.4" height="45" width="34" xlink:href=""></image>
	</g>
	<g>
		<rect stroke="#7f7f7f" fill="#e5e5e5" id="c1r5p10" x="460.5" y="398.4" width="34" height="45"></rect><image preserveAspectRatio="xMidYMid slice" id="c1r5p10" x="460.5" y="398.4" height="45" width="34" xlink:href=""></image>
		<rect stroke="#7f7f7f" fill="#e5e5e5" id="c1r5p9" x="460.5" y="448.6" width="34" height="45"></rect><image preserveAspectRatio="xMidYMid slice" id="c1r5p9" x="460.5" y="448.6" height="45" width="34" xlink:href=""></image>
		<rect stroke="#7f7f7f" fill="#e5e5e5" id="c1r5p8" x="412.9" y="398.4" width="34" height="45"></rect><image preserveAspectRatio="xMidYMid slice" id="c1r5p8" x="412.9" y="398.4" height="45" width="34" xlink:href=""></image>
		<rect stroke="#7f7f7f" fill="#e5e5e5" id="c1r5p7" x="412.9" y="448.6" width="34" height="45"></rect><image preserveAspectRatio="xMidYMid slice" id="c1r5p7" x="412.9" y="448.6" height="45" width="34" xlink:href=""></image>
		<rect stroke="#7f7f7f" fill="#e5e5e5" id="c1r5p6" x="364.8" y="398.4" width="34" height="45"></rect><image preserveAspectRatio="xMidYMid slice" id="c1r5p6" x="364.8" y="398.4" height="45" width="34" xlink:href=""></image>
		<rect stroke="#7f7f7f" fill="#e5e5e5" id="c1r5p5" x="364.8" y="448.6" width="34" height="45"></rect><image preserveAspectRatio="xMidYMid slice" id="c1r5p5" x="364.8" y="448.6" height="45" width="34" xlink:href=""></image>
		<rect stroke="#7f7f7f" fill="#e5e5e5" id="c1r5p4" x="212.3" y="398.4" width="34" height="45"></rect><image preserveAspectRatio="xMidYMid slice" id="c1r5p4" x="212.3" y="398.4" height="45" width="34" xlink:href=""></image>
		<rect stroke="#7f7f7f" fill="#e5e5e5" id="c1r5p3" x="212.3" y="448.6" width="34" height="45"></rect><image preserveAspectRatio="xMidYMid slice" id="c1r5p3" x="212.3" y="448.6" height="45" width="34" xlink:href=""></image>
		<rect stroke="#7f7f7f" fill="#e5e5e5" id="c1r5p2" x="165.5" y="398.4" width="34" height="45"></rect><image preserveAspectRatio="xMidYMid slice" id="c1r5p2" x="165.5" y="398.4" height="45" width="34" xlink:href=""></image>
		<rect stroke="#7f7f7f" fill="#e5e5e5" id="c1r5p1" x="165.5" y="448.6" width="34" height="45"></rect><image preserveAspectRatio="xMidYMid slice" id="c1r5p1" x="165.5" y="448.6" height="45" width="34" xlink:href=""></image>
	</g>
	<g>
		<rect stroke="#7f7f7f" fill="#e5e5e5" id="c1r4p10" x="460.4" y="498.3" width="34" height="45"></rect><image preserveAspectRatio="xMidYMid slice" id="c1r4p10" x="460.4" y="498.3" height="45" width="34" xlink:href=""></image>
		<rect stroke="#7f7f7f" fill="#e5e5e5" id="c1r4p9" x="460.4" y="548.6" width="34" height="45"></rect><image preserveAspectRatio="xMidYMid slice" id="c1r4p9" x="460.4" y="548.6" height="45" width="34" xlink:href=""></image>
		<rect stroke="#7f7f7f" fill="#e5e5e5" id="c1r4p8" x="412.9" y="498.3" width="34" height="45"></rect><image preserveAspectRatio="xMidYMid slice" id="c1r4p8" x="412.9" y="498.3" height="45" width="34" xlink:href=""></image>
		<rect stroke="#7f7f7f" fill="#e5e5e5" id="c1r4p7" x="412.9" y="548.6" width="34" height="45"></rect><image preserveAspectRatio="xMidYMid slice" id="c1r4p7" x="412.9" y="548.6" height="45" width="34" xlink:href=""></image>
		<rect stroke="#7f7f7f" fill="#e5e5e5" id="c1r4p6" x="364.7" y="498.3" width="34" height="45"></rect><image preserveAspectRatio="xMidYMid slice" id="c1r4p6" x="364.7" y="498.3" height="45" width="34" xlink:href=""></image>
		<rect stroke="#7f7f7f" fill="#e5e5e5" id="c1r4p5" x="364.7" y="548.6" width="34" height="45"></rect><image preserveAspectRatio="xMidYMid slice" id="c1r4p5" x="364.7" y="548.6" height="45" width="34" xlink:href=""></image>
		<rect stroke="#7f7f7f" fill="#e5e5e5" id="c1r4p4" x="212.2" y="498.3" width="34" height="45"></rect><image preserveAspectRatio="xMidYMid slice" id="c1r4p4" x="212.2" y="498.3" height="45" width="34" xlink:href=""></image>
		<rect stroke="#7f7f7f" fill="#e5e5e5" id="c1r4p3" x="212.2" y="548.6" width="34" height="45"></rect><image preserveAspectRatio="xMidYMid slice" id="c1r4p3" x="212.2" y="548.6" height="45" width="34" xlink:href=""></image>
		<rect stroke="#7f7f7f" fill="#e5e5e5" id="c1r4p2" x="165.5" y="498.3" width="34" height="45"></rect><image preserveAspectRatio="xMidYMid slice" id="c1r4p2" x="165.5" y="498.3" height="45" width="34" xlink:href=""></image>
		<rect stroke="#7f7f7f" fill="#e5e5e5" id="c1r4p1" x="165.5" y="548.6" width="34" height="45"></rect><image preserveAspectRatio="xMidYMid slice" id="c1r4p1" x="165.5" y="548.6" height="45" width="34" xlink:href=""></image>
	</g>
	<g>
		<rect stroke="#7f7f7f" fill="#e5e5e5" id="c1r3p10" x="460.3" y="598.4" width="34" height="45"></rect><image preserveAspectRatio="xMidYMid slice" id="c1r3p10" x="460.3" y="598.4" height="45" width="34" xlink:href=""></image>
		<rect stroke="#7f7f7f" fill="#e5e5e5" id="c1r3p9" x="460.3" y="648.7" width="34" height="45"></rect><image preserveAspectRatio="xMidYMid slice" id="c1r3p9" x="460.3" y="648.7" height="45" width="34" xlink:href=""></image>
		<rect stroke="#7f7f7f" fill="#e5e5e5" id="c1r3p8" x="412.8" y="598.4" width="34" height="45"></rect><image preserveAspectRatio="xMidYMid slice" id="c1r3p8" x="412.8" y="598.4" height="45" width="34" xlink:href=""></image>
		<rect stroke="#7f7f7f" fill="#e5e5e5" id="c1r3p7" x="412.8" y="648.7" width="34" height="45"></rect><image preserveAspectRatio="xMidYMid slice" id="c1r3p7" x="412.8" y="648.7" height="45" width="34" xlink:href=""></image>
		<rect stroke="#7f7f7f" fill="#e5e5e5" id="c1r3p6" x="364.7" y="598.4" width="34" height="45"></rect><image preserveAspectRatio="xMidYMid slice" id="c1r3p6" x="364.7" y="598.4" height="45" width="34" xlink:href=""></image>
		<rect stroke="#7f7f7f" fill="#e5e5e5" id="c1r3p5" x="364.7" y="648.7" width="34" height="45"></rect><image preserveAspectRatio="xMidYMid slice" id="c1r3p5" x="364.7" y="648.7" height="45" width="34" xlink:href=""></image>
		<rect stroke="#7f7f7f" fill="#e5e5e5" id="c1r3p4" x="212.1" y="598.4" width="34" height="45"></rect><image preserveAspectRatio="xMidYMid slice" id="c1r3p4" x="212.1" y="598.4" height="45" width="34" xlink:href=""></image>
		<rect stroke="#7f7f7f" fill="#e5e5e5" id="c1r3p3" x="212.1" y="648.7" width="34" height="45"></rect><image preserveAspectRatio="xMidYMid slice" id="c1r3p3" x="212.1" y="648.7" height="45" width="34" xlink:href=""></image>
		<rect stroke="#7f7f7f" fill="#e5e5e5" id="c1r3p2" x="165.4" y="598.4" width="34" height="45"></rect><image preserveAspectRatio="xMidYMid slice" id="c1r3p2" x="165.4" y="598.4" height="45" width="34" xlink:href=""></image>
		<rect stroke="#7f7f7f" fill="#e5e5e5" id="c1r3p1" x="165.4" y="648.7" width="34" height="45"></rect><image preserveAspectRatio="xMidYMid slice" id="c1r3p1" x="165.4" y="648.7" height="45" width="34" xlink:href=""></image>
	</g>
	<g>
		<rect stroke="#7f7f7f" fill="#e5e5e5" id="c1r2p10" x="460.3" y="703.7" width="34" height="45"></rect><image preserveAspectRatio="xMidYMid slice" id="c1r2p10" x="460.3" y="703.7" height="45" width="34" xlink:href=""></image>
		<rect stroke="#7f7f7f" fill="#e5e5e5" id="c1r2p9" x="460.3" y="753.9" width="34" height="45"></rect><image preserveAspectRatio="xMidYMid slice" id="c1r2p9" x="460.3" y="753.9" height="45" width="34" xlink:href=""></image>
		<rect stroke="#7f7f7f" fill="#e5e5e5" id="c1r2p8" x="412.8" y="703.7" width="34" height="45"></rect><image preserveAspectRatio="xMidYMid slice" id="c1r2p8" x="412.8" y="703.7" height="45" width="34" xlink:href=""></image>
		<rect stroke="#7f7f7f" fill="#e5e5e5" id="c1r2p7" x="412.8" y="753.9" width="34" height="45"></rect><image preserveAspectRatio="xMidYMid slice" id="c1r2p7" x="412.8" y="753.9" height="45" width="34" xlink:href=""></image>
		<rect stroke="#7f7f7f" fill="#e5e5e5" id="c1r2p6" x="364.7" y="703.7" width="34" height="45"></rect><image preserveAspectRatio="xMidYMid slice" id="c1r2p6" x="364.7" y="703.7" height="45" width="34" xlink:href=""></image>
		<rect stroke="#7f7f7f" fill="#e5e5e5" id="c1r2p5" x="364.7" y="753.9" width="34" height="45"></rect><image preserveAspectRatio="xMidYMid slice" id="c1r2p5" x="364.7" y="753.9" height="45" width="34" xlink:href=""></image>
		<rect stroke="#7f7f7f" fill="#e5e5e5" id="c1r2p4" x="212.1" y="703.7" width="34" height="45"></rect><image preserveAspectRatio="xMidYMid slice" id="c1r2p4" x="212.1" y="703.7" height="45" width="34" xlink:href=""></image>
		<rect stroke="#7f7f7f" fill="#e5e5e5" id="c1r2p3" x="212.1" y="753.9" width="34" height="45"></rect><image preserveAspectRatio="xMidYMid slice" id="c1r2p3" x="212.1" y="753.9" height="45" width="34" xlink:href=""></image>
		<rect stroke="#7f7f7f" fill="#e5e5e5" id="c1r2p2" x="165.4" y="703.7" width="34" height="45"></rect><image preserveAspectRatio="xMidYMid slice" id="c1r2p2" x="165.4" y="703.7" height="45" width="34" xlink:href=""></image>
		<rect stroke="#7f7f7f" fill="#e5e5e5" id="c1r2p1" x="165.4" y="753.9" width="34" height="45"></rect><image preserveAspectRatio="xMidYMid slice" id="c1r2p1" x="165.4" y="753.9" height="45" width="34" xlink:href=""></image>
	</g>
	<g>
		<rect stroke="#7f7f7f" fill="#e5e5e5" id="c1r1p4" x="212.5" y="808.7" width="34" height="45"></rect><image preserveAspectRatio="xMidYMid slice" id="c1r1p4" x="212.5" y="808.7" height="45" width="34" xlink:href=""></image>
		<rect stroke="#7f7f7f" fill="#e5e5e5" id="c1r1p3" x="212.5" y="859" width="34" height="45"></rect><image preserveAspectRatio="xMidYMid slice" id="c1r1p3" x="212.5" y="859" height="45" width="34" xlink:href=""></image>
		<rect stroke="#7f7f7f" fill="#e5e5e5" id="c1r1p2" x="165" y="808.7" width="34" height="45"></rect><image preserveAspectRatio="xMidYMid slice" id="c1r1p2" x="165" y="808.7" height="45" width="34" xlink:href=""></image>
		<rect stroke="#7f7f7f" fill="#e5e5e5" id="c1r1p1" x="165" y="859" width="34" height="45"></rect><image preserveAspectRatio="xMidYMid slice" id="c1r1p1" x="165" y="859" height="45" width="34" xlink:href=""></image>
	</g>
</g>
<text transform="matrix(1 0 0 1 602 758)" class="st3 st1 st4">R2</text>
<text transform="matrix(1 0 0 1 602 653)" class="st3 st1 st4">R3</text>
<text transform="matrix(1 0 0 1 602 554)" class="st3 st1 st4">R4</text>
<text transform="matrix(1 0 0 1 602 454)" class="st3 st1 st4">R5</text>
<text transform="matrix(1 0 0 1 191.5319 143.2006)" class="st3 st1 st4">R6</text>
<text transform="matrix(1 0 0 1 325.5001 142.8259)" class="st3 st1 st4">R7</text>
<text transform="matrix(1 0 0 1 455.9363 142.8264)" class="st3 st1 st4">R8</text>
<text transform="matrix(1 0 0 1 602 864)" class="st3 st1 st4">R1</text>
</svg>