<svg version="1.1" xmlns="http://www.w3.org/2000/svg" xmlns:xlink="http://www.w3.org/1999/xlink" x="0px" y="0px" viewBox="0 0 651 907" style="enable-background:new 0 0 651 907;" xml:space="preserve">
<style type="text/css">
	.st0{font-family:'LiberationSans';}
	.st1{font-size:13px;}
	.st2{fill-rule:evenodd;clip-rule:evenodd;}
</style>
<g id="C2">
	<text transform="matrix(1 0 0 1 5 50)" class="st0 st1">C2</text>
</g>
<g>
	<g>
		<rect stroke="#7f7f7f" fill="#e5e5e5" x="181.2" y="862" class="st2" width="34" height="45" id="c2r9p1"></rect>
		<image id="c2r9p1" preserveAspectRatio="xMidYMid slice" x="181.2" y="862" height="45" width="34" xlink:href=""></image>
		<rect stroke="#7f7f7f" fill="#e5e5e5" x="220.2" y="848.1" class="st2" width="34" height="45" id="c2r9p2"></rect>
		<image id="c2r9p2" preserveAspectRatio="xMidYMid slice" x="220.2" y="848.1" height="45" width="34" xlink:href=""></image>
		<rect stroke="#7f7f7f" fill="#e5e5e5" x="259.2" y="862" class="st2" width="34" height="45" id="c2r9p3"></rect>
		<image id="c2r9p3" preserveAspectRatio="xMidYMid slice" x="259.2" y="862" height="45" width="34" xlink:href=""></image>
		<rect stroke="#7f7f7f" fill="#e5e5e5" x="298.2" y="848.1" class="st2" width="34" height="45" id="c2r9p4"></rect>
		<image id="c2r9p4" preserveAspectRatio="xMidYMid slice" x="298.2" y="848.1" height="45" width="34" xlink:href=""></image>
		<rect stroke="#7f7f7f" fill="#e5e5e5" x="337.2" y="862" class="st2" width="34" height="45" id="c2r9p5"></rect>
		<image id="c2r9p5" preserveAspectRatio="xMidYMid slice" x="337.2" y="862" height="45" width="34" xlink:href=""></image>
		<rect stroke="#7f7f7f" fill="#e5e5e5" x="376.2" y="848.1" class="st2" width="34" height="45" id="c2r9p6"></rect>
		<image id="c2r9p6" preserveAspectRatio="xMidYMid slice" x="376.2" y="848.1" height="45" width="34" xlink:href=""></image>
	</g>
	<g>
      <rect stroke="#7f7f7f" fill="#e5e5e5" id="c2r8p1" x="181.7" y="789.5" class="st2" width="34" height="45"></rect>
      <image preserveAspectRatio="xMidYMid slice" id="c2r8p1" x="181.7" y="789.5" height="45" width="34" xlink:href=""></image>
      <rect stroke="#7f7f7f" fill="#e5e5e5" id="c2r8p2" x="220.7" y="775.6" class="st2" width="34" height="45"></rect>
      <image preserveAspectRatio="xMidYMid slice" id="c2r8p2" x="220.7" y="775.6" height="45" width="34" xlink:href=""></image>
      <rect stroke="#7f7f7f" fill="#e5e5e5" id="c2r8p3" x="259.7" y="789.5" class="st2" width="34" height="45"></rect>
      <image preserveAspectRatio="xMidYMid slice" id="c2r8p3" x="259.7" y="789.5" height="45" width="34" xlink:href=""></image>
      <rect stroke="#7f7f7f" fill="#e5e5e5" id="c2r8p4" x="298.7" y="775.6" class="st2" width="34" height="45"></rect>
      <image preserveAspectRatio="xMidYMid slice" id="c2r8p4" x="298.7" y="775.6" height="45" width="34" xlink:href=""></image>
      <rect stroke="#7f7f7f" fill="#e5e5e5" id="c2r8p5" x="337.7" y="789.5" class="st2" width="34" height="45"></rect>
      <image preserveAspectRatio="xMidYMid slice" id="c2r8p5" x="337.7" y="789.5" height="45" width="34" xlink:href=""></image>
      <rect stroke="#7f7f7f" fill="#e5e5e5" id="c2r8p6" x="376.7" y="775.6" class="st2" width="34" height="45"></rect>
      <image preserveAspectRatio="xMidYMid slice" id="c2r8p6" x="376.7" y="775.6" height="45" width="34" xlink:href=""></image>
	</g>
	<g>
      <rect stroke="#7f7f7f" fill="#e5e5e5" id="c2r7p10" x="488.2" y="715.6" class="st2" width="34" height="45"></rect>
      <image preserveAspectRatio="xMidYMid slice" id="c2r7p10" x="488.2" y="715.6" height="45" width="34" xlink:href=""></image>
      <rect stroke="#7f7f7f" fill="#e5e5e5" id="c2r7p9" x="488.2" y="668.3" class="st2" width="34" height="45"></rect>
      <image preserveAspectRatio="xMidYMid slice" id="c2r7p9" x="488.2" y="668.3" height="45" width="34" xlink:href=""></image>
      <rect stroke="#7f7f7f" fill="#e5e5e5" id="c2r7p8" x="441.9" y="715.6" class="st2" width="34" height="45"></rect>
      <image preserveAspectRatio="xMidYMid slice" id="c2r7p8" x="441.9" y="715.6" height="45" width="34" xlink:href=""></image>
      <rect stroke="#7f7f7f" fill="#e5e5e5" id="c2r7p7" x="441.9" y="668.3" class="st2" width="34" height="45"></rect>
      <image preserveAspectRatio="xMidYMid slice" id="c2r7p7" x="441.9" y="668.3" height="45" width="34" xlink:href=""></image>
      <rect stroke="#7f7f7f" fill="#e5e5e5" id="c2r7p6" x="397.2" y="715.6" class="st2" width="34" height="45"></rect>
      <image preserveAspectRatio="xMidYMid slice" id="c2r7p6" x="397.2" y="715.6" height="45" width="34" xlink:href=""></image>
      <rect stroke="#7f7f7f" fill="#e5e5e5" id="c2r7p5" x="397.2" y="668.3" class="st2" width="34" height="45"></rect>
      <image preserveAspectRatio="xMidYMid slice" id="c2r7p5" x="397.2" y="668.3" height="45" width="34" xlink:href=""></image> 
      <rect stroke="#7f7f7f" fill="#e5e5e5" id="c2r7p4" x="198" y="715.6" class="st2" width="34" height="45"></rect>
      <image preserveAspectRatio="xMidYMid slice" id="c2r7p4" x="198" y="715.6" height="45" width="34" xlink:href=""></image>
      <rect stroke="#7f7f7f" fill="#e5e5e5" id="c2r7p3" x="198" y="668.3" class="st2" width="34" height="45"></rect>
      <image preserveAspectRatio="xMidYMid slice" id="c2r7p3" x="198" y="668.3" height="45" width="34" xlink:href=""></image>
      <rect stroke="#7f7f7f" fill="#e5e5e5" id="c2r7p2" x="107.7" y="715.6" class="st2" width="34" height="45"></rect>
      <image preserveAspectRatio="xMidYMid slice" id="c2r7p2" x="107.7" y="715.6" height="45" width="34" xlink:href=""></image>
      <rect stroke="#7f7f7f" fill="#e5e5e5" id="c2r7p1" x="107.7" y="668.3" class="st2" width="34" height="45"></rect>
      <image preserveAspectRatio="xMidYMid slice" id="c2r7p1" x="107.7" y="668.3" height="45" width="34" xlink:href=""></image>
	</g>
	<g>
      <rect stroke="#7f7f7f" fill="#e5e5e5" id="c2r6p10" x="488.2" y="610" class="st2" width="34" height="45"></rect>
      <image preserveAspectRatio="xMidYMid slice" id="c2r6p10" x="488.2" y="610" height="45" width="34" xlink:href=""></image>
      <rect stroke="#7f7f7f" fill="#e5e5e5" id="c2r6p9" x="488.2" y="562.7" class="st2" width="34" height="45"></rect>
      <image preserveAspectRatio="xMidYMid slice" id="c2r6p9" x="488.2" y="562.7" height="45" width="34" xlink:href=""></image>
      <rect stroke="#7f7f7f" fill="#e5e5e5" id="c2r6p8" x="441.9" y="610" class="st2" width="34" height="45"></rect>
      <image preserveAspectRatio="xMidYMid slice" id="c2r6p8" x="441.9" y="610" height="45" width="34" xlink:href=""></image>
      <rect stroke="#7f7f7f" fill="#e5e5e5" id="c2r6p7" x="441.9" y="562.7" class="st2" width="34" height="45"></rect>
      <image preserveAspectRatio="xMidYMid slice" id="c2r6p7" x="441.9" y="562.7" height="45" width="34" xlink:href=""></image>
      <rect stroke="#7f7f7f" fill="#e5e5e5" id="c2r6p6" x="397.2" y="610" class="st2" width="34" height="45"></rect>
      <image preserveAspectRatio="xMidYMid slice" id="c2r6p6" x="397.2" y="610" height="45" width="34" xlink:href=""></image>
      <rect stroke="#7f7f7f" fill="#e5e5e5" id="c2r6p5" x="397.2" y="562.7" class="st2" width="34" height="45"></rect>
      <image preserveAspectRatio="xMidYMid slice" id="c2r6p5" x="397.2" y="562.7" height="45" width="34" xlink:href=""></image>
      <rect stroke="#7f7f7f" fill="#e5e5e5" id="c2r6p4" x="198" y="610" class="st2" width="34" height="45"></rect>
      <image preserveAspectRatio="xMidYMid slice" id="c2r6p4" x="198" y="610" height="45" width="34" xlink:href=""></image>
      <rect stroke="#7f7f7f" fill="#e5e5e5" id="c2r6p3" x="198" y="562.7" class="st2" width="34" height="45"></rect>
      <image preserveAspectRatio="xMidYMid slice" id="c2r6p3" x="198" y="562.7" height="45" width="34" xlink:href=""></image>
      <rect stroke="#7f7f7f" fill="#e5e5e5" id="c2r6p2" x="107.7" y="610" class="st2" width="34" height="45"></rect>
      <image preserveAspectRatio="xMidYMid slice" id="c2r6p2" x="107.7" y="610" height="45" width="34" xlink:href=""></image>
      <rect stroke="#7f7f7f" fill="#e5e5e5" id="c2r6p1" x="107.7" y="562.7" class="st2" width="34" height="45"></rect>
      <image preserveAspectRatio="xMidYMid slice" id="c2r6p1" x="107.7" y="562.7" height="45" width="34" xlink:href=""></image>
	</g>
	<g>
		<rect stroke="#7f7f7f" fill="#e5e5e5" x="488.2" y="503.3" class="st2" width="34" height="45" id="c2r5p10"></rect>
		<image preserveAspectRatio="xMidYMid slice" id="c2r5p10" x="488.2" y="503.3" height="45" width="34" xlink:href=""></image>

		<rect stroke="#7f7f7f" fill="#e5e5e5" x="488.2" y="456" class="st2" width="34" height="45" id="c2r5p9"></rect>
		<image preserveAspectRatio="xMidYMid slice" id="c2r5p9" x="488.2" y="456" height="45" width="34" xlink:href=""></image>

		<rect stroke="#7f7f7f" fill="#e5e5e5" x="441.9" y="503.3" class="st2" width="34" height="45" id="c2r5p8"></rect>
		<image preserveAspectRatio="xMidYMid slice" id="c2r5p8" x="441.9" y="503.3" height="45" width="34" xlink:href=""></image>

		<rect stroke="#7f7f7f" fill="#e5e5e5" x="441.9" y="456" class="st2" width="34" height="45" id="c2r5p7"></rect>
		<image preserveAspectRatio="xMidYMid slice" id="c2r5p7" x="441.9" y="456" height="45" width="34" xlink:href=""></image>

		<rect stroke="#7f7f7f" fill="#e5e5e5" x="397.2" y="503.3" class="st2" width="34" height="45" id="c2r5p6"></rect>
		<image preserveAspectRatio="xMidYMid slice" id="c2r5p6" x="397.2" y="503.3" height="45" width="34" xlink:href=""></image>

		<rect stroke="#7f7f7f" fill="#e5e5e5" x="397.2" y="456" class="st2" width="34" height="45" id="c2r5p5"></rect>
		<image preserveAspectRatio="xMidYMid slice" id="c2r5p5" x="397.2" y="456" height="45" width="34" xlink:href=""></image>

		<rect stroke="#7f7f7f" fill="#e5e5e5" x="198" y="503.3" class="st2" width="34" height="45" id="c2r5p4"></rect>
		<image preserveAspectRatio="xMidYMid slice" id="c2r5p4" x="198" y="503.3" height="45" width="34" xlink:href=""></image>

		<rect stroke="#7f7f7f" fill="#e5e5e5" x="198" y="456" class="st2" width="34" height="45" id="c2r5p3"></rect>
		<image preserveAspectRatio="xMidYMid slice" id="c2r5p3" x="198" y="456" height="45" width="34" xlink:href=""></image>

		<rect stroke="#7f7f7f" fill="#e5e5e5" x="107.7" y="503.3" class="st2" width="34" height="45" id="c2r5p2"></rect>
		<image preserveAspectRatio="xMidYMid slice" id="c2r5p2" x="107.7" y="503.3" height="45" width="34" xlink:href=""></image>

		<rect stroke="#7f7f7f" fill="#e5e5e5" x="107.7" y="456" class="st2" width="34" height="45" id="c2r5p1"></rect>
		<image preserveAspectRatio="xMidYMid slice" id="c2r5p1" x="107.7" y="456" height="45" width="34" xlink:href=""></image>

		<rect stroke="#7f7f7f" fill="#e5e5e5" x="151.7" y="715.6" class="st2" width="34" height="45" id="c2r11p8"></rect>
		<image preserveAspectRatio="xMidYMid slice" id="c2r11p8" x="151.7" y="715.6" height="45" width="34" xlink:href=""></image>

		<rect stroke="#7f7f7f" fill="#e5e5e5" x="151.7" y="668.3" class="st2" width="34" height="45" id="c2r11p7"></rect>
		<image preserveAspectRatio="xMidYMid slice" id="c2r11p7" x="151.7" y="668.3" height="45" width="34" xlink:href=""></image>

		<rect stroke="#7f7f7f" fill="#e5e5e5" x="151.7" y="562.7" class="st2" width="34" height="45" id="c2r11p6"></rect>
		<image preserveAspectRatio="xMidYMid slice" id="c2r11p6" x="151.7" y="562.7" height="45" width="34" xlink:href=""></image>

		<rect stroke="#7f7f7f" fill="#e5e5e5" x="151.7" y="503.3" class="st2" width="34" height="45" id="c2r11p5"></rect>
		<image preserveAspectRatio="xMidYMid slice" id="c2r11p5" x="151.7" y="503.3" height="45" width="34" xlink:href=""></image>
	</g>
	<g>
		<rect stroke="#7f7f7f" fill="#e5e5e5" x="488.9" y="389.3" class="st2" width="34" height="45" id="c2r4p10"></rect>
		<image preserveAspectRatio="xMidYMid slice" id="c2r4p10" x="488.9" y="389.3" height="45" width="34" xlink:href=""></image>

		<rect stroke="#7f7f7f" fill="#e5e5e5" x="488.9" y="341" class="st2" width="34" height="45" id="c2r4p9"></rect>
		<image preserveAspectRatio="xMidYMid slice" id="c2r4p9" x="488.9" y="341" height="45" width="34" xlink:href=""></image>

		<rect stroke="#7f7f7f" fill="#e5e5e5" x="400.7" y="389.3" class="st2" width="34" height="45" id="c2r4p8"></rect>
		<image preserveAspectRatio="xMidYMid slice" id="c2r4p8" x="400.7" y="389.3" height="45" width="34" xlink:href=""></image>

		<rect stroke="#7f7f7f" fill="#e5e5e5" x="400.7" y="341" class="st2" width="34" height="45" id="c2r4p7"></rect>
		<image preserveAspectRatio="xMidYMid slice" id="c2r4p7" x="400.7" y="341" height="45" width="34" xlink:href=""></image>

		<rect stroke="#7f7f7f" fill="#e5e5e5" x="178" y="389.3" class="st2" width="34" height="45" id="c2r4p6"></rect>
		<image preserveAspectRatio="xMidYMid slice" id="c2r4p6" x="178" y="389.3" height="45" width="34" xlink:href=""></image>

		<rect stroke="#7f7f7f" fill="#e5e5e5" x="178" y="341" class="st2" width="34" height="45" id="c2r4p5"></rect>
		<image preserveAspectRatio="xMidYMid slice" id="c2r4p5" x="178" y="341" height="45" width="34" xlink:href=""></image>

		<rect stroke="#7f7f7f" fill="#e5e5e5" x="131.7" y="389.3" class="st2" width="34" height="45" id="c2r4p4"></rect>
		<image preserveAspectRatio="xMidYMid slice" id="c2r4p4" x="131.7" y="389.3" height="45" width="34" xlink:href=""></image>

		<rect stroke="#7f7f7f" fill="#e5e5e5" x="131.7" y="341" class="st2" width="34" height="45" id="c2r4p3"></rect>
		<image preserveAspectRatio="xMidYMid slice" id="c2r4p3" x="131.7" y="341" height="45" width="34" xlink:href=""></image>

		<rect stroke="#7f7f7f" fill="#e5e5e5" x="87" y="389.3" class="st2" width="34" height="45" id="c2r4p2"></rect>
		<image preserveAspectRatio="xMidYMid slice" id="c2r4p2" x="87" y="389.3" height="45" width="34" xlink:href=""></image>

		<rect stroke="#7f7f7f" fill="#e5e5e5" x="87" y="341" class="st2" width="34" height="45" id="c2r4p1"></rect>
		<image preserveAspectRatio="xMidYMid slice" id="c2r4p1" x="87" y="341" height="45" width="34" xlink:href=""></image>
	</g>
	<g>
		<rect stroke="#7f7f7f" fill="#e5e5e5" x="488.9" y="281.3" class="st2" width="34" height="45" id="c2r3p10"></rect>
		<image preserveAspectRatio="xMidYMid slice" id="c2r3p10" x="488.9" y="281.3" height="45" width="34" xlink:href=""></image>

		<rect stroke="#7f7f7f" fill="#e5e5e5" x="488.9" y="234" class="st2" width="34" height="45" id="c2r3p9"></rect>
		<image preserveAspectRatio="xMidYMid slice" id="c2r3p9" x="488.9" y="234" height="45" width="34" xlink:href=""></image>

		<rect stroke="#7f7f7f" fill="#e5e5e5" x="400.7" y="281.3" class="st2" width="34" height="45" id="c2r3p8"></rect>
		<image preserveAspectRatio="xMidYMid slice" id="c2r3p8" x="400.7" y="281.3" height="45" width="34" xlink:href=""></image>

		<rect stroke="#7f7f7f" fill="#e5e5e5" x="400.7" y="234" class="st2" width="34" height="45" id="c2r3p7"></rect>
		<image preserveAspectRatio="xMidYMid slice" id="c2r3p7" x="400.7" y="234" height="45" width="34" xlink:href=""></image>

		<rect stroke="#7f7f7f" fill="#e5e5e5" x="178" y="281.3" class="st2" width="34" height="45" id="c2r3p6"></rect>
		<image preserveAspectRatio="xMidYMid slice" id="c2r3p6" x="178" y="281.3" height="45" width="34" xlink:href=""></image>

		<rect stroke="#7f7f7f" fill="#e5e5e5" x="178" y="234" class="st2" width="34" height="45" id="c2r3p5"></rect>
		<image preserveAspectRatio="xMidYMid slice" id="c2r3p5" x="178" y="234" height="45" width="34" xlink:href=""></image>

		<rect stroke="#7f7f7f" fill="#e5e5e5" x="131.7" y="281.3" class="st2" width="34" height="45" id="c2r3p4"></rect>
		<image preserveAspectRatio="xMidYMid slice" id="c2r3p4" x="131.7" y="281.3" height="45" width="34" xlink:href=""></image>

		<rect stroke="#7f7f7f" fill="#e5e5e5" x="131.7" y="234" class="st2" width="34" height="45" id="c2r3p3"></rect>
		<image preserveAspectRatio="xMidYMid slice" id="c2r3p3" x="131.7" y="234" height="45" width="34" xlink:href=""></image>

		<rect stroke="#7f7f7f" fill="#e5e5e5" x="87" y="281.3" class="st2" width="34" height="45" id="c2r3p2"></rect>
		<image preserveAspectRatio="xMidYMid slice" id="c2r3p2" x="87" y="281.3" height="45" width="34" xlink:href=""></image>

		<rect stroke="#7f7f7f" fill="#e5e5e5" x="87" y="234" class="st2" width="34" height="45" id="c2r3p1"></rect>
		<image preserveAspectRatio="xMidYMid slice" id="c2r3p1" x="87" y="234" height="45" width="34" xlink:href=""></image>
	</g>
	<g>
		<rect stroke="#7f7f7f" fill="#e5e5e5" x="488.9" y="170.8" class="st2" width="34" height="45" id="c2r2p10"></rect>
		<image preserveAspectRatio="xMidYMid slice" id="c2r2p10" x="488.9" y="170.8" height="45" width="34" xlink:href=""></image>

		<rect stroke="#7f7f7f" fill="#e5e5e5" x="488.9" y="123.5" class="st2" width="34" height="45" id="c2r2p9"></rect>
		<image preserveAspectRatio="xMidYMid slice" id="c2r2p9" x="488.9" y="123.5" height="45" width="34" xlink:href=""></image>

		<rect stroke="#7f7f7f" fill="#e5e5e5" x="400.7" y="170.8" class="st2" width="34" height="45" id="c2r2p8"></rect>
		<image preserveAspectRatio="xMidYMid slice" id="c2r2p8" x="400.7" y="170.8" height="45" width="34" xlink:href=""></image>

		<rect stroke="#7f7f7f" fill="#e5e5e5" x="400.7" y="123.5" class="st2" width="34" height="45" id="c2r2p7"></rect>
		<image preserveAspectRatio="xMidYMid slice" id="c2r2p7" x="400.7" y="123.5" height="45" width="34" xlink:href=""></image>

		<rect stroke="#7f7f7f" fill="#e5e5e5" x="178" y="123.5" class="st2" width="34" height="45" id="c2r2p5"></rect>
		<image preserveAspectRatio="xMidYMid slice" id="c2r2p5" x="178" y="123.5" height="45" width="34" xlink:href=""></image>

		<rect stroke="#7f7f7f" fill="#e5e5e5" x="131.7" y="170.8" class="st2" width="34" height="45" id="c2r2p4"></rect>
		<image preserveAspectRatio="xMidYMid slice" id="c2r2p4" x="131.7" y="170.8" height="45" width="34" xlink:href=""></image>

		<rect stroke="#7f7f7f" fill="#e5e5e5" x="177.7" y="170.8" class="st2" width="34" height="45" id="c2r11p9"></rect>
		<image preserveAspectRatio="xMidYMid slice" id="c2r11p9" x="177.7" y="170.8" height="45" width="34" xlink:href=""></image>

		<rect stroke="#7f7f7f" fill="#e5e5e5" x="131.7" y="123.5" class="st2" width="34" height="45" id="c2r2p3"></rect>
		<image preserveAspectRatio="xMidYMid slice" id="c2r2p3" x="131.7" y="123.5" height="45" width="34" xlink:href=""></image>

		<rect stroke="#7f7f7f" fill="#e5e5e5" x="87" y="170.8" class="st2" width="34" height="45" id="c2r2p2"></rect>
		<image preserveAspectRatio="xMidYMid slice" id="c2r2p2" x="87" y="170.8" height="45" width="34" xlink:href=""></image>

		<rect stroke="#7f7f7f" fill="#e5e5e5" x="87" y="123.5" class="st2" width="34" height="45" id="c2r2p1"></rect>
		<image preserveAspectRatio="xMidYMid slice" id="c2r2p1" x="87" y="123.5" height="45" width="34" xlink:href=""></image>
	</g>
	<g>
		<rect stroke="#7f7f7f" fill="#e5e5e5" x="488.9" y="57.3" class="st2" width="34" height="45" id="c2r1p10"></rect>
		<image preserveAspectRatio="xMidYMid slice" id="c2r1p10" x="488.9" y="57.3" height="45" width="34" xlink:href=""></image>

		<rect stroke="#7f7f7f" fill="#e5e5e5" x="488.9" y="10" class="st2" width="34" height="45" id="c2r1p9"></rect>
		<image preserveAspectRatio="xMidYMid slice" id="c2r1p9" x="488.9" y="10" height="45" width="34" xlink:href=""></image>

		<rect stroke="#7f7f7f" fill="#e5e5e5" x="400.7" y="57.3" class="st2" width="34" height="45" id="c2r1p8"></rect>
		<image preserveAspectRatio="xMidYMid slice" id="c2r1p8" x="400.7" y="57.3" height="45" width="34" xlink:href=""></image>

		<rect stroke="#7f7f7f" fill="#e5e5e5" x="400.7" y="10" class="st2" width="34" height="45" id="c2r1p7"></rect>
		<image preserveAspectRatio="xMidYMid slice" id="c2r1p7" x="400.7" y="10" height="45" width="34" xlink:href=""></image>

		<rect stroke="#7f7f7f" fill="#e5e5e5" x="445.7" y="341" class="st2" width="34" height="45" id="c2r11p4"></rect>
		<image preserveAspectRatio="xMidYMid slice" id="c2r11p4" x="445.7" y="341" height="45" width="34" xlink:href=""></image>

		<rect stroke="#7f7f7f" fill="#e5e5e5" x="445.7" y="234" class="st2" width="34" height="45" id="c2r11p3"></rect>
		<image preserveAspectRatio="xMidYMid slice" id="c2r11p3" x="445.7" y="234" height="45" width="34" xlink:href=""></image>

		<rect stroke="#7f7f7f" fill="#e5e5e5" x="445.7" y="123.5" class="st2" width="34" height="45" id="c2r11p2"></rect>
		<image preserveAspectRatio="xMidYMid slice" id="c2r11p2" x="445.7" y="123.5" height="45" width="34" xlink:href=""></image>

		<rect stroke="#7f7f7f" fill="#e5e5e5" x="445.7" y="57.3" class="st2" width="34" height="45" id="c2r11p1"></rect>
		<image preserveAspectRatio="xMidYMid slice" id="c2r11p1" x="445.7" y="57.3" height="45" width="34" xlink:href=""></image>

		<rect stroke="#7f7f7f" fill="#e5e5e5" x="178" y="57.3" class="st2" width="34" height="45" id="c2r1p6"></rect>
		<image preserveAspectRatio="xMidYMid slice" id="c2r1p6" x="178" y="57.3" height="45" width="34" xlink:href=""></image>

		<rect stroke="#7f7f7f" fill="#e5e5e5" x="178" y="10" class="st2" width="34" height="45" id="c2r1p5"></rect>
		<image preserveAspectRatio="xMidYMid slice" id="c2r1p5" x="178" y="10" height="45" width="34" xlink:href=""></image>

		<rect stroke="#7f7f7f" fill="#e5e5e5" x="131.7" y="57.3" class="st2" width="34" height="45" id="c2r1p4"></rect>
		<image preserveAspectRatio="xMidYMid slice" id="c2r1p4" x="131.7" y="57.3" height="45" width="34" xlink:href=""></image>

		<rect stroke="#7f7f7f" fill="#e5e5e5" x="131.7" y="10" class="st2" width="34" height="45" id="c2r1p3"></rect>
		<image preserveAspectRatio="xMidYMid slice" id="c2r1p3" x="131.7" y="10" height="45" width="34" xlink:href=""></image>

		<rect stroke="#7f7f7f" fill="#e5e5e5" x="87" y="57.3" class="st2" width="34" height="45" id="c2r1p2"></rect>
		<image preserveAspectRatio="xMidYMid slice" id="c2r1p2" x="87" y="57.3" height="45" width="34" xlink:href=""></image>

		<rect stroke="#7f7f7f" fill="#e5e5e5" x="87" y="10" class="st2" width="34" height="45" id="c2r1p1"></rect>
		<image preserveAspectRatio="xMidYMid slice" id="c2r1p1" x="87" y="10" height="45" width="34" xlink:href=""></image>
	</g>
</g>
<g id="R2">
	<text transform="matrix(1 0 0 1 602.5 174)" class="st0 st1">R2</text>
</g>
<g id="R3">
	<text transform="matrix(1 0 0 1 602.5 283)" class="st0 st1">R3</text>
</g>
<g id="R4">
	<text transform="matrix(1 0 0 1 602.5 393)" class="st0 st1">R4</text>
</g>
<g id="R5">
	<text transform="matrix(1 0 0 1 602.5 501.5117)" class="st0 st1">R5</text>
</g>
<g id="R6">
	<text transform="matrix(1 0 0 1 602.5 611.5117)" class="st0 st1">R6</text>
</g>
<g id="R7">
	<text transform="matrix(1 0 0 1 602.5 714.5117)" class="st0 st1">R7</text>
</g>
<g id="R8">
	<text transform="matrix(1 0 0 1 456.5 803.5117)" class="st0 st1">R8</text>
</g>
<g id="R9">
	<text transform="matrix(1 0 0 1 456.5 873.5117)" class="st0 st1">R9</text>
</g>
<g id="R1">
	<text transform="matrix(1 0 0 1 602.5 64)" class="st0 st1">R1</text>
</g>
</svg>