<?xml version="1.0" encoding="utf-8"?>
<svg version="1.1" id="Layer_1"
	xmlns="http://www.w3.org/2000/svg"
	xmlns:xlink="http://www.w3.org/1999/xlink" x="0px" y="0px" viewBox="0 0 651 907" style="enable-background:new 0 0 651 907;" xml:space="preserve">
	<style type="text/css">
	.st0{fill:#CCCCCC;}
	.st1{font-family:'Helvetica-Bold';}
	.st2{font-size:40px;}
	.st3{fill:none;stroke:#CCCCCC;}
	.st4{fill:none;stroke:#000000;stroke-miterlimit:10;}
	.st5{fill:none;stroke:#231F20;stroke-miterlimit:10;}
	.st6{font-size:20.8176px;}

	</style>
	<text transform="matrix(1 0 0 1 602 50)" class="st3 st1 st6">R11</text>
	<text transform="matrix(1 0 0 1 602 133)" class="st3 st1 st6">R10</text>
	<text transform="matrix(1 0 0 1 602 212)" class="st3 st1 st6">R9</text>
	<text transform="matrix(1 0 0 1 602 296)" class="st3 st1 st6">R8</text>
	<text transform="matrix(1 0 0 1 602 372)" class="st3 st1 st6">R7</text>
	<text transform="matrix(1 0 0 1 602 461)" class="st3 st1 st6">R6</text>
	<text transform="matrix(1 0 0 1 602 541)" class="st3 st1 st6">R5</text>
	<text transform="matrix(1 0 0 1 602 620)" class="st3 st1 st6">R4</text>
	<text transform="matrix(1 0 0 1 602 706)" class="st3 st1 st6">R3</text>
	<text transform="matrix(1 0 0 1 602 782)" class="st3 st1 st6">R2</text>
	<text transform="matrix(1 0 0 1 602 861)" class="st3 st1 st6">R1</text>

	<g class="st4">
		<rect id="e3r11p1" x="558.1" y="45.4" width="26.9" height="35.6"/>
		<image xmlns="http://www.w3.org/2000/svg" preserveAspectRatio="xMidYMid slice" id="e3r11p1" x="558.1" y="45.4" width="26.9" height="35.6"
			xmlns:xlink="http://www.w3.org/1999/xlink" xlink:href=""/>
		<rect id="e3r11p3" x="524.1" y="45.4" width="26.9" height="35.6"/>
		<image xmlns="http://www.w3.org/2000/svg" preserveAspectRatio="xMidYMid slice" id="e3r11p3" x="524.1" y="45.4" width="26.9" height="35.6"
			xmlns:xlink="http://www.w3.org/1999/xlink" xlink:href=""/>
		<rect id="e3r11p5" x="490.1" y="45.4" width="26.9" height="35.6"/>
		<image xmlns="http://www.w3.org/2000/svg" preserveAspectRatio="xMidYMid slice" id="e3r11p5" x="490.1" y="45.4" width="26.9" height="35.6"
			xmlns:xlink="http://www.w3.org/1999/xlink" xlink:href=""/>
		<rect id="e3r11p7" x="456" y="45.4" width="26.9" height="35.6"/>
		<image xmlns="http://www.w3.org/2000/svg" preserveAspectRatio="xMidYMid slice" id="e3r11p7" x="456" y="45.4" width="26.9" height="35.6"
			xmlns:xlink="http://www.w3.org/1999/xlink" xlink:href=""/>
		<rect id="e3r11p9" x="422" y="45.4" width="26.9" height="35.6"/>
		<image xmlns="http://www.w3.org/2000/svg" preserveAspectRatio="xMidYMid slice" id="e3r11p9" x="422" y="45.4" width="26.9" height="35.6"
			xmlns:xlink="http://www.w3.org/1999/xlink" xlink:href=""/>
		<rect id="e3r11p2" x="558.1" y="4.2" width="26.9" height="35.6"/>
		<image xmlns="http://www.w3.org/2000/svg" preserveAspectRatio="xMidYMid slice" id="e3r11p2" x="558.1" y="4.2" width="26.9" height="35.6"
			xmlns:xlink="http://www.w3.org/1999/xlink" xlink:href=""/>
		<rect id="e3r11p4" x="524.1" y="4.2" width="26.9" height="35.6"/>
		<image xmlns="http://www.w3.org/2000/svg" preserveAspectRatio="xMidYMid slice" id="e3r11p4" x="524.1" y="4.2" width="26.9" height="35.6"
			xmlns:xlink="http://www.w3.org/1999/xlink" xlink:href=""/>
		<rect id="e3r11p6" x="490.1" y="4.2" width="26.9" height="35.6"/>
		<image xmlns="http://www.w3.org/2000/svg" preserveAspectRatio="xMidYMid slice" id="e3r11p6" x="490.1" y="4.2" width="26.9" height="35.6"
			xmlns:xlink="http://www.w3.org/1999/xlink" xlink:href=""/>
		<rect id="e3r11p8" x="456" y="4.2" width="26.9" height="35.6"/>
		<image xmlns="http://www.w3.org/2000/svg" preserveAspectRatio="xMidYMid slice" id="e3r11p8" x="456" y="4.2" width="26.9" height="35.6"
			xmlns:xlink="http://www.w3.org/1999/xlink" xlink:href=""/>
		<rect id="e3r11p10" x="422" y="4.2" width="26.9" height="35.6"/>
		<image xmlns="http://www.w3.org/2000/svg" preserveAspectRatio="xMidYMid slice" id="e3r11p10" x="422" y="4.2" width="26.9" height="35.6"
			xmlns:xlink="http://www.w3.org/1999/xlink" xlink:href=""/>
	</g>
	<g class="st4">
		<rect id="e3r10p11" x="218" y="130.4" width="26.9" height="35.6"/>
		<image xmlns="http://www.w3.org/2000/svg" preserveAspectRatio="xMidYMid slice" id="e3r10p11" x="218" y="130.4" width="26.9" height="35.6"
			xmlns:xlink="http://www.w3.org/1999/xlink" xlink:href=""/>
		<rect id="e3r10p13" x="184" y="130.4" width="26.9" height="35.6"/>
		<image xmlns="http://www.w3.org/2000/svg" preserveAspectRatio="xMidYMid slice" id="e3r10p13" x="184" y="130.4" width="26.9" height="35.6"
			xmlns:xlink="http://www.w3.org/1999/xlink" xlink:href=""/>
		<rect id="e3r10p15" x="150" y="130.4" width="26.9" height="35.6"/>
		<image xmlns="http://www.w3.org/2000/svg" preserveAspectRatio="xMidYMid slice" id="e3r10p15" x="150" y="130.4" width="26.9" height="35.6"
			xmlns:xlink="http://www.w3.org/1999/xlink" xlink:href=""/>
		<rect id="e3r10p17" x="115.9" y="130.4" width="26.9" height="35.6"/>
		<image xmlns="http://www.w3.org/2000/svg" preserveAspectRatio="xMidYMid slice" id="e3r10p17" x="115.9" y="130.4" width="26.9" height="35.6"
			xmlns:xlink="http://www.w3.org/1999/xlink" xlink:href=""/>
		<rect id="e3r10p12" x="218" y="89.3" width="26.9" height="35.6"/>
		<image xmlns="http://www.w3.org/2000/svg" preserveAspectRatio="xMidYMid slice" id="e3r10p12" x="218" y="89.3" width="26.9" height="35.6"
			xmlns:xlink="http://www.w3.org/1999/xlink" xlink:href=""/>
		<rect id="e3r10p14" x="184" y="89.3" width="26.9" height="35.6"/>
		<image xmlns="http://www.w3.org/2000/svg" preserveAspectRatio="xMidYMid slice" id="e3r10p14" x="184" y="89.3" width="26.9" height="35.6"
			xmlns:xlink="http://www.w3.org/1999/xlink" xlink:href=""/>
		<rect id="e3r10p16" x="150" y="89.3" width="26.9" height="35.6"/>
		<image xmlns="http://www.w3.org/2000/svg" preserveAspectRatio="xMidYMid slice" id="e3r10p16" x="150" y="89.3" width="26.9" height="35.6"
			xmlns:xlink="http://www.w3.org/1999/xlink" xlink:href=""/>
		<rect id="e3r10p18" x="115.9" y="89.3" width="26.9" height="35.6"/>
		<image xmlns="http://www.w3.org/2000/svg" preserveAspectRatio="xMidYMid slice" id="e3r10p18" x="115.9" y="89.3" width="26.9" height="35.6"
			xmlns:xlink="http://www.w3.org/1999/xlink" xlink:href=""/>
	</g>
	<g class="st4">
		<rect id="e3r10p1" x="558.1" y="128.6" width="26.9" height="35.6"/>
		<image xmlns="http://www.w3.org/2000/svg" preserveAspectRatio="xMidYMid slice" id="e3r10p1" x="558.1" y="128.6" width="26.9" height="35.6"
			xmlns:xlink="http://www.w3.org/1999/xlink" xlink:href=""/>
		<rect id="e3r10p3" x="524.1" y="128.6" width="26.9" height="35.6"/>
		<image xmlns="http://www.w3.org/2000/svg" preserveAspectRatio="xMidYMid slice" id="e3r10p3" x="524.1" y="128.6" width="26.9" height="35.6"
			xmlns:xlink="http://www.w3.org/1999/xlink" xlink:href=""/>
		<rect id="e3r10p5" x="490.1" y="128.6" width="26.9" height="35.6"/>
		<image xmlns="http://www.w3.org/2000/svg" preserveAspectRatio="xMidYMid slice" id="e3r10p5" x="490.1" y="128.6" width="26.9" height="35.6"
			xmlns:xlink="http://www.w3.org/1999/xlink" xlink:href=""/>
		<rect id="e3r10p7" x="456" y="128.6" width="26.9" height="35.6"/>
		<image xmlns="http://www.w3.org/2000/svg" preserveAspectRatio="xMidYMid slice" id="e3r10p7" x="456" y="128.6" width="26.9" height="35.6"
			xmlns:xlink="http://www.w3.org/1999/xlink" xlink:href=""/>
		<rect id="e3r10p9" x="422" y="128.6" width="26.9" height="35.6"/>
		<image xmlns="http://www.w3.org/2000/svg" preserveAspectRatio="xMidYMid slice" id="e3r10p9" x="422" y="128.6" width="26.9" height="35.6"
			xmlns:xlink="http://www.w3.org/1999/xlink" xlink:href=""/>
		<rect id="e3r10p2" x="558.1" y="87.5" width="26.9" height="35.6"/>
		<image xmlns="http://www.w3.org/2000/svg" preserveAspectRatio="xMidYMid slice" id="e3r10p2" x="558.1" y="87.5" width="26.9" height="35.6"
			xmlns:xlink="http://www.w3.org/1999/xlink" xlink:href=""/>
		<rect id="e3r10p4" x="524.1" y="87.5" width="26.9" height="35.6"/>
		<image xmlns="http://www.w3.org/2000/svg" preserveAspectRatio="xMidYMid slice" id="e3r10p4" x="524.1" y="87.5" width="26.9" height="35.6"
			xmlns:xlink="http://www.w3.org/1999/xlink" xlink:href=""/>
		<rect id="e3r10p6" x="490.1" y="87.5" width="26.9" height="35.6"/>
		<image xmlns="http://www.w3.org/2000/svg" preserveAspectRatio="xMidYMid slice" id="e3r10p6" x="490.1" y="87.5" width="26.9" height="35.6"
			xmlns:xlink="http://www.w3.org/1999/xlink" xlink:href=""/>
		<rect id="e3r10p8" x="456" y="87.5" width="26.9" height="35.6"/>
		<image xmlns="http://www.w3.org/2000/svg" preserveAspectRatio="xMidYMid slice" id="e3r10p8" x="456" y="87.5" width="26.9" height="35.6"
			xmlns:xlink="http://www.w3.org/1999/xlink" xlink:href=""/>
		<rect id="e3r10p10" x="422" y="87.5" width="26.9" height="35.6"/>
		<image xmlns="http://www.w3.org/2000/svg" preserveAspectRatio="xMidYMid slice" id="e3r10p10" x="422" y="87.5" width="26.9" height="35.6"
			xmlns:xlink="http://www.w3.org/1999/xlink" xlink:href=""/>
	</g>
	<g class="st4">
		<rect id="e3r9p11" x="218" y="212.7" width="26.9" height="35.6"/>
		<image xmlns="http://www.w3.org/2000/svg" preserveAspectRatio="xMidYMid slice" id="e3r9p11" x="218" y="212.7" width="26.9" height="35.6"
			xmlns:xlink="http://www.w3.org/1999/xlink" xlink:href=""/>
		<rect id="e3r9p13" x="184" y="212.7" width="26.9" height="35.6"/>
		<image xmlns="http://www.w3.org/2000/svg" preserveAspectRatio="xMidYMid slice" id="e3r9p13" x="184" y="212.7" width="26.9" height="35.6"
			xmlns:xlink="http://www.w3.org/1999/xlink" xlink:href=""/>
		<rect id="e3r9p15" x="150" y="212.7" width="26.9" height="35.6"/>
		<image xmlns="http://www.w3.org/2000/svg" preserveAspectRatio="xMidYMid slice" id="e3r9p15" x="150" y="212.7" width="26.9" height="35.6"
			xmlns:xlink="http://www.w3.org/1999/xlink" xlink:href=""/>
		<rect id="e3r9p17" x="115.9" y="212.7" width="26.9" height="35.6"/>
		<image xmlns="http://www.w3.org/2000/svg" preserveAspectRatio="xMidYMid slice" id="e3r9p17" x="115.9" y="212.7" width="26.9" height="35.6"
			xmlns:xlink="http://www.w3.org/1999/xlink" xlink:href=""/>
		<rect id="e3r9p12" x="218" y="171.5" width="26.9" height="35.6"/>
		<image xmlns="http://www.w3.org/2000/svg" preserveAspectRatio="xMidYMid slice" id="e3r9p12" x="218" y="171.5" width="26.9" height="35.6"
			xmlns:xlink="http://www.w3.org/1999/xlink" xlink:href=""/>
		<rect id="e3r9p14" x="184" y="171.5" width="26.9" height="35.6"/>
		<image xmlns="http://www.w3.org/2000/svg" preserveAspectRatio="xMidYMid slice" id="e3r9p14" x="184" y="171.5" width="26.9" height="35.6"
			xmlns:xlink="http://www.w3.org/1999/xlink" xlink:href=""/>
		<rect id="e3r9p16" x="150" y="171.5" width="26.9" height="35.6"/>
		<image xmlns="http://www.w3.org/2000/svg" preserveAspectRatio="xMidYMid slice" id="e3r9p16" x="150" y="171.5" width="26.9" height="35.6"
			xmlns:xlink="http://www.w3.org/1999/xlink" xlink:href=""/>
		<rect id="e3r9p18" x="115.9" y="171.5" width="26.9" height="35.6"/>
		<image xmlns="http://www.w3.org/2000/svg" preserveAspectRatio="xMidYMid slice" id="e3r9p18" x="115.9" y="171.5" width="26.9" height="35.6"
			xmlns:xlink="http://www.w3.org/1999/xlink" xlink:href=""/>
	</g>
	<g class="st4">
		<rect id="e3r9p1" x="558.1" y="209.8" width="26.9" height="35.6"/>
		<image xmlns="http://www.w3.org/2000/svg" preserveAspectRatio="xMidYMid slice" id="e3r9p1" x="558.1" y="209.8" width="26.9" height="35.6"
			xmlns:xlink="http://www.w3.org/1999/xlink" xlink:href=""/>
		<rect id="e3r9p3" x="524.1" y="209.8" width="26.9" height="35.6"/>
		<image xmlns="http://www.w3.org/2000/svg" preserveAspectRatio="xMidYMid slice" id="e3r9p3" x="524.1" y="209.8" width="26.9" height="35.6"
			xmlns:xlink="http://www.w3.org/1999/xlink" xlink:href=""/>
		<rect id="e3r9p5" x="490.1" y="209.8" width="26.9" height="35.6"/>
		<image xmlns="http://www.w3.org/2000/svg" preserveAspectRatio="xMidYMid slice" id="e3r9p5" x="490.1" y="209.8" width="26.9" height="35.6"
			xmlns:xlink="http://www.w3.org/1999/xlink" xlink:href=""/>
		<rect id="e3r9p7" x="456" y="209.8" width="26.9" height="35.6"/>
		<image xmlns="http://www.w3.org/2000/svg" preserveAspectRatio="xMidYMid slice" id="e3r9p7" x="456" y="209.8" width="26.9" height="35.6"
			xmlns:xlink="http://www.w3.org/1999/xlink" xlink:href=""/>
		<rect id="e3r9p9" x="422" y="209.8" width="26.9" height="35.6"/>
		<image xmlns="http://www.w3.org/2000/svg" preserveAspectRatio="xMidYMid slice" id="e3r9p9" x="422" y="209.8" width="26.9" height="35.6"
			xmlns:xlink="http://www.w3.org/1999/xlink" xlink:href=""/>
		<rect id="e3r9p2" x="558.1" y="168.7" width="26.9" height="35.6"/>
		<image xmlns="http://www.w3.org/2000/svg" preserveAspectRatio="xMidYMid slice" id="e3r9p2" x="558.1" y="168.7" width="26.9" height="35.6"
			xmlns:xlink="http://www.w3.org/1999/xlink" xlink:href=""/>
		<rect id="e3r9p4" x="524.1" y="168.7" width="26.9" height="35.6"/>
		<image xmlns="http://www.w3.org/2000/svg" preserveAspectRatio="xMidYMid slice" id="e3r9p4" x="524.1" y="168.7" width="26.9" height="35.6"
			xmlns:xlink="http://www.w3.org/1999/xlink" xlink:href=""/>
		<rect id="e3r9p6" x="490.1" y="168.7" width="26.9" height="35.6"/>
		<image xmlns="http://www.w3.org/2000/svg" preserveAspectRatio="xMidYMid slice" id="e3r9p6" x="490.1" y="168.7" width="26.9" height="35.6"
			xmlns:xlink="http://www.w3.org/1999/xlink" xlink:href=""/>
		<rect id="e3r9p8" x="456" y="168.7" width="26.9" height="35.6"/>
		<image xmlns="http://www.w3.org/2000/svg" preserveAspectRatio="xMidYMid slice" id="e3r9p8" x="456" y="168.7" width="26.9" height="35.6"
			xmlns:xlink="http://www.w3.org/1999/xlink" xlink:href=""/>
		<rect id="e3r9p10" x="422" y="168.7" width="26.9" height="35.6"/>
		<image xmlns="http://www.w3.org/2000/svg" preserveAspectRatio="xMidYMid slice" id="e3r9p10" x="422" y="168.7" width="26.9" height="35.6"
			xmlns:xlink="http://www.w3.org/1999/xlink" xlink:href=""/>
	</g>
	<g class="st4">
		<rect id="e3r8p11" x="218" y="292.2" width="26.9" height="35.6"/>
		<image xmlns="http://www.w3.org/2000/svg" preserveAspectRatio="xMidYMid slice" id="e3r8p11" x="218" y="292.2" width="26.9" height="35.6"
			xmlns:xlink="http://www.w3.org/1999/xlink" xlink:href=""/>
		<rect id="e3r8p13" x="184" y="292.2" width="26.9" height="35.6"/>
		<image xmlns="http://www.w3.org/2000/svg" preserveAspectRatio="xMidYMid slice" id="e3r8p13" x="184" y="292.2" width="26.9" height="35.6"
			xmlns:xlink="http://www.w3.org/1999/xlink" xlink:href=""/>
		<rect id="e3r8p15" x="150" y="292.2" width="26.9" height="35.6"/>
		<image xmlns="http://www.w3.org/2000/svg" preserveAspectRatio="xMidYMid slice" id="e3r8p15" x="150" y="292.2" width="26.9" height="35.6"
			xmlns:xlink="http://www.w3.org/1999/xlink" xlink:href=""/>
		<rect id="e3r8p17" x="115.9" y="292.2" width="26.9" height="35.6"/>
		<image xmlns="http://www.w3.org/2000/svg" preserveAspectRatio="xMidYMid slice" id="e3r8p17" x="115.9" y="292.2" width="26.9" height="35.6"
			xmlns:xlink="http://www.w3.org/1999/xlink" xlink:href=""/>
		<rect id="e3r8p12" x="218" y="251" width="26.9" height="35.6"/>
		<image xmlns="http://www.w3.org/2000/svg" preserveAspectRatio="xMidYMid slice" id="e3r8p12" x="218" y="251" width="26.9" height="35.6"
			xmlns:xlink="http://www.w3.org/1999/xlink" xlink:href=""/>
		<rect id="e3r8p14" x="184" y="251" width="26.9" height="35.6"/>
		<image xmlns="http://www.w3.org/2000/svg" preserveAspectRatio="xMidYMid slice" id="e3r8p14" x="184" y="251" width="26.9" height="35.6"
			xmlns:xlink="http://www.w3.org/1999/xlink" xlink:href=""/>
		<rect id="e3r8p16" x="150" y="251" width="26.9" height="35.6"/>
		<image xmlns="http://www.w3.org/2000/svg" preserveAspectRatio="xMidYMid slice" id="e3r8p16" x="150" y="251" width="26.9" height="35.6"
			xmlns:xlink="http://www.w3.org/1999/xlink" xlink:href=""/>
		<rect id="e3r8p18" x="115.9" y="251" width="26.9" height="35.6"/>
		<image xmlns="http://www.w3.org/2000/svg" preserveAspectRatio="xMidYMid slice" id="e3r8p18" x="115.9" y="251" width="26.9" height="35.6"
			xmlns:xlink="http://www.w3.org/1999/xlink" xlink:href=""/>
	</g>
	<g class="st4">
		<rect id="e3r8p1" x="558.1" y="293.3" width="26.9" height="35.6"/>
		<image xmlns="http://www.w3.org/2000/svg" preserveAspectRatio="xMidYMid slice" id="e3r8p1" x="558.1" y="293.3" width="26.9" height="35.6"
			xmlns:xlink="http://www.w3.org/1999/xlink" xlink:href=""/>
		<rect id="e3r8p3" x="524.1" y="293.3" width="26.9" height="35.6"/>
		<image xmlns="http://www.w3.org/2000/svg" preserveAspectRatio="xMidYMid slice" id="e3r8p3" x="524.1" y="293.3" width="26.9" height="35.6"
			xmlns:xlink="http://www.w3.org/1999/xlink" xlink:href=""/>
		<rect id="e3r8p5" x="490.1" y="293.3" width="26.9" height="35.6"/>
		<image xmlns="http://www.w3.org/2000/svg" preserveAspectRatio="xMidYMid slice" id="e3r8p5" x="490.1" y="293.3" width="26.9" height="35.6"
			xmlns:xlink="http://www.w3.org/1999/xlink" xlink:href=""/>
		<rect id="e3r8p7" x="456" y="293.3" width="26.9" height="35.6"/>
		<image xmlns="http://www.w3.org/2000/svg" preserveAspectRatio="xMidYMid slice" id="e3r8p7" x="456" y="293.3" width="26.9" height="35.6"
			xmlns:xlink="http://www.w3.org/1999/xlink" xlink:href=""/>
		<rect id="e3r8p9" x="422" y="293.3" width="26.9" height="35.6"/>
		<image xmlns="http://www.w3.org/2000/svg" preserveAspectRatio="xMidYMid slice" id="e3r8p9" x="422" y="293.3" width="26.9" height="35.6"
			xmlns:xlink="http://www.w3.org/1999/xlink" xlink:href=""/>
		<rect id="e3r8p2" x="558.1" y="252.1" width="26.9" height="35.6"/>
		<image xmlns="http://www.w3.org/2000/svg" preserveAspectRatio="xMidYMid slice" id="e3r8p2" x="558.1" y="252.1" width="26.9" height="35.6"
			xmlns:xlink="http://www.w3.org/1999/xlink" xlink:href=""/>
		<rect id="e3r8p4" x="524.1" y="252.1" width="26.9" height="35.6"/>
		<image xmlns="http://www.w3.org/2000/svg" preserveAspectRatio="xMidYMid slice" id="e3r8p4" x="524.1" y="252.1" width="26.9" height="35.6"
			xmlns:xlink="http://www.w3.org/1999/xlink" xlink:href=""/>
		<rect id="e3r8p6" x="490.1" y="252.1" width="26.9" height="35.6"/>
		<image xmlns="http://www.w3.org/2000/svg" preserveAspectRatio="xMidYMid slice" id="e3r8p6" x="490.1" y="252.1" width="26.9" height="35.6"
			xmlns:xlink="http://www.w3.org/1999/xlink" xlink:href=""/>
		<rect id="e3r8p8" x="456" y="252.1" width="26.9" height="35.6"/>
		<image xmlns="http://www.w3.org/2000/svg" preserveAspectRatio="xMidYMid slice" id="e3r8p8" x="456" y="252.1" width="26.9" height="35.6"
			xmlns:xlink="http://www.w3.org/1999/xlink" xlink:href=""/>
		<rect id="e3r8p10" x="422" y="252.1" width="26.9" height="35.6"/>
		<image xmlns="http://www.w3.org/2000/svg" preserveAspectRatio="xMidYMid slice" id="e3r8p10" x="422" y="252.1" width="26.9" height="35.6"
			xmlns:xlink="http://www.w3.org/1999/xlink" xlink:href=""/>
	</g>
	<g class="st4">
		<rect id="e3r7p11" x="218" y="372.5" width="26.9" height="35.6"/>
		<image xmlns="http://www.w3.org/2000/svg" preserveAspectRatio="xMidYMid slice" id="e3r7p11" x="218" y="372.5" width="26.9" height="35.6"
			xmlns:xlink="http://www.w3.org/1999/xlink" xlink:href=""/>
		<rect id="e3r7p13" x="184" y="372.5" width="26.9" height="35.6"/>
		<image xmlns="http://www.w3.org/2000/svg" preserveAspectRatio="xMidYMid slice" id="e3r7p13" x="184" y="372.5" width="26.9" height="35.6"
			xmlns:xlink="http://www.w3.org/1999/xlink" xlink:href=""/>
		<rect id="e3r7p15" x="150" y="372.5" width="26.9" height="35.6"/>
		<image xmlns="http://www.w3.org/2000/svg" preserveAspectRatio="xMidYMid slice" id="e3r7p15" x="150" y="372.5" width="26.9" height="35.6"
			xmlns:xlink="http://www.w3.org/1999/xlink" xlink:href=""/>
		<rect id="e3r7p17" x="115.9" y="372.5" width="26.9" height="35.6"/>
		<image xmlns="http://www.w3.org/2000/svg" preserveAspectRatio="xMidYMid slice" id="e3r7p17" x="115.9" y="372.5" width="26.9" height="35.6"
			xmlns:xlink="http://www.w3.org/1999/xlink" xlink:href=""/>
		<rect id="e3r7p12" x="218" y="331.4" width="26.9" height="35.6"/>
		<image xmlns="http://www.w3.org/2000/svg" preserveAspectRatio="xMidYMid slice" id="e3r7p12" x="218" y="331.4" width="26.9" height="35.6"
			xmlns:xlink="http://www.w3.org/1999/xlink" xlink:href=""/>
		<rect id="e3r7p14" x="184" y="331.4" width="26.9" height="35.6"/>
		<image xmlns="http://www.w3.org/2000/svg" preserveAspectRatio="xMidYMid slice" id="e3r7p14" x="184" y="331.4" width="26.9" height="35.6"
			xmlns:xlink="http://www.w3.org/1999/xlink" xlink:href=""/>
		<rect id="e3r7p16" x="150" y="331.4" width="26.9" height="35.6"/>
		<image xmlns="http://www.w3.org/2000/svg" preserveAspectRatio="xMidYMid slice" id="e3r7p16" x="150" y="331.4" width="26.9" height="35.6"
			xmlns:xlink="http://www.w3.org/1999/xlink" xlink:href=""/>
		<rect id="e3r7p18" x="115.9" y="331.4" width="26.9" height="35.6"/>
		<image xmlns="http://www.w3.org/2000/svg" preserveAspectRatio="xMidYMid slice" id="e3r7p18" x="115.9" y="331.4" width="26.9" height="35.6"
			xmlns:xlink="http://www.w3.org/1999/xlink" xlink:href=""/>
	</g>
	<g class="st4">
		<rect id="e3r7p1" x="558.1" y="373.5" width="26.9" height="35.6"/>
		<image xmlns="http://www.w3.org/2000/svg" preserveAspectRatio="xMidYMid slice" id="e3r7p1" x="558.1" y="373.5" width="26.9" height="35.6"
			xmlns:xlink="http://www.w3.org/1999/xlink" xlink:href=""/>
		<rect id="e3r7p3" x="524.1" y="373.5" width="26.9" height="35.6"/>
		<image xmlns="http://www.w3.org/2000/svg" preserveAspectRatio="xMidYMid slice" id="e3r7p3" x="524.1" y="373.5" width="26.9" height="35.6"
			xmlns:xlink="http://www.w3.org/1999/xlink" xlink:href=""/>
		<rect id="e3r7p5" x="490.1" y="373.5" width="26.9" height="35.6"/>
		<image xmlns="http://www.w3.org/2000/svg" preserveAspectRatio="xMidYMid slice" id="e3r7p5" x="490.1" y="373.5" width="26.9" height="35.6"
			xmlns:xlink="http://www.w3.org/1999/xlink" xlink:href=""/>
		<rect id="e3r7p7" x="456" y="373.5" width="26.9" height="35.6"/>
		<image xmlns="http://www.w3.org/2000/svg" preserveAspectRatio="xMidYMid slice" id="e3r7p7" x="456" y="373.5" width="26.9" height="35.6"
			xmlns:xlink="http://www.w3.org/1999/xlink" xlink:href=""/>
		<rect id="e3r7p9" x="422" y="373.5" width="26.9" height="35.6"/>
		<image xmlns="http://www.w3.org/2000/svg" preserveAspectRatio="xMidYMid slice" id="e3r7p9" x="422" y="373.5" width="26.9" height="35.6"
			xmlns:xlink="http://www.w3.org/1999/xlink" xlink:href=""/>
		<rect id="e3r7p2" x="558.1" y="332.3" width="26.9" height="35.6"/>
		<image xmlns="http://www.w3.org/2000/svg" preserveAspectRatio="xMidYMid slice" id="e3r7p2" x="558.1" y="332.3" width="26.9" height="35.6"
			xmlns:xlink="http://www.w3.org/1999/xlink" xlink:href=""/>
		<rect id="e3r7p4" x="524.1" y="332.3" width="26.9" height="35.6"/>
		<image xmlns="http://www.w3.org/2000/svg" preserveAspectRatio="xMidYMid slice" id="e3r7p4" x="524.1" y="332.3" width="26.9" height="35.6"
			xmlns:xlink="http://www.w3.org/1999/xlink" xlink:href=""/>
		<rect id="e3r7p6" x="490.1" y="332.3" width="26.9" height="35.6"/>
		<image xmlns="http://www.w3.org/2000/svg" preserveAspectRatio="xMidYMid slice" id="e3r7p6" x="490.1" y="332.3" width="26.9" height="35.6"
			xmlns:xlink="http://www.w3.org/1999/xlink" xlink:href=""/>
		<rect id="e3r7p8" x="456" y="332.3" width="26.9" height="35.6"/>
		<image xmlns="http://www.w3.org/2000/svg" preserveAspectRatio="xMidYMid slice" id="e3r7p8" x="456" y="332.3" width="26.9" height="35.6"
			xmlns:xlink="http://www.w3.org/1999/xlink" xlink:href=""/>
		<rect id="e3r7p10" x="422" y="332.3" width="26.9" height="35.6"/>
		<image xmlns="http://www.w3.org/2000/svg" preserveAspectRatio="xMidYMid slice" id="e3r7p10" x="422" y="332.3" width="26.9" height="35.6"
			xmlns:xlink="http://www.w3.org/1999/xlink" xlink:href=""/>
	</g>
	<g class="st4">
		<rect id="e3r6p1" x="537.7" y="454.8" width="26.9" height="35.6"/>
		<image xmlns="http://www.w3.org/2000/svg" preserveAspectRatio="xMidYMid slice" id="e3r6p1" x="537.7" y="454.8" width="26.9" height="35.6"
			xmlns:xlink="http://www.w3.org/1999/xlink" xlink:href=""/>
		<rect id="e3r6p3" x="503.7" y="454.8" width="26.9" height="35.6"/>
		<image xmlns="http://www.w3.org/2000/svg" preserveAspectRatio="xMidYMid slice" id="e3r6p3" x="503.7" y="454.8" width="26.9" height="35.6"
			xmlns:xlink="http://www.w3.org/1999/xlink" xlink:href=""/>
		<rect id="e3r6p5" x="469.6" y="454.8" width="26.9" height="35.6"/>
		<image xmlns="http://www.w3.org/2000/svg" preserveAspectRatio="xMidYMid slice" id="e3r6p5" x="469.6" y="454.8" width="26.9" height="35.6"
			xmlns:xlink="http://www.w3.org/1999/xlink" xlink:href=""/>
		<rect id="e3r6p7" x="435.6" y="454.8" width="26.9" height="35.6"/>
		<image xmlns="http://www.w3.org/2000/svg" preserveAspectRatio="xMidYMid slice" id="e3r6p7" x="435.6" y="454.8" width="26.9" height="35.6"
			xmlns:xlink="http://www.w3.org/1999/xlink" xlink:href=""/>
		<rect id="e3r6p2" x="537.7" y="413.6" width="26.9" height="35.6"/>
		<image xmlns="http://www.w3.org/2000/svg" preserveAspectRatio="xMidYMid slice" id="e3r6p2" x="537.7" y="413.6" width="26.9" height="35.6"
			xmlns:xlink="http://www.w3.org/1999/xlink" xlink:href=""/>
		<rect id="e3r6p4" x="503.7" y="413.6" width="26.9" height="35.6"/>
		<image xmlns="http://www.w3.org/2000/svg" preserveAspectRatio="xMidYMid slice" id="e3r6p4" x="503.7" y="413.6" width="26.9" height="35.6"
			xmlns:xlink="http://www.w3.org/1999/xlink" xlink:href=""/>
		<rect id="e3r6p6" x="469.6" y="413.6" width="26.9" height="35.6"/>
		<image xmlns="http://www.w3.org/2000/svg" preserveAspectRatio="xMidYMid slice" id="e3r6p6" x="469.6" y="413.6" width="26.9" height="35.6"
			xmlns:xlink="http://www.w3.org/1999/xlink" xlink:href=""/>
		<rect id="e3r6p8" x="435.6" y="413.6" width="26.9" height="35.6"/>
		<image xmlns="http://www.w3.org/2000/svg" preserveAspectRatio="xMidYMid slice" id="e3r6p8" x="435.6" y="413.6" width="26.9" height="35.6"
			xmlns:xlink="http://www.w3.org/1999/xlink" xlink:href=""/>
	</g>
	<g class="st4">
		<rect id="e3r5p1" x="537.7" y="535.5" width="26.9" height="35.6"/>
		<image xmlns="http://www.w3.org/2000/svg" preserveAspectRatio="xMidYMid slice" id="e3r5p1" x="537.7" y="535.5" width="26.9" height="35.6"
			xmlns:xlink="http://www.w3.org/1999/xlink" xlink:href=""/>
		<rect id="e3r5p3" x="503.7" y="535.5" width="26.9" height="35.6"/>
		<image xmlns="http://www.w3.org/2000/svg" preserveAspectRatio="xMidYMid slice" id="e3r5p3" x="503.7" y="535.5" width="26.9" height="35.6"
			xmlns:xlink="http://www.w3.org/1999/xlink" xlink:href=""/>
		<rect id="e3r5p5" x="469.6" y="535.5" width="26.9" height="35.6"/>
		<image xmlns="http://www.w3.org/2000/svg" preserveAspectRatio="xMidYMid slice" id="e3r5p5" x="469.6" y="535.5" width="26.9" height="35.6"
			xmlns:xlink="http://www.w3.org/1999/xlink" xlink:href=""/>
		<rect id="e3r5p7" x="435.6" y="535.5" width="26.9" height="35.6"/>
		<image xmlns="http://www.w3.org/2000/svg" preserveAspectRatio="xMidYMid slice" id="e3r5p7" x="435.6" y="535.5" width="26.9" height="35.6"
			xmlns:xlink="http://www.w3.org/1999/xlink" xlink:href=""/>
		<rect id="e3r5p2" x="537.7" y="494.4" width="26.9" height="35.6"/>
		<image xmlns="http://www.w3.org/2000/svg" preserveAspectRatio="xMidYMid slice" id="e3r5p2" x="537.7" y="494.4" width="26.9" height="35.6"
			xmlns:xlink="http://www.w3.org/1999/xlink" xlink:href=""/>
		<rect id="e3r5p4" x="503.7" y="494.4" width="26.9" height="35.6"/>
		<image xmlns="http://www.w3.org/2000/svg" preserveAspectRatio="xMidYMid slice" id="e3r5p4" x="503.7" y="494.4" width="26.9" height="35.6"
			xmlns:xlink="http://www.w3.org/1999/xlink" xlink:href=""/>
		<rect id="e3r5p6" x="469.6" y="494.4" width="26.9" height="35.6"/>
		<image xmlns="http://www.w3.org/2000/svg" preserveAspectRatio="xMidYMid slice" id="e3r5p6" x="469.6" y="494.4" width="26.9" height="35.6"
			xmlns:xlink="http://www.w3.org/1999/xlink" xlink:href=""/>
		<rect id="e3r5p8" x="435.6" y="494.4" width="26.9" height="35.6"/>
		<image xmlns="http://www.w3.org/2000/svg" preserveAspectRatio="xMidYMid slice" id="e3r5p8" x="435.6" y="494.4" width="26.9" height="35.6"
			xmlns:xlink="http://www.w3.org/1999/xlink" xlink:href=""/>
	</g>
	<g class="st4">
		<rect id="e3r4p9" x="215.4" y="614.5" width="26.9" height="35.6"/>
		<image xmlns="http://www.w3.org/2000/svg" preserveAspectRatio="xMidYMid slice" id="e3r4p9" x="215.4" y="614.5" width="26.9" height="35.6"
			xmlns:xlink="http://www.w3.org/1999/xlink" xlink:href=""/>
		<rect id="e3r4p11" x="181.4" y="614.5" width="26.9" height="35.6"/>
		<image xmlns="http://www.w3.org/2000/svg" preserveAspectRatio="xMidYMid slice" id="e3r4p11" x="181.4" y="614.5" width="26.9" height="35.6"
			xmlns:xlink="http://www.w3.org/1999/xlink" xlink:href=""/>
		<rect id="e3r4p13" x="147.4" y="614.5" width="26.9" height="35.6"/>
		<image xmlns="http://www.w3.org/2000/svg" preserveAspectRatio="xMidYMid slice" id="e3r4p13" x="147.4" y="614.5" width="26.9" height="35.6"
			xmlns:xlink="http://www.w3.org/1999/xlink" xlink:href=""/>
		<rect id="e3r4p15" x="113.4" y="614.5" width="26.9" height="35.6"/>
		<image xmlns="http://www.w3.org/2000/svg" preserveAspectRatio="xMidYMid slice" id="e3r4p15" x="113.4" y="614.5" width="26.9" height="35.6"
			xmlns:xlink="http://www.w3.org/1999/xlink" xlink:href=""/>
		<!-- <rect id="e3r4p17" x="113.4" y="614.5" width="26.9" height="35.6"/>
		<image xmlns="http://www.w3.org/2000/svg" preserveAspectRatio="xMidYMid slice" id="e3r4p17" x="113.4" y="614.5" width="26.9" height="35.6"
			xmlns:xlink="http://www.w3.org/1999/xlink" xlink:href=""/> -->
		<rect id="e3r4p10" x="215.4" y="573.4" width="26.9" height="35.6"/>
		<image xmlns="http://www.w3.org/2000/svg" preserveAspectRatio="xMidYMid slice" id="e3r4p10" x="215.4" y="573.4" width="26.9" height="35.6"
			xmlns:xlink="http://www.w3.org/1999/xlink" xlink:href=""/>
		<rect id="e3r4p12" x="181.4" y="573.4" width="26.9" height="35.6"/>
		<image xmlns="http://www.w3.org/2000/svg" preserveAspectRatio="xMidYMid slice" id="e3r4p12" x="181.4" y="573.4" width="26.9" height="35.6"
			xmlns:xlink="http://www.w3.org/1999/xlink" xlink:href=""/>
		<rect id="e3r4p14" x="147.4" y="573.4" width="26.9" height="35.6"/>
		<image xmlns="http://www.w3.org/2000/svg" preserveAspectRatio="xMidYMid slice" id="e3r4p14" x="147.4" y="573.4" width="26.9" height="35.6"
			xmlns:xlink="http://www.w3.org/1999/xlink" xlink:href=""/>
		<rect id="e3r4p16" x="113.4" y="573.4" width="26.9" height="35.6"/>
		<image xmlns="http://www.w3.org/2000/svg" preserveAspectRatio="xMidYMid slice" id="e3r4p16" x="113.4" y="573.4" width="26.9" height="35.6"
			xmlns:xlink="http://www.w3.org/1999/xlink" xlink:href=""/>
		<!-- <rect id="e3r4p18" x="113.4" y="573.4" width="26.9" height="35.6"/>
		<image xmlns="http://www.w3.org/2000/svg" preserveAspectRatio="xMidYMid slice" id="e3r4p18" x="113.4" y="573.4" width="26.9" height="35.6"
			xmlns:xlink="http://www.w3.org/1999/xlink" xlink:href=""/> -->
	</g>
	<g class="st4">
		<rect id="e3r4p1" x="537.7" y="616.6" width="26.9" height="35.6"/>
		<image xmlns="http://www.w3.org/2000/svg" preserveAspectRatio="xMidYMid slice" id="e3r4p1" x="537.7" y="616.6" width="26.9" height="35.6"
			xmlns:xlink="http://www.w3.org/1999/xlink" xlink:href=""/>
		<rect id="e3r4p3" x="503.7" y="616.6" width="26.9" height="35.6"/>
		<image xmlns="http://www.w3.org/2000/svg" preserveAspectRatio="xMidYMid slice" id="e3r4p3" x="503.7" y="616.6" width="26.9" height="35.6"
			xmlns:xlink="http://www.w3.org/1999/xlink" xlink:href=""/>
		<rect id="e3r4p5" x="469.6" y="616.6" width="26.9" height="35.6"/>
		<image xmlns="http://www.w3.org/2000/svg" preserveAspectRatio="xMidYMid slice" id="e3r4p5" x="469.6" y="616.6" width="26.9" height="35.6"
			xmlns:xlink="http://www.w3.org/1999/xlink" xlink:href=""/>
		<rect id="e3r4p7" x="435.6" y="616.6" width="26.9" height="35.6"/>
		<image xmlns="http://www.w3.org/2000/svg" preserveAspectRatio="xMidYMid slice" id="e3r4p7" x="435.6" y="616.6" width="26.9" height="35.6"
			xmlns:xlink="http://www.w3.org/1999/xlink" xlink:href=""/>
		<rect id="e3r4p2" x="537.7" y="575.4" width="26.9" height="35.6"/>
		<image xmlns="http://www.w3.org/2000/svg" preserveAspectRatio="xMidYMid slice" id="e3r4p2" x="537.7" y="575.4" width="26.9" height="35.6"
			xmlns:xlink="http://www.w3.org/1999/xlink" xlink:href=""/>
		<rect id="e3r4p4" x="503.7" y="575.4" width="26.9" height="35.6"/>
		<image xmlns="http://www.w3.org/2000/svg" preserveAspectRatio="xMidYMid slice" id="e3r4p4" x="503.7" y="575.4" width="26.9" height="35.6"
			xmlns:xlink="http://www.w3.org/1999/xlink" xlink:href=""/>
		<rect id="e3r4p6" x="469.6" y="575.4" width="26.9" height="35.6"/>
		<image xmlns="http://www.w3.org/2000/svg" preserveAspectRatio="xMidYMid slice" id="e3r4p6" x="469.6" y="575.4" width="26.9" height="35.6"
			xmlns:xlink="http://www.w3.org/1999/xlink" xlink:href=""/>
		<rect id="e3r4p8" x="435.6" y="575.4" width="26.9" height="35.6"/>
		<image xmlns="http://www.w3.org/2000/svg" preserveAspectRatio="xMidYMid slice" id="e3r4p8" x="435.6" y="575.4" width="26.9" height="35.6"
			xmlns:xlink="http://www.w3.org/1999/xlink" xlink:href=""/>
	</g>
	<g class="st4">
		<rect id="e3r3p11" x="215.4" y="697.8" width="26.9" height="35.6"/>
		<image xmlns="http://www.w3.org/2000/svg" preserveAspectRatio="xMidYMid slice" id="e3r3p11" x="215.4" y="697.8" width="26.9" height="35.6"
			xmlns:xlink="http://www.w3.org/1999/xlink" xlink:href=""/>
		<rect id="e3r3p13" x="181.4" y="697.8" width="26.9" height="35.6"/>
		<image xmlns="http://www.w3.org/2000/svg" preserveAspectRatio="xMidYMid slice" id="e3r3p13" x="181.4" y="697.8" width="26.9" height="35.6"
			xmlns:xlink="http://www.w3.org/1999/xlink" xlink:href=""/>
		<rect id="e3r3p15" x="147.4" y="697.8" width="26.9" height="35.6"/>
		<image xmlns="http://www.w3.org/2000/svg" preserveAspectRatio="xMidYMid slice" id="e3r3p15" x="147.4" y="697.8" width="26.9" height="35.6"
			xmlns:xlink="http://www.w3.org/1999/xlink" xlink:href=""/>
		<rect id="e3r3p17" x="113.4" y="697.8" width="26.9" height="35.6"/>
		<image xmlns="http://www.w3.org/2000/svg" preserveAspectRatio="xMidYMid slice" id="e3r3p17" x="113.4" y="697.8" width="26.9" height="35.6"
			xmlns:xlink="http://www.w3.org/1999/xlink" xlink:href=""/>
		<rect id="e3r3p12" x="215.4" y="656.7" width="26.9" height="35.6"/>
		<image xmlns="http://www.w3.org/2000/svg" preserveAspectRatio="xMidYMid slice" id="e3r3p12" x="215.4" y="656.7" width="26.9" height="35.6"
			xmlns:xlink="http://www.w3.org/1999/xlink" xlink:href=""/>
		<rect id="e3r3p14" x="181.4" y="656.7" width="26.9" height="35.6"/>
		<image xmlns="http://www.w3.org/2000/svg" preserveAspectRatio="xMidYMid slice" id="e3r3p14" x="181.4" y="656.7" width="26.9" height="35.6"
			xmlns:xlink="http://www.w3.org/1999/xlink" xlink:href=""/>
		<rect id="e3r3p16" x="147.4" y="656.7" width="26.9" height="35.6"/>
		<image xmlns="http://www.w3.org/2000/svg" preserveAspectRatio="xMidYMid slice" id="e3r3p16" x="147.4" y="656.7" width="26.9" height="35.6"
			xmlns:xlink="http://www.w3.org/1999/xlink" xlink:href=""/>
		<rect id="e3r3p18" x="113.4" y="656.7" width="26.9" height="35.6"/>
		<image xmlns="http://www.w3.org/2000/svg" preserveAspectRatio="xMidYMid slice" id="e3r3p18" x="113.4" y="656.7" width="26.9" height="35.6"
			xmlns:xlink="http://www.w3.org/1999/xlink" xlink:href=""/>
	</g>
	<g class="st4">
		<rect id="e3r3p1" x="558.1" y="697.8" width="26.9" height="35.6"/>
		<image xmlns="http://www.w3.org/2000/svg" preserveAspectRatio="xMidYMid slice" id="e3r3p1" x="558.1" y="697.8" width="26.9" height="35.6"
			xmlns:xlink="http://www.w3.org/1999/xlink" xlink:href=""/>
		<rect id="e3r3p3" x="524.1" y="697.8" width="26.9" height="35.6"/>
		<image xmlns="http://www.w3.org/2000/svg" preserveAspectRatio="xMidYMid slice" id="e3r3p3" x="524.1" y="697.8" width="26.9" height="35.6"
			xmlns:xlink="http://www.w3.org/1999/xlink" xlink:href=""/>
		<rect id="e3r3p5" x="490.1" y="697.8" width="26.9" height="35.6"/>
		<image xmlns="http://www.w3.org/2000/svg" preserveAspectRatio="xMidYMid slice" id="e3r3p5" x="490.1" y="697.8" width="26.9" height="35.6"
			xmlns:xlink="http://www.w3.org/1999/xlink" xlink:href=""/>
		<rect id="e3r3p7" x="456" y="697.8" width="26.9" height="35.6"/>
		<image xmlns="http://www.w3.org/2000/svg" preserveAspectRatio="xMidYMid slice" id="e3r3p7" x="456" y="697.8" width="26.9" height="35.6"
			xmlns:xlink="http://www.w3.org/1999/xlink" xlink:href=""/>
		<rect id="e3r3p9" x="422" y="697.8" width="26.9" height="35.6"/>
		<image xmlns="http://www.w3.org/2000/svg" preserveAspectRatio="xMidYMid slice" id="e3r3p9" x="422" y="697.8" width="26.9" height="35.6"
			xmlns:xlink="http://www.w3.org/1999/xlink" xlink:href=""/>
		<rect id="e3r3p2" x="558.1" y="656.7" width="26.9" height="35.6"/>
		<image xmlns="http://www.w3.org/2000/svg" preserveAspectRatio="xMidYMid slice" id="e3r3p2" x="558.1" y="656.7" width="26.9" height="35.6"
			xmlns:xlink="http://www.w3.org/1999/xlink" xlink:href=""/>
		<rect id="e3r3p4" x="524.1" y="656.7" width="26.9" height="35.6"/>
		<image xmlns="http://www.w3.org/2000/svg" preserveAspectRatio="xMidYMid slice" id="e3r3p4" x="524.1" y="656.7" width="26.9" height="35.6"
			xmlns:xlink="http://www.w3.org/1999/xlink" xlink:href=""/>
		<rect id="e3r3p6" x="490.1" y="656.7" width="26.9" height="35.6"/>
		<image xmlns="http://www.w3.org/2000/svg" preserveAspectRatio="xMidYMid slice" id="e3r3p6" x="490.1" y="656.7" width="26.9" height="35.6"
			xmlns:xlink="http://www.w3.org/1999/xlink" xlink:href=""/>
		<rect id="e3r3p8" x="456" y="656.7" width="26.9" height="35.6"/>
		<image xmlns="http://www.w3.org/2000/svg" preserveAspectRatio="xMidYMid slice" id="e3r3p8" x="456" y="656.7" width="26.9" height="35.6"
			xmlns:xlink="http://www.w3.org/1999/xlink" xlink:href=""/>
		<rect id="e3r3p10" x="422" y="656.7" width="26.9" height="35.6"/>
		<image xmlns="http://www.w3.org/2000/svg" preserveAspectRatio="xMidYMid slice" id="e3r3p10" x="422" y="656.7" width="26.9" height="35.6"
			xmlns:xlink="http://www.w3.org/1999/xlink" xlink:href=""/>
	</g>
	<g class="st4">
		<rect id="e3r2p11" x="215.4" y="779.2" width="26.9" height="35.6"/>
		<image xmlns="http://www.w3.org/2000/svg" preserveAspectRatio="xMidYMid slice" id="e3r2p11" x="215.4" y="779.2" width="26.9" height="35.6"
			xmlns:xlink="http://www.w3.org/1999/xlink" xlink:href=""/>
		<rect id="e3r2p13" x="181.4" y="779.2" width="26.9" height="35.6"/>
		<image xmlns="http://www.w3.org/2000/svg" preserveAspectRatio="xMidYMid slice" id="e3r2p13" x="181.4" y="779.2" width="26.9" height="35.6"
			xmlns:xlink="http://www.w3.org/1999/xlink" xlink:href=""/>
		<rect id="e3r2p15" x="147.4" y="779.2" width="26.9" height="35.6"/>
		<image xmlns="http://www.w3.org/2000/svg" preserveAspectRatio="xMidYMid slice" id="e3r2p15" x="147.4" y="779.2" height="35.6" width="26.9"
			xmlns:xlink="http://www.w3.org/1999/xlink" xlink:href=""/>
		<rect id="e3r2p17" x="113.4" y="779.2" width="26.9" height="35.6"/>
		<image xmlns="http://www.w3.org/2000/svg" preserveAspectRatio="xMidYMid slice" id="e3r2p17" x="113.4" y="779.2" width="26.9" height="35.6"
			xmlns:xlink="http://www.w3.org/1999/xlink" xlink:href=""/>
		<rect id="e3r2p12" x="215.4" y="738" width="26.9" height="35.6"/>
		<image xmlns="http://www.w3.org/2000/svg" preserveAspectRatio="xMidYMid slice" id="e3r2p12" x="215.4" y="738" width="26.9" height="35.6"
			xmlns:xlink="http://www.w3.org/1999/xlink" xlink:href=""/>
		<rect id="e3r2p14" x="181.4" y="738" width="26.9" height="35.6"/>
		<image xmlns="http://www.w3.org/2000/svg" preserveAspectRatio="xMidYMid slice" id="e3r2p14" x="181.4" y="738" width="26.9" height="35.6"
			xmlns:xlink="http://www.w3.org/1999/xlink" xlink:href=""/>
		<rect id="e3r2p16" x="147.4" y="738" width="26.9" height="35.6"/>
		<image xmlns="http://www.w3.org/2000/svg" preserveAspectRatio="xMidYMid slice" id="e3r2p16" x="147.4" y="738" width="26.9" height="35.6"
			xmlns:xlink="http://www.w3.org/1999/xlink" xlink:href=""/>
		<rect id="e3r2p18" x="113.4" y="738" width="26.9" height="35.6"/>
		<image xmlns="http://www.w3.org/2000/svg" preserveAspectRatio="xMidYMid slice" id="e3r2p18" x="113.4" y="738" width="26.9" height="35.6"
			xmlns:xlink="http://www.w3.org/1999/xlink" xlink:href=""/>
	</g>
	<g class="st4">
		<rect id="e3r2p1" x="558.1" y="781.2" width="26.9" height="35.6"/>
		<image xmlns="http://www.w3.org/2000/svg" preserveAspectRatio="xMidYMid slice" id="e3r2p1" x="558.1" y="781.2" width="26.9" height="35.6"
			xmlns:xlink="http://www.w3.org/1999/xlink" xlink:href=""/>
		<rect id="e3r2p3" x="524.1" y="781.2" width="26.9" height="35.6"/>
		<image xmlns="http://www.w3.org/2000/svg" preserveAspectRatio="xMidYMid slice" id="e3r2p3" x="524.1" y="781.2" width="26.9" height="35.6"
			xmlns:xlink="http://www.w3.org/1999/xlink" xlink:href=""/>
		<rect id="e3r2p5" x="490.1" y="781.2" width="26.9" height="35.6"/>
		<image xmlns="http://www.w3.org/2000/svg" preserveAspectRatio="xMidYMid slice" id="e3r2p5" x="490.1" y="781.2" width="26.9" height="35.6"
			xmlns:xlink="http://www.w3.org/1999/xlink" xlink:href=""/>
		<rect id="e3r2p7" x="456" y="781.2" width="26.9" height="35.6"/>
		<image xmlns="http://www.w3.org/2000/svg" preserveAspectRatio="xMidYMid slice" id="e3r2p7" x="456" y="781.2" width="26.9" height="35.6"
			xmlns:xlink="http://www.w3.org/1999/xlink" xlink:href=""/>
		<rect id="e3r2p9" x="422" y="781.2" width="26.9" height="35.6"/>
		<image xmlns="http://www.w3.org/2000/svg" preserveAspectRatio="xMidYMid slice" id="e3r2p9" x="422" y="781.2" width="26.9" height="35.6"
			xmlns:xlink="http://www.w3.org/1999/xlink" xlink:href=""/>
		<rect id="e3r2p2" x="558.1" y="740.1" width="26.9" height="35.6"/>
		<image xmlns="http://www.w3.org/2000/svg" preserveAspectRatio="xMidYMid slice" id="e3r2p2" x="558.1" y="740.1" width="26.9" height="35.6"
			xmlns:xlink="http://www.w3.org/1999/xlink" xlink:href=""/>
		<rect id="e3r2p4" x="524.1" y="740.1" width="26.9" height="35.6"/>
		<image xmlns="http://www.w3.org/2000/svg" preserveAspectRatio="xMidYMid slice" id="e3r2p4" x="524.1" y="740.1" width="26.9" height="35.6"
			xmlns:xlink="http://www.w3.org/1999/xlink" xlink:href=""/>
		<rect id="e3r2p6" x="490.1" y="740.1" width="26.9" height="35.6"/>
		<image xmlns="http://www.w3.org/2000/svg" preserveAspectRatio="xMidYMid slice" id="e3r2p6" x="490.1" y="740.1" width="26.9" height="35.6"
			xmlns:xlink="http://www.w3.org/1999/xlink" xlink:href=""/>
		<rect id="e3r2p8" x="456" y="740.1" width="26.9" height="35.6"/>
		<image xmlns="http://www.w3.org/2000/svg" preserveAspectRatio="xMidYMid slice" id="e3r2p8" x="456" y="740.1" width="26.9" height="35.6"
			xmlns:xlink="http://www.w3.org/1999/xlink" xlink:href=""/>
		<rect id="e3r2p10" x="422" y="740.1" width="26.9" height="35.6"/>
		<image xmlns="http://www.w3.org/2000/svg" preserveAspectRatio="xMidYMid slice" id="e3r2p10" x="422" y="740.1" width="26.9" height="35.6"
			xmlns:xlink="http://www.w3.org/1999/xlink" xlink:href=""/>
	</g>
	<g class="st4">
		<rect id="e3r1p11" x="215.4" y="861.5" width="26.9" height="35.6"/>
		<image xmlns="http://www.w3.org/2000/svg" preserveAspectRatio="xMidYMid slice" id="e3r1p11" x="215.4" y="861.5" width="26.9" height="35.6"
			xmlns:xlink="http://www.w3.org/1999/xlink" xlink:href=""/>
		<rect id="e3r1p13" x="181.4" y="861.5" width="26.9" height="35.6"/>
		<image xmlns="http://www.w3.org/2000/svg" preserveAspectRatio="xMidYMid slice" id="e3r1p13" x="181.4" y="861.5" width="26.9" height="35.6"
			xmlns:xlink="http://www.w3.org/1999/xlink" xlink:href=""/>
		<rect id="e3r1p15" x="147.4" y="861.5" width="26.9" height="35.6"/>
		<image xmlns="http://www.w3.org/2000/svg" preserveAspectRatio="xMidYMid slice" id="e3r1p15" x="147.4" y="861.5" width="26.9" height="35.6"
			xmlns:xlink="http://www.w3.org/1999/xlink" xlink:href=""/>
		<rect id="e3r1p17" x="113.4" y="861.5" width="26.9" height="35.6"/>
		<image xmlns="http://www.w3.org/2000/svg" preserveAspectRatio="xMidYMid slice" id="e3r1p17" x="113.4" y="861.5" width="26.9" height="35.6"
			xmlns:xlink="http://www.w3.org/1999/xlink" xlink:href=""/>
		<rect id="e3r1p12" x="215.4" y="820.3" width="26.9" height="35.6"/>
		<image xmlns="http://www.w3.org/2000/svg" preserveAspectRatio="xMidYMid slice" id="e3r1p12" x="215.4" y="820.3" width="26.9" height="35.6"
			xmlns:xlink="http://www.w3.org/1999/xlink" xlink:href=""/>
		<rect id="e3r1p14" x="181.4" y="820.3" width="26.9" height="35.6"/>
		<image xmlns="http://www.w3.org/2000/svg" preserveAspectRatio="xMidYMid slice" id="e3r1p14" x="181.4" y="820.3" width="26.9" height="35.6"
			xmlns:xlink="http://www.w3.org/1999/xlink" xlink:href=""/>
		<rect id="e3r1p16" x="147.4" y="820.3" width="26.9" height="35.6"/>
		<image xmlns="http://www.w3.org/2000/svg" preserveAspectRatio="xMidYMid slice" id="e3r1p16" x="147.4" y="820.3" width="26.9" height="35.6"
			xmlns:xlink="http://www.w3.org/1999/xlink" xlink:href=""/>
		<rect id="e3r1p18" x="113.4" y="820.3" width="26.9" height="35.6"/>
		<image xmlns="http://www.w3.org/2000/svg" preserveAspectRatio="xMidYMid slice" id="e3r1p18" x="113.4" y="820.3" width="26.9" height="35.6"
			xmlns:xlink="http://www.w3.org/1999/xlink" xlink:href=""/>
	</g>
	<g class="st4">
		<rect id="e3r1p1" x="558.1" y="861.5" width="26.9" height="35.6"/>
		<image xmlns="http://www.w3.org/2000/svg" preserveAspectRatio="xMidYMid slice" id="e3r1p1" x="558.1" y="861.5" height="35.6" width="26.9"
			xmlns:xlink="http://www.w3.org/1999/xlink" xlink:href=""/>
		<rect id="e3r1p3" x="524.1" y="861.5" width="26.9" height="35.6"/>
		<image xmlns="http://www.w3.org/2000/svg" preserveAspectRatio="xMidYMid slice" id="e3r1p3" x="524.1" y="861.5" height="35.6" width="26.9"
			xmlns:xlink="http://www.w3.org/1999/xlink" xlink:href=""/>
		<rect id="e3r1p5" x="490.1" y="861.5" width="26.9" height="35.6"/>
		<image xmlns="http://www.w3.org/2000/svg" preserveAspectRatio="xMidYMid slice" id="e3r1p5" x="490.1" y="861.5" height="35.6" width="26.9"
			xmlns:xlink="http://www.w3.org/1999/xlink" xlink:href=""/>
		<rect id="e3r1p7" x="456" y="861.5" width="26.9" height="35.6"/>
		<image xmlns="http://www.w3.org/2000/svg" preserveAspectRatio="xMidYMid slice" id="e3r1p7" x="456" y="861.5" height="35.6" width="26.9"
			xmlns:xlink="http://www.w3.org/1999/xlink" xlink:href=""/>
		<rect id="e3r1p9" x="422" y="861.5" width="26.9" height="35.6"/>
		<image xmlns="http://www.w3.org/2000/svg" preserveAspectRatio="xMidYMid slice" id="e3r1p9" x="422" y="861.5" height="35.6" width="26.9"
			xmlns:xlink="http://www.w3.org/1999/xlink" xlink:href=""/>
		<rect id="e3r1p2" x="558.1" y="820.3" width="26.9" height="35.6"/>
		<image xmlns="http://www.w3.org/2000/svg" preserveAspectRatio="xMidYMid slice" id="e3r1p2" x="558.1" y="820.3" height="35.6" width="26.9"
			xmlns:xlink="http://www.w3.org/1999/xlink" xlink:href=""/>
		<rect id="e3r1p4" x="524.1" y="820.3" width="26.9" height="35.6"/>
		<image xmlns="http://www.w3.org/2000/svg" preserveAspectRatio="xMidYMid slice" id="e3r1p4" x="524.1" y="820.3" height="35.6" width="26.9"
			xmlns:xlink="http://www.w3.org/1999/xlink" xlink:href=""/>
		<rect id="e3r1p6" x="490.1" y="820.3" width="26.9" height="35.6"/>
		<image xmlns="http://www.w3.org/2000/svg" preserveAspectRatio="xMidYMid slice" id="e3r1p6" x="490.1" y="820.3" height="35.6" width="26.9"
			xmlns:xlink="http://www.w3.org/1999/xlink" xlink:href=""/>
		<rect id="e3r1p8" x="456" y="820.3" width="26.9" height="35.6"/>
		<image xmlns="http://www.w3.org/2000/svg" preserveAspectRatio="xMidYMid slice" id="e3r1p8" x="456" y="820.3" height="35.6" width="26.9"
			xmlns:xlink="http://www.w3.org/1999/xlink" xlink:href=""/>
		<rect id="e3r1p10" x="422" y="820.3" width="26.9" height="35.6"/>
		<image xmlns="http://www.w3.org/2000/svg" preserveAspectRatio="xMidYMid slice" id="e3r1p10" x="422" y="820.3" height="35.6" width="26.9"
			xmlns:xlink="http://www.w3.org/1999/xlink" xlink:href=""/>
	</g>
	<text transform="matrix(1.2493 0 0 1 5 53.8389)" class="st0 st1 st2">E3</text>
</svg>
