<svg xmlns="http://www.w3.org/2000/svg" xmlns:xlink="http://www.w3.org/1999/xlink" version="1.1" id="Layer_1" x="0px" y="0px" viewBox="0 0 651 930" style="enable-background:new 0 0 651 930;" xml:space="preserve">
<style type="text/css">
	.st0{fill:#CCCCCC;}
	.st1{font-family:'Helvetica-Bold';}
	.st2{font-size:40px;}
	.st3{fill:none;stroke:#CCCCCC;}
	.st4{fill:none;stroke:#000000;stroke-miterlimit:10;}
	.st5{fill:none;stroke:#231F20;stroke-miterlimit:10;}
	.st6{font-size:20.8176px;}
</style>
<text transform="matrix(1 0 0 1 5 50)" class="st0 st1 st2">E2</text>
<g>
	<g>
		
		<rect id="e2r10p15" x="12" y="225" height="45" width="34"></rect><image preserveAspectRatio="xMidYMid slice" id="e2r10p15" x="12" y="225" height="45" width="34" xlink:href=""></image>
		<rect id="e2r10p14" x="47" y="240" height="45" width="34"></rect><image preserveAspectRatio="xMidYMid slice" id="e2r10p14" x="47" y="240" height="45" width="34" xlink:href=""></image>
		<rect id="e2r10p13" x="82" y="225" height="45" width="34"></rect><image preserveAspectRatio="xMidYMid slice" id="e2r10p13" x="82" y="225" height="45" width="34" xlink:href=""></image>
		<rect id="e2r10p12" x="117" y="240" height="45" width="34"></rect><image preserveAspectRatio="xMidYMid slice" id="e2r10p12" x="117" y="240" height="45" width="34" xlink:href=""></image>
		<rect id="e2r10p11" x="152" y="225" height="45" width="34"></rect><image preserveAspectRatio="xMidYMid slice" id="e2r10p11" x="152" y="225" height="45" width="34" xlink:href=""></image>
	</g>
	<g>
		
		<rect id="e2r9p15" x="12" y="295" height="45" width="34"></rect><image preserveAspectRatio="xMidYMid slice" id="e2r9p15" x="12" y="295" height="45" width="34" xlink:href=""></image>
		<rect id="e2r9p14" x="47" y="310" height="45" width="34"></rect><image preserveAspectRatio="xMidYMid slice" id="e2r9p14" x="47" y="310" height="45" width="34" xlink:href=""></image>
		<rect id="e2r9p13" x="82" y="295" height="45" width="34"></rect><image preserveAspectRatio="xMidYMid slice" id="e2r9p13" x="82" y="295" height="45" width="34" xlink:href=""></image>
		<rect id="e2r9p12" x="117" y="310" height="45" width="34"></rect><image preserveAspectRatio="xMidYMid slice" id="e2r9p12" x="117" y="310" height="45" width="34" xlink:href=""></image>
		<rect id="e2r9p11" x="152" y="295" height="45" width="34"></rect><image preserveAspectRatio="xMidYMid slice" id="e2r9p11" x="152" y="295" height="45" width="34" xlink:href=""></image>
	</g>
	<g>
		
		<rect id="e2r8p15" x="12" y="365" height="45" width="34"></rect><image preserveAspectRatio="xMidYMid slice" id="e2r8p15" x="12" y="365" height="45" width="34" xlink:href=""></image>
		<rect id="e2r8p14" x="47" y="380" height="45" width="34"></rect><image preserveAspectRatio="xMidYMid slice" id="e2r8p14" x="47" y="380" height="45" width="34" xlink:href=""></image>
		<rect id="e2r8p13" x="82" y="365" height="45" width="34"></rect><image preserveAspectRatio="xMidYMid slice" id="e2r8p13" x="82" y="365" height="45" width="34" xlink:href=""></image>
		<rect id="e2r8p12" x="117" y="380" height="45" width="34"></rect><image preserveAspectRatio="xMidYMid slice" id="e2r8p12" x="117" y="380" height="45" width="34" xlink:href=""></image>
		<rect id="e2r8p11" x="152" y="365" height="45" width="34"></rect><image preserveAspectRatio="xMidYMid slice" id="e2r8p11" x="152" y="365" height="45" width="34" xlink:href=""></image>
	</g>
	<g>
		
		<rect id="e2r7p15" x="12" y="435" height="45" width="34"></rect><image preserveAspectRatio="xMidYMid slice" id="e2r7p15" x="12" y="435" height="45" width="34" xlink:href=""></image>
		<rect id="e2r7p14" x="47" y="450" height="45" width="34"></rect><image preserveAspectRatio="xMidYMid slice" id="e2r7p14" x="47" y="450" height="45" width="34" xlink:href=""></image>
		<rect id="e2r7p13" x="82" y="435" height="45" width="34"></rect><image preserveAspectRatio="xMidYMid slice" id="e2r7p13" x="82" y="435" height="45" width="34" xlink:href=""></image>
		<rect id="e2r7p12" x="117" y="450" height="45" width="34"></rect><image preserveAspectRatio="xMidYMid slice" id="e2r7p12" x="117" y="450" height="45" width="34" xlink:href=""></image>
		<rect id="e2r7p11" x="152" y="435" height="45" width="34"></rect><image preserveAspectRatio="xMidYMid slice" id="e2r7p11" x="152" y="435" height="45" width="34" xlink:href=""></image>
	</g>
	<g>
		
		<rect id="e2r6p15" x="12" y="505" height="45" width="34"></rect><image preserveAspectRatio="xMidYMid slice" id="e2r6p15" x="12" y="505" height="45" width="34" xlink:href=""></image>
		<rect id="e2r6p14" x="47" y="520" height="45" width="34"></rect><image preserveAspectRatio="xMidYMid slice" id="e2r6p14" x="47" y="520" height="45" width="34" xlink:href=""></image>
		<rect id="e2r6p13" x="82" y="505" height="45" width="34"></rect><image preserveAspectRatio="xMidYMid slice" id="e2r6p13" x="82" y="505" height="45" width="34" xlink:href=""></image>
		<rect id="e2r6p12" x="117" y="520" height="45" width="34"></rect><image preserveAspectRatio="xMidYMid slice" id="e2r6p12" x="117" y="520" height="45" width="34" xlink:href=""></image>
		<rect id="e2r6p11" x="152" y="505" height="45" width="34"></rect><image preserveAspectRatio="xMidYMid slice" id="e2r6p11" x="152" y="505" height="45" width="34" xlink:href=""></image>
	</g>
	<g>
		
		<rect id="e2r5p15" x="12" y="575" height="45" width="34"></rect><image preserveAspectRatio="xMidYMid slice" id="e2r5p15" x="12" y="575" height="45" width="34" xlink:href=""></image>
		<rect id="e2r5p14" x="47" y="590" height="45" width="34"></rect><image preserveAspectRatio="xMidYMid slice" id="e2r5p14" x="47" y="590" height="45" width="34" xlink:href=""></image>
		<rect id="e2r5p13" x="82" y="575" height="45" width="34"></rect><image preserveAspectRatio="xMidYMid slice" id="e2r5p13" x="82" y="575" height="45" width="34" xlink:href=""></image>
		<rect id="e2r5p12" x="117" y="590" height="45" width="34"></rect><image preserveAspectRatio="xMidYMid slice" id="e2r5p12" x="117" y="590" height="45" width="34" xlink:href=""></image>
		<rect id="e2r5p11" x="152" y="575" height="45" width="34"></rect><image preserveAspectRatio="xMidYMid slice" id="e2r5p11" x="152" y="575" height="45" width="34" xlink:href=""></image>
	</g>
	<g>
		
		<rect id="e2r4p15" x="12" y="645" height="45" width="34"></rect><image preserveAspectRatio="xMidYMid slice" id="e2r4p15" x="12" y="645" height="45" width="34" xlink:href=""></image>
		<rect id="e2r4p14" x="47" y="660" height="45" width="34"></rect><image preserveAspectRatio="xMidYMid slice" id="e2r4p14" x="47" y="660" height="45" width="34" xlink:href=""></image>
		<rect id="e2r4p13" x="82" y="645" height="45" width="34"></rect><image preserveAspectRatio="xMidYMid slice" id="e2r4p13" x="82" y="645" height="45" width="34" xlink:href=""></image>
		<rect id="e2r4p12" x="117" y="660" height="45" width="34"></rect><image preserveAspectRatio="xMidYMid slice" id="e2r4p12" x="117" y="660" height="45" width="34" xlink:href=""></image>
		<rect id="e2r4p11" x="152" y="645" height="45" width="34"></rect><image preserveAspectRatio="xMidYMid slice" id="e2r4p11" x="152" y="645" height="45" width="34" xlink:href=""></image>
	</g>
	<g>
		
		<rect id="e2r3p15" x="12" y="715" height="45" width="34"></rect><image preserveAspectRatio="xMidYMid slice" id="e2r3p15" x="12" y="715" height="45" width="34" xlink:href=""></image>
		<rect id="e2r3p14" x="47" y="730" height="45" width="34"></rect><image preserveAspectRatio="xMidYMid slice" id="e2r3p14" x="47" y="730" height="45" width="34" xlink:href=""></image>
		<rect id="e2r3p13" x="82" y="715" height="45" width="34"></rect><image preserveAspectRatio="xMidYMid slice" id="e2r3p13" x="82" y="715" height="45" width="34" xlink:href=""></image>
		<rect id="e2r3p12" x="117" y="730" height="45" width="34"></rect><image preserveAspectRatio="xMidYMid slice" id="e2r3p12" x="117" y="730" height="45" width="34" xlink:href=""></image>
		<rect id="e2r3p11" x="152" y="715" height="45" width="34"></rect><image preserveAspectRatio="xMidYMid slice" id="e2r3p11" x="152" y="715" height="45" width="34" xlink:href=""></image>
	</g>
	<g>
		
		<rect id="e2r2p15" x="12" y="785" height="45" width="34"></rect><image preserveAspectRatio="xMidYMid slice" id="e2r2p15" x="12" y="785" height="45" width="34" xlink:href=""></image>
		<rect id="e2r2p14" x="47" y="800" height="45" width="34"></rect><image preserveAspectRatio="xMidYMid slice" id="e2r2p14" x="47" y="800" height="45" width="34" xlink:href=""></image>
		<rect id="e2r2p13" x="82" y="785" height="45" width="34"></rect><image preserveAspectRatio="xMidYMid slice" id="e2r2p13" x="82" y="785" height="45" width="34" xlink:href=""></image>
		<rect id="e2r2p12" x="117" y="800" height="45" width="34"></rect><image preserveAspectRatio="xMidYMid slice" id="e2r2p12" x="117" y="800" height="45" width="34" xlink:href=""></image>
		<rect id="e2r2p11" x="152" y="785" height="45" width="34"></rect><image preserveAspectRatio="xMidYMid slice" id="e2r2p11" x="152" y="785" height="45" width="34" xlink:href=""></image>
	</g>
</g>
<g>
	<g>
		
		<rect id="e2r9p10" x="212" y="295" height="45" width="34"></rect><image preserveAspectRatio="xMidYMid slice" id="e2r9p10" x="212" y="295" height="45" width="34" xlink:href=""></image>
		<rect id="e2r9p9" x="247" y="310" height="45" width="34"></rect><image preserveAspectRatio="xMidYMid slice" id="e2r9p9" x="247" y="310" height="45" width="34" xlink:href=""></image>
		<rect id="e2r9p8" x="282" y="295" height="45" width="34"></rect><image preserveAspectRatio="xMidYMid slice" id="e2r9p8" x="282" y="295" height="45" width="34" xlink:href=""></image>
		<rect id="e2r9p7" x="317" y="310" height="45" width="34"></rect><image preserveAspectRatio="xMidYMid slice" id="e2r9p7" x="317" y="310" height="45" width="34" xlink:href=""></image>
		<rect id="e2r9p6" x="352" y="295" height="45" width="34"></rect><image preserveAspectRatio="xMidYMid slice" id="e2r9p6" x="352" y="295" height="45" width="34" xlink:href=""></image>
	</g>
	<g>
		
		<rect id="e2r8p10" x="212" y="365" height="45" width="34"></rect><image preserveAspectRatio="xMidYMid slice" id="e2r8p10" x="212" y="365" height="45" width="34" xlink:href=""></image>
		<rect id="e2r8p9" x="247" y="380" height="45" width="34"></rect><image preserveAspectRatio="xMidYMid slice" id="e2r8p9" x="247" y="380" height="45" width="34" xlink:href=""></image>
		<rect id="e2r8p8" x="282" y="365" height="45" width="34"></rect><image preserveAspectRatio="xMidYMid slice" id="e2r8p8" x="282" y="365" height="45" width="34" xlink:href=""></image>
		<rect id="e2r8p7" x="317" y="380" height="45" width="34"></rect><image preserveAspectRatio="xMidYMid slice" id="e2r8p7" x="317" y="380" height="45" width="34" xlink:href=""></image>
		<rect id="e2r8p6" x="352" y="365" height="45" width="34"></rect><image preserveAspectRatio="xMidYMid slice" id="e2r8p6" x="352" y="365" height="45" width="34" xlink:href=""></image>
	</g>
	<g>
		
		<rect id="e2r7p10" x="212" y="435" height="45" width="34"></rect><image preserveAspectRatio="xMidYMid slice" id="e2r7p10" x="212" y="435" height="45" width="34" xlink:href=""></image>
		<rect id="e2r7p9" x="247" y="450" height="45" width="34"></rect><image preserveAspectRatio="xMidYMid slice" id="e2r7p9" x="247" y="450" height="45" width="34" xlink:href=""></image>
		<rect id="e2r7p8" x="282" y="435" height="45" width="34"></rect><image preserveAspectRatio="xMidYMid slice" id="e2r7p8" x="282" y="435" height="45" width="34" xlink:href=""></image>
		<rect id="e2r7p7" x="317" y="450" height="45" width="34"></rect><image preserveAspectRatio="xMidYMid slice" id="e2r7p7" x="317" y="450" height="45" width="34" xlink:href=""></image>
		<rect id="e2r7p6" x="352" y="435" height="45" width="34"></rect><image preserveAspectRatio="xMidYMid slice" id="e2r7p6" x="352" y="435" height="45" width="34" xlink:href=""></image>
	</g>
	<g>
		
		<rect id="e2r6p10" x="212" y="505" height="45" width="34"></rect><image preserveAspectRatio="xMidYMid slice" id="e2r6p10" x="212" y="505" height="45" width="34" xlink:href=""></image>
		<rect id="e2r6p9" x="247" y="520" height="45" width="34"></rect><image preserveAspectRatio="xMidYMid slice" id="e2r6p9" x="247" y="520" height="45" width="34" xlink:href=""></image>
		<rect id="e2r6p8" x="282" y="505" height="45" width="34"></rect><image preserveAspectRatio="xMidYMid slice" id="e2r6p8" x="282" y="505" height="45" width="34" xlink:href=""></image>
		<rect id="e2r6p7" x="317" y="520" height="45" width="34"></rect><image preserveAspectRatio="xMidYMid slice" id="e2r6p7" x="317" y="520" height="45" width="34" xlink:href=""></image>
		<rect id="e2r6p6" x="352" y="505" height="45" width="34"></rect><image preserveAspectRatio="xMidYMid slice" id="e2r6p6" x="352" y="505" height="45" width="34" xlink:href=""></image>
	</g>
	<g>
		
		<rect id="e2r5p10" x="212" y="575" height="45" width="34"></rect><image preserveAspectRatio="xMidYMid slice" id="e2r5p10" x="212" y="575" height="45" width="34" xlink:href=""></image>
		<rect id="e2r5p9" x="247" y="590" height="45" width="34"></rect><image preserveAspectRatio="xMidYMid slice" id="e2r5p9" x="247" y="590" height="45" width="34" xlink:href=""></image>
		<rect id="e2r5p8" x="282" y="575" height="45" width="34"></rect><image preserveAspectRatio="xMidYMid slice" id="e2r5p8" x="282" y="575" height="45" width="34" xlink:href=""></image>
		<rect id="e2r5p7" x="317" y="590" height="45" width="34"></rect><image preserveAspectRatio="xMidYMid slice" id="e2r5p7" x="317" y="590" height="45" width="34" xlink:href=""></image>
		<rect id="e2r5p6" x="352" y="575" height="45" width="34"></rect><image preserveAspectRatio="xMidYMid slice" id="e2r5p6" x="352" y="575" height="45" width="34" xlink:href=""></image>
	</g>
	<g>
		
		<rect id="e2r4p10" x="212" y="645" height="45" width="34"></rect><image preserveAspectRatio="xMidYMid slice" id="e2r4p10" x="212" y="645" height="45" width="34" xlink:href=""></image>
		<rect id="e2r4p9" x="247" y="660" height="45" width="34"></rect><image preserveAspectRatio="xMidYMid slice" id="e2r4p9" x="247" y="660" height="45" width="34" xlink:href=""></image>
		<rect id="e2r4p8" x="282" y="645" height="45" width="34"></rect><image preserveAspectRatio="xMidYMid slice" id="e2r4p8" x="282" y="645" height="45" width="34" xlink:href=""></image>
		<rect id="e2r4p7" x="317" y="660" height="45" width="34"></rect><image preserveAspectRatio="xMidYMid slice" id="e2r4p7" x="317" y="660" height="45" width="34" xlink:href=""></image>
		<rect id="e2r4p6" x="352" y="645" height="45" width="34"></rect><image preserveAspectRatio="xMidYMid slice" id="e2r4p6" x="352" y="645" height="45" width="34" xlink:href=""></image>
	</g>
	<g>
		
		<rect id="e2r3p10" x="212" y="715" height="45" width="34"></rect><image preserveAspectRatio="xMidYMid slice" id="e2r3p10" x="212" y="715" height="45" width="34" xlink:href=""></image>
		<rect id="e2r3p9" x="247" y="730" height="45" width="34"></rect><image preserveAspectRatio="xMidYMid slice" id="e2r3p9" x="247" y="730" height="45" width="34" xlink:href=""></image>
		<rect id="e2r3p8" x="282" y="715" height="45" width="34"></rect><image preserveAspectRatio="xMidYMid slice" id="e2r3p8" x="282" y="715" height="45" width="34" xlink:href=""></image>
		<rect id="e2r3p7" x="317" y="730" height="45" width="34"></rect><image preserveAspectRatio="xMidYMid slice" id="e2r3p7" x="317" y="730" height="45" width="34" xlink:href=""></image>
		<rect id="e2r3p6" x="352" y="715" height="45" width="34"></rect><image preserveAspectRatio="xMidYMid slice" id="e2r3p6" x="352" y="715" height="45" width="34" xlink:href=""></image>
	</g>
	<g>
		
		<rect id="e2r2p10" x="212" y="785" height="45" width="34"></rect><image preserveAspectRatio="xMidYMid slice" id="e2r2p10" x="212" y="785" height="45" width="34" xlink:href=""></image>
		<rect id="e2r2p9" x="247" y="800" height="45" width="34"></rect><image preserveAspectRatio="xMidYMid slice" id="e2r2p9" x="247" y="800" height="45" width="34" xlink:href=""></image>
		<rect id="e2r2p8" x="282" y="785" height="45" width="34"></rect><image preserveAspectRatio="xMidYMid slice" id="e2r2p8" x="282" y="785" height="45" width="34" xlink:href=""></image>
		<rect id="e2r2p7" x="317" y="800" height="45" width="34"></rect><image preserveAspectRatio="xMidYMid slice" id="e2r2p7" x="317" y="800" height="45" width="34" xlink:href=""></image>
		<rect id="e2r2p6" x="352" y="785" height="45" width="34"></rect><image preserveAspectRatio="xMidYMid slice" id="e2r2p6" x="352" y="785" height="45" width="34" xlink:href=""></image>
	</g>
</g>
<g>
	<g>
		
		<rect id="e2r13p5" x="412" y="15" height="45" width="34"></rect><image preserveAspectRatio="xMidYMid slice" id="e2r13p5" x="412" y="15" height="45" width="34" xlink:href=""></image>
		<rect id="e2r13p4" x="447" y="30" height="45" width="34"></rect><image preserveAspectRatio="xMidYMid slice" id="e2r13p4" x="447" y="30" height="45" width="34" xlink:href=""></image>
		<rect id="e2r13p3" x="482" y="15" height="45" width="34"></rect><image preserveAspectRatio="xMidYMid slice" id="e2r13p3" x="482" y="15" height="45" width="34" xlink:href=""></image>
		<rect id="e2r13p2" x="517" y="30" height="45" width="34"></rect><image preserveAspectRatio="xMidYMid slice" id="e2r13p2" x="517" y="30" height="45" width="34" xlink:href=""></image>
		<rect id="e2r13p1" x="552" y="15" height="45" width="34"></rect><image preserveAspectRatio="xMidYMid slice" id="e2r13p1" x="552" y="15" height="45" width="34" xlink:href=""></image>
	</g>
	<g>
		
		<rect id="e2r12p5" x="412" y="85" height="45" width="34"></rect><image preserveAspectRatio="xMidYMid slice" id="e2r12p5" x="412" y="85" height="45" width="34" xlink:href=""></image>
		<rect id="e2r12p4" x="447" y="100" height="45" width="34"></rect><image preserveAspectRatio="xMidYMid slice" id="e2r12p4" x="447" y="100" height="45" width="34" xlink:href=""></image>
		<rect id="e2r12p3" x="482" y="85" height="45" width="34"></rect><image preserveAspectRatio="xMidYMid slice" id="e2r12p3" x="482" y="85" height="45" width="34" xlink:href=""></image>
		<rect id="e2r12p2" x="517" y="100" height="45" width="34"></rect><image preserveAspectRatio="xMidYMid slice" id="e2r12p2" x="517" y="100" height="45" width="34" xlink:href=""></image>
		<rect id="e2r12p1" x="552" y="85" height="45" width="34"></rect><image preserveAspectRatio="xMidYMid slice" id="e2r12p1" x="552" y="85" height="45" width="34" xlink:href=""></image>
	</g>
	<g>
		
		<rect id="e2r11p5" x="412" y="155" height="45" width="34"></rect><image preserveAspectRatio="xMidYMid slice" id="e2r11p5" x="412" y="155" height="45" width="34" xlink:href=""></image>
		<rect id="e2r11p4" x="447" y="170" height="45" width="34"></rect><image preserveAspectRatio="xMidYMid slice" id="e2r11p4" x="447" y="170" height="45" width="34" xlink:href=""></image>
		<rect id="e2r11p3" x="482" y="155" height="45" width="34"></rect><image preserveAspectRatio="xMidYMid slice" id="e2r11p3" x="482" y="155" height="45" width="34" xlink:href=""></image>
		<rect id="e2r11p2" x="517" y="170" height="45" width="34"></rect><image preserveAspectRatio="xMidYMid slice" id="e2r11p2" x="517" y="170" height="45" width="34" xlink:href=""></image>
		<rect id="e2r11p1" x="552" y="155" height="45" width="34"></rect><image preserveAspectRatio="xMidYMid slice" id="e2r11p1" x="552" y="155" height="45" width="34" xlink:href=""></image>
	</g>
	<g>
		
		<rect id="e2r10p5" x="412" y="225" height="45" width="34"></rect><image preserveAspectRatio="xMidYMid slice" id="e2r10p5" x="412" y="225" height="45" width="34" xlink:href=""></image>
		<rect id="e2r10p4" x="447" y="240" height="45" width="34"></rect><image preserveAspectRatio="xMidYMid slice" id="e2r10p4" x="447" y="240" height="45" width="34" xlink:href=""></image>
		<rect id="e2r10p3" x="482" y="225" height="45" width="34"></rect><image preserveAspectRatio="xMidYMid slice" id="e2r10p3" x="482" y="225" height="45" width="34" xlink:href=""></image>
		<rect id="e2r10p2" x="517" y="240" height="45" width="34"></rect><image preserveAspectRatio="xMidYMid slice" id="e2r10p2" x="517" y="240" height="45" width="34" xlink:href=""></image>
		<rect id="e2r10p1" x="552" y="225" height="45" width="34"></rect><image preserveAspectRatio="xMidYMid slice" id="e2r10p1" x="552" y="225" height="45" width="34" xlink:href=""></image>
	</g>
	<g>
		
		<rect id="e2r9p5" x="412" y="295" height="45" width="34"></rect><image preserveAspectRatio="xMidYMid slice" id="e2r9p5" x="412" y="295" height="45" width="34" xlink:href=""></image>
		<rect id="e2r9p4" x="447" y="310" height="45" width="34"></rect><image preserveAspectRatio="xMidYMid slice" id="e2r9p4" x="447" y="310" height="45" width="34" xlink:href=""></image>
		<rect id="e2r9p3" x="482" y="295" height="45" width="34"></rect><image preserveAspectRatio="xMidYMid slice" id="e2r9p3" x="482" y="295" height="45" width="34" xlink:href=""></image>
		<rect id="e2r9p2" x="517" y="310" height="45" width="34"></rect><image preserveAspectRatio="xMidYMid slice" id="e2r9p2" x="517" y="310" height="45" width="34" xlink:href=""></image>
		<rect id="e2r9p1" x="552" y="295" height="45" width="34"></rect><image preserveAspectRatio="xMidYMid slice" id="e2r9p1" x="552" y="295" height="45" width="34" xlink:href=""></image>
	</g>
	<g>
		
		<rect id="e2r8p5" x="412" y="365" height="45" width="34"></rect><image preserveAspectRatio="xMidYMid slice" id="e2r8p5" x="412" y="365" height="45" width="34" xlink:href=""></image>
		<rect id="e2r8p4" x="447" y="380" height="45" width="34"></rect><image preserveAspectRatio="xMidYMid slice" id="e2r8p4" x="447" y="380" height="45" width="34" xlink:href=""></image>
		<rect id="e2r8p3" x="482" y="365" height="45" width="34"></rect><image preserveAspectRatio="xMidYMid slice" id="e2r8p3" x="482" y="365" height="45" width="34" xlink:href=""></image>
		<rect id="e2r8p2" x="517" y="380" height="45" width="34"></rect><image preserveAspectRatio="xMidYMid slice" id="e2r8p2" x="517" y="380" height="45" width="34" xlink:href=""></image>
		<rect id="e2r8p1" x="552" y="365" height="45" width="34"></rect><image preserveAspectRatio="xMidYMid slice" id="e2r8p1" x="552" y="365" height="45" width="34" xlink:href=""></image>
	</g>
	<g>
		
		<rect id="e2r7p5" x="412" y="435" height="45" width="34"></rect><image preserveAspectRatio="xMidYMid slice" id="e2r7p5" x="412" y="435" height="45" width="34" xlink:href=""></image>
		<rect id="e2r7p4" x="447" y="450" height="45" width="34"></rect><image preserveAspectRatio="xMidYMid slice" id="e2r7p4" x="447" y="450" height="45" width="34" xlink:href=""></image>
		<rect id="e2r7p3" x="482" y="435" height="45" width="34"></rect><image preserveAspectRatio="xMidYMid slice" id="e2r7p3" x="482" y="435" height="45" width="34" xlink:href=""></image>
		<rect id="e2r7p2" x="517" y="450" height="45" width="34"></rect><image preserveAspectRatio="xMidYMid slice" id="e2r7p2" x="517" y="450" height="45" width="34" xlink:href=""></image>
		<rect id="e2r7p1" x="552" y="435" height="45" width="34"></rect><image preserveAspectRatio="xMidYMid slice" id="e2r7p1" x="552" y="435" height="45" width="34" xlink:href=""></image>
	</g>
	<g>
		
		<rect id="e2r6p5" x="412" y="505" height="45" width="34"></rect><image preserveAspectRatio="xMidYMid slice" id="e2r6p5" x="412" y="505" height="45" width="34" xlink:href=""></image>
		<rect id="e2r6p4" x="447" y="520" height="45" width="34"></rect><image preserveAspectRatio="xMidYMid slice" id="e2r6p4" x="447" y="520" height="45" width="34" xlink:href=""></image>
		<rect id="e2r6p3" x="482" y="505" height="45" width="34"></rect><image preserveAspectRatio="xMidYMid slice" id="e2r6p3" x="482" y="505" height="45" width="34" xlink:href=""></image>
		<rect id="e2r6p2" x="517" y="520" height="45" width="34"></rect><image preserveAspectRatio="xMidYMid slice" id="e2r6p2" x="517" y="520" height="45" width="34" xlink:href=""></image>
		<rect id="e2r6p1" x="552" y="505" height="45" width="34"></rect><image preserveAspectRatio="xMidYMid slice" id="e2r6p1" x="552" y="505" height="45" width="34" xlink:href=""></image>
	</g>
	<g>
		
		<rect id="e2r5p5" x="412" y="575" height="45" width="34"></rect><image preserveAspectRatio="xMidYMid slice" id="e2r5p5" x="412" y="575" height="45" width="34" xlink:href=""></image>
		<rect id="e2r5p4" x="447" y="590" height="45" width="34"></rect><image preserveAspectRatio="xMidYMid slice" id="e2r5p4" x="447" y="590" height="45" width="34" xlink:href=""></image>
		<rect id="e2r5p3" x="482" y="575" height="45" width="34"></rect><image preserveAspectRatio="xMidYMid slice" id="e2r5p3" x="482" y="575" height="45" width="34" xlink:href=""></image>
		<rect id="e2r5p2" x="517" y="590" height="45" width="34"></rect><image preserveAspectRatio="xMidYMid slice" id="e2r5p2" x="517" y="590" height="45" width="34" xlink:href=""></image>
		<rect id="e2r5p1" x="552" y="575" height="45" width="34"></rect><image preserveAspectRatio="xMidYMid slice" id="e2r5p1" x="552" y="575" height="45" width="34" xlink:href=""></image>
	</g>
	<g>
		
		<rect id="e2r4p5" x="412" y="645" height="45" width="34"></rect><image preserveAspectRatio="xMidYMid slice" id="e2r4p5" x="412" y="645" height="45" width="34" xlink:href=""></image>
		<rect id="e2r4p4" x="447" y="660" height="45" width="34"></rect><image preserveAspectRatio="xMidYMid slice" id="e2r4p4" x="447" y="660" height="45" width="34" xlink:href=""></image>
		<rect id="e2r4p3" x="482" y="645" height="45" width="34"></rect><image preserveAspectRatio="xMidYMid slice" id="e2r4p3" x="482" y="645" height="45" width="34" xlink:href=""></image>
		<rect id="e2r4p2" x="517" y="660" height="45" width="34"></rect><image preserveAspectRatio="xMidYMid slice" id="e2r4p2" x="517" y="660" height="45" width="34" xlink:href=""></image>
		<rect id="e2r4p1" x="552" y="645" height="45" width="34"></rect><image preserveAspectRatio="xMidYMid slice" id="e2r4p1" x="552" y="645" height="45" width="34" xlink:href=""></image>
	</g>
	<g>
		
		<rect id="e2r3p5" x="412" y="715" height="45" width="34"></rect><image preserveAspectRatio="xMidYMid slice" id="e2r3p5" x="412" y="715" height="45" width="34" xlink:href=""></image>
		<rect id="e2r3p4" x="447" y="730" height="45" width="34"></rect><image preserveAspectRatio="xMidYMid slice" id="e2r3p4" x="447" y="730" height="45" width="34" xlink:href=""></image>
		<rect id="e2r3p3" x="482" y="715" height="45" width="34"></rect><image preserveAspectRatio="xMidYMid slice" id="e2r3p3" x="482" y="715" height="45" width="34" xlink:href=""></image>
		<rect id="e2r3p2" x="517" y="730" height="45" width="34"></rect><image preserveAspectRatio="xMidYMid slice" id="e2r3p2" x="517" y="730" height="45" width="34" xlink:href=""></image>
		<rect id="e2r3p1" x="552" y="715" height="45" width="34"></rect><image preserveAspectRatio="xMidYMid slice" id="e2r3p1" x="552" y="715" height="45" width="34" xlink:href=""></image>
	</g>
	<g>
		
		<rect id="e2r2p5" x="412" y="785" height="45" width="34"></rect><image preserveAspectRatio="xMidYMid slice" id="e2r2p5" x="412" y="785" height="45" width="34" xlink:href=""></image>
		<rect id="e2r2p4" x="447" y="800" height="45" width="34"></rect><image preserveAspectRatio="xMidYMid slice" id="e2r2p4" x="447" y="800" height="45" width="34" xlink:href=""></image>
		<rect id="e2r2p3" x="482" y="785" height="45" width="34"></rect><image preserveAspectRatio="xMidYMid slice" id="e2r2p3" x="482" y="785" height="45" width="34" xlink:href=""></image>
		<rect id="e2r2p2" x="517" y="800" height="45" width="34"></rect><image preserveAspectRatio="xMidYMid slice" id="e2r2p2" x="517" y="800" height="45" width="34" xlink:href=""></image>
		<rect id="e2r2p1" x="552" y="785" height="45" width="34"></rect><image preserveAspectRatio="xMidYMid slice" id="e2r2p1" x="552" y="785" height="45" width="34" xlink:href=""></image>
	</g>
	<g>
		
		<rect id="e2r1p5" x="412" y="855" height="45" width="34"></rect><image preserveAspectRatio="xMidYMid slice" id="e2r1p5" x="412" y="855" height="45" width="34" xlink:href=""></image>
		<rect id="e2r1p4" x="447" y="870" height="45" width="34"></rect><image preserveAspectRatio="xMidYMid slice" id="e2r1p4" x="447" y="870" height="45" width="34" xlink:href=""></image>
		<rect id="e2r1p3" x="482" y="855" height="45" width="34"></rect><image preserveAspectRatio="xMidYMid slice" id="e2r1p3" x="482" y="855" height="45" width="34" xlink:href=""></image>
		<rect id="e2r1p2" x="517" y="870" height="45" width="34"></rect><image preserveAspectRatio="xMidYMid slice" id="e2r1p2" x="517" y="870" height="45" width="34" xlink:href=""></image>
		<rect id="e2r1p1" x="552" y="855" height="45" width="34"></rect><image preserveAspectRatio="xMidYMid slice" id="e2r1p1" x="552" y="855" height="45" width="34" xlink:href=""></image>
	</g>
</g>
<text transform="matrix(1 0 0 1 602 895)" class="st3 st1 st6">R1</text>
<text transform="matrix(1 0 0 1 602 825)" class="st3 st1 st6">R2</text>
<text transform="matrix(1 0 0 1 602 755)" class="st3 st1 st6">R3</text>
<text transform="matrix(1 0 0 1 602 685)" class="st3 st1 st6">R4</text>
<text transform="matrix(1 0 0 1 602 615)" class="st3 st1 st6">R5</text>
<text transform="matrix(1 0 0 1 602 545)" class="st3 st1 st6">R6</text>
<text transform="matrix(1 0 0 1 602 475)" class="st3 st1 st6">R7</text>
<text transform="matrix(1 0 0 1 602 405)" class="st3 st1 st6">R8</text>
<text transform="matrix(1 0 0 1 602 335)" class="st3 st1 st6">R9</text>
<text transform="matrix(1 0 0 1 602 265)" class="st3 st1 st6">R10</text>
<text transform="matrix(1 0 0 1 602 195)" class="st3 st1 st6">R11</text>
<text transform="matrix(1 0 0 1 602 125)" class="st3 st1 st6">R12</text>
<text transform="matrix(1 0 0 1 602 55)"  class="st3 st1 st6">R13</text>
</svg>
