<svg xmlns="http://www.w3.org/2000/svg" xmlns:xlink="http://www.w3.org/1999/xlink" version="1.1" id="Layer_1" x="0px" y="0px" viewBox="0 0 651 930" style="enable-background:new 0 0 651 930;" xml:space="preserve">
<style type="text/css">
	.st0{fill:#CCCCCC;}
	.st1{font-family:'Helvetica-Bold';}
	.st2{font-size:40px;}
	.st3{fill:none;stroke:#CCCCCC;}
	.st4{fill:none;stroke:#000000;stroke-miterlimit:10;}
	.st5{fill:none;stroke:#231F20;stroke-miterlimit:10;}
	.st6{font-size:20.8176px;}
</style>
<text transform="matrix(1 0 0 1 5 50)" class="st0 st1 st2">E1</text>
<g>
	<g>
		
		<rect stroke="#7f7f7f" fill="#e5e5e5" id="e1r10p15" x="12" y="225" height="45" width="34"></rect><image preserveAspectRatio="xMidYMid slice" id="e1r10p15" x="12" y="225" height="45" width="34" xlink:href=""></image>
		<rect stroke="#7f7f7f" fill="#e5e5e5" id="e1r10p14" x="47" y="240" height="45" width="34"></rect><image preserveAspectRatio="xMidYMid slice" id="e1r10p14" x="47" y="240" height="45" width="34" xlink:href=""></image>
		<rect stroke="#7f7f7f" fill="#e5e5e5" id="e1r10p13" x="82" y="225" height="45" width="34"></rect><image preserveAspectRatio="xMidYMid slice" id="e1r10p13" x="82" y="225" height="45" width="34" xlink:href=""></image>
		<rect stroke="#7f7f7f" fill="#e5e5e5" id="e1r10p12" x="117" y="240" height="45" width="34"></rect><image preserveAspectRatio="xMidYMid slice" id="e1r10p12" x="117" y="240" height="45" width="34" xlink:href=""></image>
		<rect stroke="#7f7f7f" fill="#e5e5e5" id="e1r10p11" x="152" y="225" height="45" width="34"></rect><image preserveAspectRatio="xMidYMid slice" id="e1r10p11" x="152" y="225" height="45" width="34" xlink:href=""></image>
	</g>
	<g>
		
		<rect stroke="#7f7f7f" fill="#e5e5e5" id="e1r9p15" x="12" y="295" height="45" width="34"></rect><image preserveAspectRatio="xMidYMid slice" id="e1r9p15" x="12" y="295" height="45" width="34" xlink:href=""></image>
		<rect stroke="#7f7f7f" fill="#e5e5e5" id="e1r9p14" x="47" y="310" height="45" width="34"></rect><image preserveAspectRatio="xMidYMid slice" id="e1r9p14" x="47" y="310" height="45" width="34" xlink:href=""></image>
		<rect stroke="#7f7f7f" fill="#e5e5e5" id="e1r9p13" x="82" y="295" height="45" width="34"></rect><image preserveAspectRatio="xMidYMid slice" id="e1r9p13" x="82" y="295" height="45" width="34" xlink:href=""></image>
		<rect stroke="#7f7f7f" fill="#e5e5e5" id="e1r9p12" x="117" y="310" height="45" width="34"></rect><image preserveAspectRatio="xMidYMid slice" id="e1r9p12" x="117" y="310" height="45" width="34" xlink:href=""></image>
		<rect stroke="#7f7f7f" fill="#e5e5e5" id="e1r9p11" x="152" y="295" height="45" width="34"></rect><image preserveAspectRatio="xMidYMid slice" id="e1r9p11" x="152" y="295" height="45" width="34" xlink:href=""></image>
	</g>
	<g>
		
		<rect stroke="#7f7f7f" fill="#e5e5e5" id="e1r8p15" x="12" y="365" height="45" width="34"></rect><image preserveAspectRatio="xMidYMid slice" id="e1r8p15" x="12" y="365" height="45" width="34" xlink:href=""></image>
		<rect stroke="#7f7f7f" fill="#e5e5e5" id="e1r8p14" x="47" y="380" height="45" width="34"></rect><image preserveAspectRatio="xMidYMid slice" id="e1r8p14" x="47" y="380" height="45" width="34" xlink:href=""></image>
		<rect stroke="#7f7f7f" fill="#e5e5e5" id="e1r8p13" x="82" y="365" height="45" width="34"></rect><image preserveAspectRatio="xMidYMid slice" id="e1r8p13" x="82" y="365" height="45" width="34" xlink:href=""></image>
		<rect stroke="#7f7f7f" fill="#e5e5e5" id="e1r8p12" x="117" y="380" height="45" width="34"></rect><image preserveAspectRatio="xMidYMid slice" id="e1r8p12" x="117" y="380" height="45" width="34" xlink:href=""></image>
		<rect stroke="#7f7f7f" fill="#e5e5e5" id="e1r8p11" x="152" y="365" height="45" width="34"></rect><image preserveAspectRatio="xMidYMid slice" id="e1r8p11" x="152" y="365" height="45" width="34" xlink:href=""></image>
	</g>
	<g>
		
		<rect stroke="#7f7f7f" fill="#e5e5e5" id="e1r7p15" x="12" y="435" height="45" width="34"></rect><image preserveAspectRatio="xMidYMid slice" id="e1r7p15" x="12" y="435" height="45" width="34" xlink:href=""></image>
		<rect stroke="#7f7f7f" fill="#e5e5e5" id="e1r7p14" x="47" y="450" height="45" width="34"></rect><image preserveAspectRatio="xMidYMid slice" id="e1r7p14" x="47" y="450" height="45" width="34" xlink:href=""></image>
		<rect stroke="#7f7f7f" fill="#e5e5e5" id="e1r7p13" x="82" y="435" height="45" width="34"></rect><image preserveAspectRatio="xMidYMid slice" id="e1r7p13" x="82" y="435" height="45" width="34" xlink:href=""></image>
		<rect stroke="#7f7f7f" fill="#e5e5e5" id="e1r7p12" x="117" y="450" height="45" width="34"></rect><image preserveAspectRatio="xMidYMid slice" id="e1r7p12" x="117" y="450" height="45" width="34" xlink:href=""></image>
		<rect stroke="#7f7f7f" fill="#e5e5e5" id="e1r7p11" x="152" y="435" height="45" width="34"></rect><image preserveAspectRatio="xMidYMid slice" id="e1r7p11" x="152" y="435" height="45" width="34" xlink:href=""></image>
	</g>
	<g>
		
		<rect stroke="#7f7f7f" fill="#e5e5e5" id="e1r6p15" x="12" y="505" height="45" width="34"></rect><image preserveAspectRatio="xMidYMid slice" id="e1r6p15" x="12" y="505" height="45" width="34" xlink:href=""></image>
		<rect stroke="#7f7f7f" fill="#e5e5e5" id="e1r6p14" x="47" y="520" height="45" width="34"></rect><image preserveAspectRatio="xMidYMid slice" id="e1r6p14" x="47" y="520" height="45" width="34" xlink:href=""></image>
		<rect stroke="#7f7f7f" fill="#e5e5e5" id="e1r6p13" x="82" y="505" height="45" width="34"></rect><image preserveAspectRatio="xMidYMid slice" id="e1r6p13" x="82" y="505" height="45" width="34" xlink:href=""></image>
		<rect stroke="#7f7f7f" fill="#e5e5e5" id="e1r6p12" x="117" y="520" height="45" width="34"></rect><image preserveAspectRatio="xMidYMid slice" id="e1r6p12" x="117" y="520" height="45" width="34" xlink:href=""></image>
		<rect stroke="#7f7f7f" fill="#e5e5e5" id="e1r6p11" x="152" y="505" height="45" width="34"></rect><image preserveAspectRatio="xMidYMid slice" id="e1r6p11" x="152" y="505" height="45" width="34" xlink:href=""></image>
	</g>
	<g>
		
		<rect stroke="#7f7f7f" fill="#e5e5e5" id="e1r5p15" x="12" y="575" height="45" width="34"></rect><image preserveAspectRatio="xMidYMid slice" id="e1r5p15" x="12" y="575" height="45" width="34" xlink:href=""></image>
		<rect stroke="#7f7f7f" fill="#e5e5e5" id="e1r5p14" x="47" y="590" height="45" width="34"></rect><image preserveAspectRatio="xMidYMid slice" id="e1r5p14" x="47" y="590" height="45" width="34" xlink:href=""></image>
		<rect stroke="#7f7f7f" fill="#e5e5e5" id="e1r5p13" x="82" y="575" height="45" width="34"></rect><image preserveAspectRatio="xMidYMid slice" id="e1r5p13" x="82" y="575" height="45" width="34" xlink:href=""></image>
		<rect stroke="#7f7f7f" fill="#e5e5e5" id="e1r5p12" x="117" y="590" height="45" width="34"></rect><image preserveAspectRatio="xMidYMid slice" id="e1r5p12" x="117" y="590" height="45" width="34" xlink:href=""></image>
		<rect stroke="#7f7f7f" fill="#e5e5e5" id="e1r5p11" x="152" y="575" height="45" width="34"></rect><image preserveAspectRatio="xMidYMid slice" id="e1r5p11" x="152" y="575" height="45" width="34" xlink:href=""></image>
	</g>
	<g>
		
		<rect stroke="#7f7f7f" fill="#e5e5e5" id="e1r4p15" x="12" y="645" height="45" width="34"></rect><image preserveAspectRatio="xMidYMid slice" id="e1r4p15" x="12" y="645" height="45" width="34" xlink:href=""></image>
		<rect stroke="#7f7f7f" fill="#e5e5e5" id="e1r4p14" x="47" y="660" height="45" width="34"></rect><image preserveAspectRatio="xMidYMid slice" id="e1r4p14" x="47" y="660" height="45" width="34" xlink:href=""></image>
		<rect stroke="#7f7f7f" fill="#e5e5e5" id="e1r4p13" x="82" y="645" height="45" width="34"></rect><image preserveAspectRatio="xMidYMid slice" id="e1r4p13" x="82" y="645" height="45" width="34" xlink:href=""></image>
		<rect stroke="#7f7f7f" fill="#e5e5e5" id="e1r4p12" x="117" y="660" height="45" width="34"></rect><image preserveAspectRatio="xMidYMid slice" id="e1r4p12" x="117" y="660" height="45" width="34" xlink:href=""></image>
		<rect stroke="#7f7f7f" fill="#e5e5e5" id="e1r4p11" x="152" y="645" height="45" width="34"></rect><image preserveAspectRatio="xMidYMid slice" id="e1r4p11" x="152" y="645" height="45" width="34" xlink:href=""></image>
	</g>
	<g>
		
		<rect stroke="#7f7f7f" fill="#e5e5e5" id="e1r3p15" x="12" y="715" height="45" width="34"></rect><image preserveAspectRatio="xMidYMid slice" id="e1r3p15" x="12" y="715" height="45" width="34" xlink:href=""></image>
		<rect stroke="#7f7f7f" fill="#e5e5e5" id="e1r3p14" x="47" y="730" height="45" width="34"></rect><image preserveAspectRatio="xMidYMid slice" id="e1r3p14" x="47" y="730" height="45" width="34" xlink:href=""></image>
		<rect stroke="#7f7f7f" fill="#e5e5e5" id="e1r3p13" x="82" y="715" height="45" width="34"></rect><image preserveAspectRatio="xMidYMid slice" id="e1r3p13" x="82" y="715" height="45" width="34" xlink:href=""></image>
		<rect stroke="#7f7f7f" fill="#e5e5e5" id="e1r3p12" x="117" y="730" height="45" width="34"></rect><image preserveAspectRatio="xMidYMid slice" id="e1r3p12" x="117" y="730" height="45" width="34" xlink:href=""></image>
		<rect stroke="#7f7f7f" fill="#e5e5e5" id="e1r3p11" x="152" y="715" height="45" width="34"></rect><image preserveAspectRatio="xMidYMid slice" id="e1r3p11" x="152" y="715" height="45" width="34" xlink:href=""></image>
	</g>
	<g>
		
		<rect stroke="#7f7f7f" fill="#e5e5e5" id="e1r2p15" x="12" y="785" height="45" width="34"></rect><image preserveAspectRatio="xMidYMid slice" id="e1r2p15" x="12" y="785" height="45" width="34" xlink:href=""></image>
		<rect stroke="#7f7f7f" fill="#e5e5e5" id="e1r2p14" x="47" y="800" height="45" width="34"></rect><image preserveAspectRatio="xMidYMid slice" id="e1r2p14" x="47" y="800" height="45" width="34" xlink:href=""></image>
		<rect stroke="#7f7f7f" fill="#e5e5e5" id="e1r2p13" x="82" y="785" height="45" width="34"></rect><image preserveAspectRatio="xMidYMid slice" id="e1r2p13" x="82" y="785" height="45" width="34" xlink:href=""></image>
		<rect stroke="#7f7f7f" fill="#e5e5e5" id="e1r2p12" x="117" y="800" height="45" width="34"></rect><image preserveAspectRatio="xMidYMid slice" id="e1r2p12" x="117" y="800" height="45" width="34" xlink:href=""></image>
		<rect stroke="#7f7f7f" fill="#e5e5e5" id="e1r2p11" x="152" y="785" height="45" width="34"></rect><image preserveAspectRatio="xMidYMid slice" id="e1r2p11" x="152" y="785" height="45" width="34" xlink:href=""></image>
	</g>
</g>
<g>
	<g>
		
		<rect stroke="#7f7f7f" fill="#e5e5e5" id="e1r9p10" x="212" y="295" height="45" width="34"></rect><image preserveAspectRatio="xMidYMid slice" id="e1r9p10" x="212" y="295" height="45" width="34" xlink:href=""></image>
		<rect stroke="#7f7f7f" fill="#e5e5e5" id="e1r9p9"  x="247" y="310" height="45" width="34"></rect><image preserveAspectRatio="xMidYMid slice" id="e1r9p9" x="247" y="310" height="45" width="34" xlink:href=""></image>
		<rect stroke="#7f7f7f" fill="#e5e5e5" id="e1r9p8"  x="282" y="295" height="45" width="34"></rect><image preserveAspectRatio="xMidYMid slice" id="e1r9p8" x="282" y="295" height="45" width="34" xlink:href=""></image>
		<rect stroke="#7f7f7f" fill="#e5e5e5" id="e1r9p7"  x="317" y="310" height="45" width="34"></rect><image preserveAspectRatio="xMidYMid slice" id="e1r9p7" x="317" y="310" height="45" width="34" xlink:href=""></image>
		<rect stroke="#7f7f7f" fill="#e5e5e5" id="e1r9p6"  x="352" y="295" height="45" width="34"></rect><image preserveAspectRatio="xMidYMid slice" id="e1r9p6" x="352" y="295" height="45" width="34" xlink:href=""></image>
	</g>
	<g>
		
		<rect stroke="#7f7f7f" fill="#e5e5e5" id="e1r8p10" x="212" y="365" height="45" width="34"></rect><image preserveAspectRatio="xMidYMid slice" id="e1r8p10" x="212" y="365" height="45" width="34" xlink:href=""></image>
		<rect stroke="#7f7f7f" fill="#e5e5e5" id="e1r8p9"  x="247" y="380" height="45" width="34"></rect><image preserveAspectRatio="xMidYMid slice" id="e1r8p9" x="247" y="380" height="45" width="34" xlink:href=""></image>
		<rect stroke="#7f7f7f" fill="#e5e5e5" id="e1r8p8"  x="282" y="365" height="45" width="34"></rect><image preserveAspectRatio="xMidYMid slice" id="e1r8p8" x="282" y="365" height="45" width="34" xlink:href=""></image>
		<rect stroke="#7f7f7f" fill="#e5e5e5" id="e1r8p7"  x="317" y="380" height="45" width="34"></rect><image preserveAspectRatio="xMidYMid slice" id="e1r8p7" x="317" y="380" height="45" width="34" xlink:href=""></image>
		<rect stroke="#7f7f7f" fill="#e5e5e5" id="e1r8p6"  x="352" y="365" height="45" width="34"></rect><image preserveAspectRatio="xMidYMid slice" id="e1r8p6" x="352" y="365" height="45" width="34" xlink:href=""></image>
	</g>
	<g>
		
		<rect stroke="#7f7f7f" fill="#e5e5e5" id="e1r7p10" x="212" y="435" height="45" width="34"></rect><image preserveAspectRatio="xMidYMid slice" id="e1r7p10" x="212" y="435" height="45" width="34" xlink:href=""></image>
		<rect stroke="#7f7f7f" fill="#e5e5e5" id="e1r7p9"  x="247" y="450" height="45" width="34"></rect><image preserveAspectRatio="xMidYMid slice" id="e1r7p9" x="247" y="450" height="45" width="34" xlink:href=""></image>
		<rect stroke="#7f7f7f" fill="#e5e5e5" id="e1r7p8"  x="282" y="435" height="45" width="34"></rect><image preserveAspectRatio="xMidYMid slice" id="e1r7p8" x="282" y="435" height="45" width="34" xlink:href=""></image>
		<rect stroke="#7f7f7f" fill="#e5e5e5" id="e1r7p7"  x="317" y="450" height="45" width="34"></rect><image preserveAspectRatio="xMidYMid slice" id="e1r7p7" x="317" y="450" height="45" width="34" xlink:href=""></image>
		<rect stroke="#7f7f7f" fill="#e5e5e5" id="e1r7p6"  x="352" y="435" height="45" width="34"></rect><image preserveAspectRatio="xMidYMid slice" id="e1r7p6" x="352" y="435" height="45" width="34" xlink:href=""></image>
	</g>
	<g>
		
		<rect stroke="#7f7f7f" fill="#e5e5e5" id="e1r6p10" x="212" y="505" height="45" width="34"></rect><image preserveAspectRatio="xMidYMid slice" id="e1r6p10" x="212" y="505" height="45" width="34" xlink:href=""></image>
		<rect stroke="#7f7f7f" fill="#e5e5e5" id="e1r6p9"  x="247" y="520" height="45" width="34"></rect><image preserveAspectRatio="xMidYMid slice" id="e1r6p9" x="247" y="520" height="45" width="34" xlink:href=""></image>
		<rect stroke="#7f7f7f" fill="#e5e5e5" id="e1r6p8"  x="282" y="505" height="45" width="34"></rect><image preserveAspectRatio="xMidYMid slice" id="e1r6p8" x="282" y="505" height="45" width="34" xlink:href=""></image>
		<rect stroke="#7f7f7f" fill="#e5e5e5" id="e1r6p7"  x="317" y="520" height="45" width="34"></rect><image preserveAspectRatio="xMidYMid slice" id="e1r6p7" x="317" y="520" height="45" width="34" xlink:href=""></image>
		<rect stroke="#7f7f7f" fill="#e5e5e5" id="e1r6p6"  x="352" y="505" height="45" width="34"></rect><image preserveAspectRatio="xMidYMid slice" id="e1r6p6" x="352" y="505" height="45" width="34" xlink:href=""></image>
	</g>
	<g>
		
		<rect stroke="#7f7f7f" fill="#e5e5e5" id="e1r5p10" x="212" y="575" height="45" width="34"></rect><image preserveAspectRatio="xMidYMid slice" id="e1r5p10" x="212" y="575" height="45" width="34" xlink:href=""></image>
		<rect stroke="#7f7f7f" fill="#e5e5e5" id="e1r5p9"  x="247" y="590" height="45" width="34"></rect><image preserveAspectRatio="xMidYMid slice" id="e1r5p9" x="247" y="590" height="45" width="34" xlink:href=""></image>
		<rect stroke="#7f7f7f" fill="#e5e5e5" id="e1r5p8"  x="282" y="575" height="45" width="34"></rect><image preserveAspectRatio="xMidYMid slice" id="e1r5p8" x="282" y="575" height="45" width="34" xlink:href=""></image>
		<rect stroke="#7f7f7f" fill="#e5e5e5" id="e1r5p7"  x="317" y="590" height="45" width="34"></rect><image preserveAspectRatio="xMidYMid slice" id="e1r5p7" x="317" y="590" height="45" width="34" xlink:href=""></image>
		<rect stroke="#7f7f7f" fill="#e5e5e5" id="e1r5p6"  x="352" y="575" height="45" width="34"></rect><image preserveAspectRatio="xMidYMid slice" id="e1r5p6" x="352" y="575" height="45" width="34" xlink:href=""></image>
	</g>
	<g>
		
		<rect stroke="#7f7f7f" fill="#e5e5e5" id="e1r4p10" x="212" y="645" height="45" width="34"></rect><image preserveAspectRatio="xMidYMid slice" id="e1r4p10" x="212" y="645" height="45" width="34" xlink:href=""></image>
		<rect stroke="#7f7f7f" fill="#e5e5e5" id="e1r4p9"  x="247" y="660" height="45" width="34"></rect><image preserveAspectRatio="xMidYMid slice" id="e1r4p9" x="247" y="660" height="45" width="34" xlink:href=""></image>
		<rect stroke="#7f7f7f" fill="#e5e5e5" id="e1r4p8"  x="282" y="645" height="45" width="34"></rect><image preserveAspectRatio="xMidYMid slice" id="e1r4p8" x="282" y="645" height="45" width="34" xlink:href=""></image>
		<rect stroke="#7f7f7f" fill="#e5e5e5" id="e1r4p7"  x="317" y="660" height="45" width="34"></rect><image preserveAspectRatio="xMidYMid slice" id="e1r4p7" x="317" y="660" height="45" width="34" xlink:href=""></image>
		<rect stroke="#7f7f7f" fill="#e5e5e5" id="e1r4p6"  x="352" y="645" height="45" width="34"></rect><image preserveAspectRatio="xMidYMid slice" id="e1r4p6" x="352" y="645" height="45" width="34" xlink:href=""></image>
	</g>
	<g>
		
		<rect stroke="#7f7f7f" fill="#e5e5e5" id="e1r3p10" x="212" y="715" height="45" width="34"></rect><image preserveAspectRatio="xMidYMid slice" id="e1r3p10" x="212" y="715" height="45" width="34" xlink:href=""></image>
		<rect stroke="#7f7f7f" fill="#e5e5e5" id="e1r3p9"  x="247" y="730" height="45" width="34"></rect><image preserveAspectRatio="xMidYMid slice" id="e1r3p9" x="247" y="730" height="45" width="34" xlink:href=""></image>
		<rect stroke="#7f7f7f" fill="#e5e5e5" id="e1r3p8"  x="282" y="715" height="45" width="34"></rect><image preserveAspectRatio="xMidYMid slice" id="e1r3p8" x="282" y="715" height="45" width="34" xlink:href=""></image>
		<rect stroke="#7f7f7f" fill="#e5e5e5" id="e1r3p7"  x="317" y="730" height="45" width="34"></rect><image preserveAspectRatio="xMidYMid slice" id="e1r3p7" x="317" y="730" height="45" width="34" xlink:href=""></image>
		<rect stroke="#7f7f7f" fill="#e5e5e5" id="e1r3p6"  x="352" y="715" height="45" width="34"></rect><image preserveAspectRatio="xMidYMid slice" id="e1r3p6" x="352" y="715" height="45" width="34" xlink:href=""></image>
	</g>
	<g>
		
		<rect stroke="#7f7f7f" fill="#e5e5e5" id="e1r2p10" x="212" y="785" height="45" width="34"></rect><image preserveAspectRatio="xMidYMid slice" id="e1r2p10" x="212" y="785" height="45" width="34" xlink:href=""></image>
		<rect stroke="#7f7f7f" fill="#e5e5e5" id="e1r2p9"  x="247" y="800" height="45" width="34"></rect><image preserveAspectRatio="xMidYMid slice" id="e1r2p9"  x="247" y="800" height="45" width="34" xlink:href=""></image>
		<rect stroke="#7f7f7f" fill="#e5e5e5" id="e1r2p8"  x="282" y="785" height="45" width="34"></rect><image preserveAspectRatio="xMidYMid slice" id="e1r2p8"  x="282" y="785" height="45" width="34" xlink:href=""></image>
		<rect stroke="#7f7f7f" fill="#e5e5e5" id="e1r2p7"  x="317" y="800" height="45" width="34"></rect><image preserveAspectRatio="xMidYMid slice" id="e1r2p7"  x="317" y="800" height="45" width="34" xlink:href=""></image>
		<rect stroke="#7f7f7f" fill="#e5e5e5" id="e1r2p6"  x="352" y="785" height="45" width="34"></rect><image preserveAspectRatio="xMidYMid slice" id="e1r2p6"  x="352" y="785" height="45" width="34" xlink:href=""></image>
	</g>
</g>
<g>
	<g>
		
		<rect stroke="#7f7f7f" fill="#e5e5e5" id="e1r13p5" x="412" y="15"  height="45" width="34"></rect><image preserveAspectRatio="xMidYMid slice" id="e1r13p5" x="412" y="15" height="45" width="34" xlink:href=""></image>
		<rect stroke="#7f7f7f" fill="#e5e5e5" id="e1r13p4" x="447" y="30"  height="45" width="34"></rect><image preserveAspectRatio="xMidYMid slice" id="e1r13p4" x="447" y="30" height="45" width="34" xlink:href=""></image>
		<rect stroke="#7f7f7f" fill="#e5e5e5" id="e1r13p3" x="482" y="15"  height="45" width="34"></rect><image preserveAspectRatio="xMidYMid slice" id="e1r13p3" x="482" y="15" height="45" width="34" xlink:href=""></image>
		<rect stroke="#7f7f7f" fill="#e5e5e5" id="e1r13p2" x="517" y="30"  height="45" width="34"></rect><image preserveAspectRatio="xMidYMid slice" id="e1r13p2" x="517" y="30" height="45" width="34" xlink:href=""></image>
		<rect stroke="#7f7f7f" fill="#e5e5e5" id="e1r13p1" x="552" y="15"  height="45" width="34"></rect><image preserveAspectRatio="xMidYMid slice" id="e1r13p1" x="552" y="15" height="45" width="34" xlink:href=""></image>
	</g>
	<g>
		
		<rect stroke="#7f7f7f" fill="#e5e5e5" id="e1r12p5" x="412" y="85"  height="45" width="34"></rect><image preserveAspectRatio="xMidYMid slice" id="e1r12p5" x="412" y="85" height="45" width="34" xlink:href=""></image>
		<rect stroke="#7f7f7f" fill="#e5e5e5" id="e1r12p4" x="447" y="100" height="45" width="34"></rect><image preserveAspectRatio="xMidYMid slice" id="e1r12p4" x="447" y="100" height="45" width="34" xlink:href=""></image>
		<rect stroke="#7f7f7f" fill="#e5e5e5" id="e1r12p3" x="482" y="85"  height="45" width="34"></rect><image preserveAspectRatio="xMidYMid slice" id="e1r12p3" x="482" y="85" height="45" width="34" xlink:href=""></image>
		<rect stroke="#7f7f7f" fill="#e5e5e5" id="e1r12p2" x="517" y="100" height="45" width="34"></rect><image preserveAspectRatio="xMidYMid slice" id="e1r12p2" x="517" y="100" height="45" width="34" xlink:href=""></image>
		<rect stroke="#7f7f7f" fill="#e5e5e5" id="e1r12p1" x="552" y="85"  height="45" width="34"></rect><image preserveAspectRatio="xMidYMid slice" id="e1r12p1" x="552" y="85" height="45" width="34" xlink:href=""></image>
	</g>
	<g>
		
		<rect stroke="#7f7f7f" fill="#e5e5e5" id="e1r11p5" x="412" y="155" height="45" width="34"></rect><image preserveAspectRatio="xMidYMid slice" id="e1r11p5" x="412" y="155" height="45" width="34" xlink:href=""></image>
		<rect stroke="#7f7f7f" fill="#e5e5e5" id="e1r11p4" x="447" y="170" height="45" width="34"></rect><image preserveAspectRatio="xMidYMid slice" id="e1r11p4" x="447" y="170" height="45" width="34" xlink:href=""></image>
		<rect stroke="#7f7f7f" fill="#e5e5e5" id="e1r11p3" x="482" y="155" height="45" width="34"></rect><image preserveAspectRatio="xMidYMid slice" id="e1r11p3" x="482" y="155" height="45" width="34" xlink:href=""></image>
		<rect stroke="#7f7f7f" fill="#e5e5e5" id="e1r11p2" x="517" y="170" height="45" width="34"></rect><image preserveAspectRatio="xMidYMid slice" id="e1r11p2" x="517" y="170" height="45" width="34" xlink:href=""></image>
		<rect stroke="#7f7f7f" fill="#e5e5e5" id="e1r11p1" x="552" y="155" height="45" width="34"></rect><image preserveAspectRatio="xMidYMid slice" id="e1r11p1" x="552" y="155" height="45" width="34" xlink:href=""></image>
	</g>
	<g>
		
		<rect stroke="#7f7f7f" fill="#e5e5e5" id="e1r10p5" x="412" y="225" height="45" width="34"></rect><image preserveAspectRatio="xMidYMid slice" id="e1r10p5" x="412" y="225" height="45" width="34" xlink:href=""></image>
		<rect stroke="#7f7f7f" fill="#e5e5e5" id="e1r10p4" x="447" y="240" height="45" width="34"></rect><image preserveAspectRatio="xMidYMid slice" id="e1r10p4" x="447" y="240" height="45" width="34" xlink:href=""></image>
		<rect stroke="#7f7f7f" fill="#e5e5e5" id="e1r10p3" x="482" y="225" height="45" width="34"></rect><image preserveAspectRatio="xMidYMid slice" id="e1r10p3" x="482" y="225" height="45" width="34" xlink:href=""></image>
		<rect stroke="#7f7f7f" fill="#e5e5e5" id="e1r10p2" x="517" y="240" height="45" width="34"></rect><image preserveAspectRatio="xMidYMid slice" id="e1r10p2" x="517" y="240" height="45" width="34" xlink:href=""></image>
		<rect stroke="#7f7f7f" fill="#e5e5e5" id="e1r10p1" x="552" y="225" height="45" width="34"></rect><image preserveAspectRatio="xMidYMid slice" id="e1r10p1" x="552" y="225" height="45" width="34" xlink:href=""></image>
	</g>
	<g>
		
		<rect stroke="#7f7f7f" fill="#e5e5e5" id="e1r9p5" x="412" y="295" height="45" width="34"></rect><image preserveAspectRatio="xMidYMid slice" id="e1r9p5" x="412" y="295" height="45" width="34" xlink:href=""></image>
		<rect stroke="#7f7f7f" fill="#e5e5e5" id="e1r9p4" x="447" y="310" height="45" width="34"></rect><image preserveAspectRatio="xMidYMid slice" id="e1r9p4" x="447" y="310" height="45" width="34" xlink:href=""></image>
		<rect stroke="#7f7f7f" fill="#e5e5e5" id="e1r9p3" x="482" y="295" height="45" width="34"></rect><image preserveAspectRatio="xMidYMid slice" id="e1r9p3" x="482" y="295" height="45" width="34" xlink:href=""></image>
		<rect stroke="#7f7f7f" fill="#e5e5e5" id="e1r9p2" x="517" y="310" height="45" width="34"></rect><image preserveAspectRatio="xMidYMid slice" id="e1r9p2" x="517" y="310" height="45" width="34" xlink:href=""></image>
		<rect stroke="#7f7f7f" fill="#e5e5e5" id="e1r9p1" x="552" y="295" height="45" width="34"></rect><image preserveAspectRatio="xMidYMid slice" id="e1r9p1" x="552" y="295" height="45" width="34" xlink:href=""></image>
	</g>
	<g>
		
		<rect stroke="#7f7f7f" fill="#e5e5e5" id="e1r8p5" x="412" y="365" height="45" width="34"></rect><image preserveAspectRatio="xMidYMid slice" id="e1r8p5" x="412" y="365" height="45" width="34" xlink:href=""></image>
		<rect stroke="#7f7f7f" fill="#e5e5e5" id="e1r8p4" x="447" y="380" height="45" width="34"></rect><image preserveAspectRatio="xMidYMid slice" id="e1r8p4" x="447" y="380" height="45" width="34" xlink:href=""></image>
		<rect stroke="#7f7f7f" fill="#e5e5e5" id="e1r8p3" x="482" y="365" height="45" width="34"></rect><image preserveAspectRatio="xMidYMid slice" id="e1r8p3" x="482" y="365" height="45" width="34" xlink:href=""></image>
		<rect stroke="#7f7f7f" fill="#e5e5e5" id="e1r8p2" x="517" y="380" height="45" width="34"></rect><image preserveAspectRatio="xMidYMid slice" id="e1r8p2" x="517" y="380" height="45" width="34" xlink:href=""></image>
		<rect stroke="#7f7f7f" fill="#e5e5e5" id="e1r8p1" x="552" y="365" height="45" width="34"></rect><image preserveAspectRatio="xMidYMid slice" id="e1r8p1" x="552" y="365" height="45" width="34" xlink:href=""></image>
	</g>
	<g>
		
		<rect stroke="#7f7f7f" fill="#e5e5e5" id="e1r7p5" x="412" y="435" height="45" width="34"></rect><image preserveAspectRatio="xMidYMid slice" id="e1r7p5" x="412" y="435" height="45" width="34" xlink:href=""></image>
		<rect stroke="#7f7f7f" fill="#e5e5e5" id="e1r7p4" x="447" y="450" height="45" width="34"></rect><image preserveAspectRatio="xMidYMid slice" id="e1r7p4" x="447" y="450" height="45" width="34" xlink:href=""></image>
		<rect stroke="#7f7f7f" fill="#e5e5e5" id="e1r7p3" x="482" y="435" height="45" width="34"></rect><image preserveAspectRatio="xMidYMid slice" id="e1r7p3" x="482" y="435" height="45" width="34" xlink:href=""></image>
		<rect stroke="#7f7f7f" fill="#e5e5e5" id="e1r7p2" x="517" y="450" height="45" width="34"></rect><image preserveAspectRatio="xMidYMid slice" id="e1r7p2" x="517" y="450" height="45" width="34" xlink:href=""></image>
		<rect stroke="#7f7f7f" fill="#e5e5e5" id="e1r7p1" x="552" y="435" height="45" width="34"></rect><image preserveAspectRatio="xMidYMid slice" id="e1r7p1" x="552" y="435" height="45" width="34" xlink:href=""></image>
	</g>
	<g>
		
		<rect stroke="#7f7f7f" fill="#e5e5e5" id="e1r6p5" x="412" y="505" height="45" width="34"></rect><image preserveAspectRatio="xMidYMid slice" id="e1r6p5" x="412" y="505" height="45" width="34" xlink:href=""></image>
		<rect stroke="#7f7f7f" fill="#e5e5e5" id="e1r6p4" x="447" y="520" height="45" width="34"></rect><image preserveAspectRatio="xMidYMid slice" id="e1r6p4" x="447" y="520" height="45" width="34" xlink:href=""></image>
		<rect stroke="#7f7f7f" fill="#e5e5e5" id="e1r6p3" x="482" y="505" height="45" width="34"></rect><image preserveAspectRatio="xMidYMid slice" id="e1r6p3" x="482" y="505" height="45" width="34" xlink:href=""></image>
		<rect stroke="#7f7f7f" fill="#e5e5e5" id="e1r6p2" x="517" y="520" height="45" width="34"></rect><image preserveAspectRatio="xMidYMid slice" id="e1r6p2" x="517" y="520" height="45" width="34" xlink:href=""></image>
		<rect stroke="#7f7f7f" fill="#e5e5e5" id="e1r6p1" x="552" y="505" height="45" width="34"></rect><image preserveAspectRatio="xMidYMid slice" id="e1r6p1" x="552" y="505" height="45" width="34" xlink:href=""></image>
	</g>
	<g>
		
		<rect stroke="#7f7f7f" fill="#e5e5e5" id="e1r5p5" x="412" y="575" height="45" width="34"></rect><image preserveAspectRatio="xMidYMid slice" id="e1r5p5" x="412" y="575" height="45" width="34" xlink:href=""></image>
		<rect stroke="#7f7f7f" fill="#e5e5e5" id="e1r5p4" x="447" y="590" height="45" width="34"></rect><image preserveAspectRatio="xMidYMid slice" id="e1r5p4" x="447" y="590" height="45" width="34" xlink:href=""></image>
		<rect stroke="#7f7f7f" fill="#e5e5e5" id="e1r5p3" x="482" y="575" height="45" width="34"></rect><image preserveAspectRatio="xMidYMid slice" id="e1r5p3" x="482" y="575" height="45" width="34" xlink:href=""></image>
		<rect stroke="#7f7f7f" fill="#e5e5e5" id="e1r5p2" x="517" y="590" height="45" width="34"></rect><image preserveAspectRatio="xMidYMid slice" id="e1r5p2" x="517" y="590" height="45" width="34" xlink:href=""></image>
		<rect stroke="#7f7f7f" fill="#e5e5e5" id="e1r5p1" x="552" y="575" height="45" width="34"></rect><image preserveAspectRatio="xMidYMid slice" id="e1r5p1" x="552" y="575" height="45" width="34" xlink:href=""></image>
	</g>
	<g>
		
		<rect stroke="#7f7f7f" fill="#e5e5e5" id="e1r4p5" x="412" y="645" height="45" width="34"></rect><image preserveAspectRatio="xMidYMid slice" id="e1r4p5" x="412" y="645" height="45" width="34" xlink:href=""></image>
		<rect stroke="#7f7f7f" fill="#e5e5e5" id="e1r4p4" x="447" y="660" height="45" width="34"></rect><image preserveAspectRatio="xMidYMid slice" id="e1r4p4" x="447" y="660" height="45" width="34" xlink:href=""></image>
		<rect stroke="#7f7f7f" fill="#e5e5e5" id="e1r4p3" x="482" y="645" height="45" width="34"></rect><image preserveAspectRatio="xMidYMid slice" id="e1r4p3" x="482" y="645" height="45" width="34" xlink:href=""></image>
		<rect stroke="#7f7f7f" fill="#e5e5e5" id="e1r4p2" x="517" y="660" height="45" width="34"></rect><image preserveAspectRatio="xMidYMid slice" id="e1r4p2" x="517" y="660" height="45" width="34" xlink:href=""></image>
		<rect stroke="#7f7f7f" fill="#e5e5e5" id="e1r4p1" x="552" y="645" height="45" width="34"></rect><image preserveAspectRatio="xMidYMid slice" id="e1r4p1" x="552" y="645" height="45" width="34" xlink:href=""></image>
	</g>
	<g>
		
		<rect stroke="#7f7f7f" fill="#e5e5e5" id="e1r3p5" x="412" y="715" height="45" width="34"></rect><image preserveAspectRatio="xMidYMid slice" id="e1r3p5" x="412" y="715" height="45" width="34" xlink:href=""></image>
		<rect stroke="#7f7f7f" fill="#e5e5e5" id="e1r3p4" x="447" y="730" height="45" width="34"></rect><image preserveAspectRatio="xMidYMid slice" id="e1r3p4" x="447" y="730" height="45" width="34" xlink:href=""></image>
		<rect stroke="#7f7f7f" fill="#e5e5e5" id="e1r3p3" x="482" y="715" height="45" width="34"></rect><image preserveAspectRatio="xMidYMid slice" id="e1r3p3" x="482" y="715" height="45" width="34" xlink:href=""></image>
		<rect stroke="#7f7f7f" fill="#e5e5e5" id="e1r3p2" x="517" y="730" height="45" width="34"></rect><image preserveAspectRatio="xMidYMid slice" id="e1r3p2" x="517" y="730" height="45" width="34" xlink:href=""></image>
		<rect stroke="#7f7f7f" fill="#e5e5e5" id="e1r3p1" x="552" y="715" height="45" width="34"></rect><image preserveAspectRatio="xMidYMid slice" id="e1r3p1" x="552" y="715" height="45" width="34" xlink:href=""></image>
	</g>
	<g>
		
		<rect stroke="#7f7f7f" fill="#e5e5e5" id="e1r2p5" x="412" y="785" height="45" width="34"></rect><image preserveAspectRatio="xMidYMid slice" id="e1r2p5" x="412" y="785" height="45" width="34" xlink:href=""></image>
		<rect stroke="#7f7f7f" fill="#e5e5e5" id="e1r2p4" x="447" y="800" height="45" width="34"></rect><image preserveAspectRatio="xMidYMid slice" id="e1r2p4" x="447" y="800" height="45" width="34" xlink:href=""></image>
		<rect stroke="#7f7f7f" fill="#e5e5e5" id="e1r2p3" x="482" y="785" height="45" width="34"></rect><image preserveAspectRatio="xMidYMid slice" id="e1r2p3" x="482" y="785" height="45" width="34" xlink:href=""></image>
		<rect stroke="#7f7f7f" fill="#e5e5e5" id="e1r2p2" x="517" y="800" height="45" width="34"></rect><image preserveAspectRatio="xMidYMid slice" id="e1r2p2" x="517" y="800" height="45" width="34" xlink:href=""></image>
		<rect stroke="#7f7f7f" fill="#e5e5e5" id="e1r2p1" x="552" y="785" height="45" width="34"></rect><image preserveAspectRatio="xMidYMid slice" id="e1r2p1" x="552" y="785" height="45" width="34" xlink:href=""></image>
	</g>
	<g>
		
		<rect stroke="#7f7f7f" fill="#e5e5e5" id="e1r1p5" x="412" y="855" height="45" width="34"></rect><image preserveAspectRatio="xMidYMid slice" id="e1r1p5" x="412" y="855" height="45" width="34" xlink:href=""></image>
		<rect stroke="#7f7f7f" fill="#e5e5e5" id="e1r1p4" x="447" y="870" height="45" width="34"></rect><image preserveAspectRatio="xMidYMid slice" id="e1r1p4" x="447" y="870" height="45" width="34" xlink:href=""></image>
		<rect stroke="#7f7f7f" fill="#e5e5e5" id="e1r1p3" x="482" y="855" height="45" width="34"></rect><image preserveAspectRatio="xMidYMid slice" id="e1r1p3" x="482" y="855" height="45" width="34" xlink:href=""></image>
		<rect stroke="#7f7f7f" fill="#e5e5e5" id="e1r1p2" x="517" y="870" height="45" width="34"></rect><image preserveAspectRatio="xMidYMid slice" id="e1r1p2" x="517" y="870" height="45" width="34" xlink:href=""></image>
		<rect stroke="#7f7f7f" fill="#e5e5e5" id="e1r1p1" x="552" y="855" height="45" width="34"></rect><image preserveAspectRatio="xMidYMid slice" id="e1r1p1" x="552" y="855" height="45" width="34" xlink:href=""></image>
	</g>
</g>
<text transform="matrix(1 0 0 1 602 895)" class="st3 st1 st6">R1</text>
<text transform="matrix(1 0 0 1 602 825)" class="st3 st1 st6">R2</text>
<text transform="matrix(1 0 0 1 602 755)" class="st3 st1 st6">R3</text>
<text transform="matrix(1 0 0 1 602 685)" class="st3 st1 st6">R4</text>
<text transform="matrix(1 0 0 1 602 615)" class="st3 st1 st6">R5</text>
<text transform="matrix(1 0 0 1 602 545)" class="st3 st1 st6">R6</text>
<text transform="matrix(1 0 0 1 602 475)" class="st3 st1 st6">R7</text>
<text transform="matrix(1 0 0 1 602 405)" class="st3 st1 st6">R8</text>
<text transform="matrix(1 0 0 1 602 335)" class="st3 st1 st6">R9</text>
<text transform="matrix(1 0 0 1 602 265)" class="st3 st1 st6">R10</text>
<text transform="matrix(1 0 0 1 602 195)" class="st3 st1 st6">R11</text>
<text transform="matrix(1 0 0 1 602 125)" class="st3 st1 st6">R12</text>
<text transform="matrix(1 0 0 1 602 55)" class="st3 st1 st6">R13</text>
</svg>
